{
.appVersion = "1138";
DisplayStrings = (
"/A-cy/Ve-cy/Ie-cy/Io-cy/Em-cy/En-cy/O-cy/Er-cy/Es-cy/Te-cy/Ha-cy/Dze-cy/I-cy/Yi-cy/Je-cy \012\012FH/Ge-cy H/Gje-cy H/Gheupturn-cy H\012\012\012H/Pe-cy HLH/Tse-cy H/Sha-cy H/Shcha-cy H/Dzhe-cy H/Gheupturn-cy H/Endescender-cy H\012\012H/Iu-cy H\012\012H/Be-cy H/Softsign-cy H/Hardsign-cy H/Yeru-cy H/Ge-cy H/Nje-cy H/El-cy H/Nje-cy H\012\012NH/Ii-cy H/Iishort-cy H/Ii-cy/Imacron-cy H\012\012/Ii-cy/Iishort-cy C/U-cy/brevecyrillic.case-cy/Ushort-cy/brevecomb.case \012\012H/Zhe-cy HKH/Ka-cy H/Kje-cy H/Zhedescender-cy H/Kadescender-cy H/Tse-cy HX/Ha-cy/Hadescender-cy H\012\012H/Ge-cy/En-cy/E-cy H/Ereversed-cy HEH/Es-cy H\012H/Ereversed-cy H/Ze-cy HCHBH3H\012\012HJHjHVHYH/U-cy H/U-cy/Ushort-cy H\012\012H/De-cy H/El-cy HH\012\012HOHo0/Ef-cy OHC\012\012HuH/Che-cy HuH\012\012/Che-cy/Tshe-cy/Dje-cy \012\012\012\012",
"/a-cy/ie-cy/io-cy/o-cy/er-cy/es-cy/u-cy/ushort-cy/ha-cy/dze-cy/i-cy/je-cy",
"oBcn/ve-cy olt/ge-cy/gje-cy/gheupturn-cy/Gheupturn-cy L/De-cy/de-cy nk/zhe-cy/Zhe-cy/ze-cy/ii-cy/breve/iishort-cy/ka-cy/kje-cy/el-cy/em-cy/en-cy/pe-cy/te-cy/che-cy/tse-cy/sha-cy/shcha-cy/dzhe-cy/softsign-cy/hardsign-cy/yeru-cy/lje-cy/softsign-cy/nje-cy/e-cy/ereversed-cy/iu-cy P/ia-cy",
H,
"/Be-cy",
"/Te-cy",
"/Sha-cy",
"/E-cy",
"/Tshe-cy",
"/dcroat",
"Ð/hbar/Hbar/Yat-cy/Ustraitstroke-cy/dje-cy/yat-cy/ustraitstroke-cy",
"/A-cy/Be-cy/Ve-cy/Ge-cy/Gje-cy/Gheupturn-cy/De-cy/Ie-cy/Io-cy/Zhe-cy/Ze-cy/Ii-cy/Iishort-cy/Ka-cy/Kje-cy/El-cy/Em-cy/En-cy/O-cy/Pe-cy/Er-cy/Es-cy/Te-cy/U-cy/Ushort-cy/Ef-cy/Ha-cy/Che-cy/Tse-cy/Sha-cy/Shcha-cy/Dzhe-cy/Softsign-cy/Hardsign-cy/Yeru-cy/Lje-cy/Nje-cy/Dze-cy/E-cy/Ereversed-cy/I-cy/Yi-cy/Je-cy/Tshe-cy/Iu-cy/Ia-cy/Dje-cy/Yat-cy/Fita-cy/Izhitsa-cy/Ghestroke-cy/Zhedescender-cy/Kadescender-cy/Endescender-cy/Ustrait-cy/Ustraitstroke-cy/Hadescender-cy/Chedescender-cy/Shha-cy/Palochka-cy/Schwa-cy/Imacron-cy/Obarred-cy/Umacron-cy",

glyphs = (
{
glyphname = a;
lastChange = "2018-03-29 19:45:39 +0000";
layers = (
{
anchors = (
{
name = bottom;
position = "{285, 0}";
},
{
name = ogonek;
position = "{473, 10}";
},
{
name = top;
position = "{277, 582}";
}
);
layerId = UUID0;
paths = (
{
closed = 1;
nodes = (
"313 -13 OFFCURVE",
"392 56 OFFCURVE",
"410 67 CURVE",
"363 61 LINE",
"445 61 LINE",
"400 98 LINE",
"419 0 LINE",
"473 0 LINE",
"473 383 LINE SMOOTH",
"473 510 OFFCURVE",
"425 595 OFFCURVE",
"290 595 CURVE SMOOTH",
"179 595 OFFCURVE",
"67 538 OFFCURVE",
"67 538 CURVE",
"96 473 LINE",
"96 473 OFFCURVE",
"204 523 OFFCURVE",
"307 523 CURVE SMOOTH",
"332 523 OFFCURVE",
"357 520 OFFCURVE",
"371 501 CURVE SMOOTH",
"391 474 OFFCURVE",
"390 410 OFFCURVE",
"390 332 CURVE",
"428 358 LINE",
"284 358 LINE SMOOTH",
"145 358 OFFCURVE",
"54 314 OFFCURVE",
"54 172 CURVE SMOOTH",
"54 53 OFFCURVE",
"118 -13 OFFCURVE",
"211 -13 CURVE SMOOTH"
);
},
{
closed = 1;
nodes = (
"165 60 OFFCURVE",
"141 93 OFFCURVE",
"141 172 CURVE SMOOTH",
"141 220 OFFCURVE",
"150 255 OFFCURVE",
"168 269 CURVE",
"183 282 OFFCURVE",
"222 288 OFFCURVE",
"283 288 CURVE SMOOTH",
"347 288 OFFCURVE",
"382 282 OFFCURVE",
"396 280 CURVE",
"390 301 LINE",
"390 76 LINE",
"396 118 LINE",
"374 106 OFFCURVE",
"303 60 OFFCURVE",
"225 60 CURVE SMOOTH"
);
}
);
width = 569;
},
{
anchors = (
{
name = bottom;
position = "{311, 0}";
},
{
name = ogonek;
position = "{530, 10}";
},
{
name = top;
position = "{311, 588}";
}
);
layerId = "DBD97FAF-1301-49A4-893D-DCFDD4490496";
paths = (
{
closed = 1;
nodes = (
"322 -13 OFFCURVE",
"425 65 OFFCURVE",
"425 65 CURVE",
"431 65 LINE",
"451 0 LINE",
"549 0 LINE",
"549 380 LINE SMOOTH",
"549 517 OFFCURVE",
"491 601 OFFCURVE",
"320 601 CURVE SMOOTH",
"185 601 OFFCURVE",
"66 549 OFFCURVE",
"66 549 CURVE",
"98 437 LINE",
"98 437 OFFCURVE",
"224 477 OFFCURVE",
"319 477 CURVE SMOOTH",
"366 477 OFFCURVE",
"375 467 OFFCURVE",
"381 458 CURVE SMOOTH",
"388 447 OFFCURVE",
"394 428 OFFCURVE",
"394 371 CURVE",
"319 371 LINE SMOOTH",
"155 371 OFFCURVE",
"51 324 OFFCURVE",
"51 179 CURVE SMOOTH",
"51 56 OFFCURVE",
"126 -13 OFFCURVE",
"222 -13 CURVE SMOOTH"
);
},
{
closed = 1;
nodes = (
"225 114 OFFCURVE",
"209 135 OFFCURVE",
"209 185 CURVE SMOOTH",
"209 220 OFFCURVE",
"217 238 OFFCURVE",
"226 246 CURVE SMOOTH",
"238 257 OFFCURVE",
"262 261 OFFCURVE",
"308 261 CURVE SMOOTH",
"359 261 OFFCURVE",
"394 256 OFFCURVE",
"394 256 CURVE",
"394 152 LINE",
"394 152 OFFCURVE",
"323 114 OFFCURVE",
"267 114 CURVE SMOOTH"
);
}
);
width = 622;
},
{
anchors = (
{
name = bottom;
position = "{285, 0}";
},
{
name = ogonek;
position = "{473, 10}";
},
{
name = top;
position = "{277, 582}";
}
);
associatedMasterId = UUID0;
layerId = "6AE25068-97AD-4D6F-B9F3-51E6C544CB0B";
name = "Feb 28 18, 18:19";
paths = (
{
closed = 1;
nodes = (
"309 -13 OFFCURVE",
"401 61 OFFCURVE",
"401 61 CURVE",
"407 61 LINE",
"419 0 LINE",
"419 0 OFFCURVE",
"473 0 OFFCURVE",
"473 0 CURVE",
"473 383 LINE SMOOTH",
"473 510 OFFCURVE",
"425 595 OFFCURVE",
"290 595 CURVE SMOOTH",
"179 595 OFFCURVE",
"67 538 OFFCURVE",
"67 538 CURVE",
"96 473 LINE",
"96 473 OFFCURVE",
"204 523 OFFCURVE",
"307 523 CURVE SMOOTH",
"332 523 OFFCURVE",
"357 520 OFFCURVE",
"371 501 CURVE SMOOTH",
"388 478 OFFCURVE",
"390 428 OFFCURVE",
"390 358 CURVE",
"284 358 LINE SMOOTH",
"145 358 OFFCURVE",
"54 314 OFFCURVE",
"54 172 CURVE SMOOTH",
"54 53 OFFCURVE",
"118 -13 OFFCURVE",
"211 -13 CURVE SMOOTH"
);
},
{
closed = 1;
nodes = (
"165 61 OFFCURVE",
"141 94 OFFCURVE",
"141 172 CURVE SMOOTH",
"141 220 OFFCURVE",
"150 255 OFFCURVE",
"168 269 CURVE",
"183 282 OFFCURVE",
"222 288 OFFCURVE",
"283 288 CURVE SMOOTH",
"347 288 OFFCURVE",
"390 281 OFFCURVE",
"390 281 CURVE",
"390 115 LINE",
"390 115 OFFCURVE",
"301 61 OFFCURVE",
"225 61 CURVE SMOOTH"
);
}
);
width = 569;
},
{
anchors = (
{
name = bottom;
position = "{285, 0}";
},
{
name = ogonek;
position = "{473, 10}";
},
{
name = top;
position = "{277, 582}";
}
);
associatedMasterId = UUID0;
layerId = "F5A3AC5D-687E-4ED7-B4FD-08373E83C9C6";
name = "Mar 29 18, 16:44";
paths = (
{
closed = 1;
nodes = (
"309 -13 OFFCURVE",
"401 61 OFFCURVE",
"401 61 CURVE",
"407 61 LINE",
"419 0 LINE",
"473 0 LINE",
"473 383 LINE SMOOTH",
"473 510 OFFCURVE",
"425 595 OFFCURVE",
"290 595 CURVE SMOOTH",
"179 595 OFFCURVE",
"67 538 OFFCURVE",
"67 538 CURVE",
"96 473 LINE",
"96 473 OFFCURVE",
"204 523 OFFCURVE",
"307 523 CURVE SMOOTH",
"332 523 OFFCURVE",
"357 520 OFFCURVE",
"371 501 CURVE SMOOTH",
"391 474 OFFCURVE",
"390 410 OFFCURVE",
"390 320 CURVE",
"428 358 LINE",
"284 358 LINE SMOOTH",
"145 358 OFFCURVE",
"54 314 OFFCURVE",
"54 172 CURVE SMOOTH",
"54 53 OFFCURVE",
"118 -13 OFFCURVE",
"211 -13 CURVE SMOOTH"
);
},
{
closed = 1;
nodes = (
"165 60 OFFCURVE",
"141 93 OFFCURVE",
"141 172 CURVE SMOOTH",
"141 220 OFFCURVE",
"150 255 OFFCURVE",
"168 269 CURVE",
"183 282 OFFCURVE",
"222 288 OFFCURVE",
"283 288 CURVE SMOOTH",
"362 288 OFFCURVE",
"409 277 OFFCURVE",
"383 282 CURVE",
"390 319 LINE",
"390 114 LINE",
"390 114 OFFCURVE",
"301 60 OFFCURVE",
"225 60 CURVE SMOOTH"
);
}
);
visible = 1;
width = 569;
}
);
leftKerningGroup = a;
rightKerningGroup = a;
unicode = 0061;
},
{
glyphname = p;
lastChange = "2018-03-29 19:47:20 +0000";
layers = (
{
anchors = (
{
name = bottom;
position = "{289, 0}";
},
{
name = top;
position = "{289, 582}";
}
);
layerId = UUID0;
paths = (
{
closed = 1;
nodes = (
"168 -166 LINE",
"168 22 LINE",
"154 2 LINE",
"167 -1 OFFCURVE",
"235 -14 OFFCURVE",
"296 -14 CURVE SMOOTH",
"401 -14 OFFCURVE",
"507 44 OFFCURVE",
"507 302 CURVE SMOOTH",
"507 507 OFFCURVE",
"439 595 OFFCURVE",
"331 595 CURVE SMOOTH",
"243 595 OFFCURVE",
"181 538 OFFCURVE",
"145 514 CURVE",
"195 523 LINE",
"114 523 LINE",
"159 486 LINE",
"141 582 LINE",
"85 582 LINE",
"85 -166 LINE"
);
},
{
closed = 1;
nodes = (
"250 60 OFFCURVE",
"175 78 OFFCURVE",
"157 84 CURVE",
"168 54 LINE",
"168 505 LINE",
"160 462 LINE",
"172 470 OFFCURVE",
"260 521 OFFCURVE",
"334 521 CURVE SMOOTH",
"368 521 OFFCURVE",
"383 511 OFFCURVE",
"390 504 CURVE SMOOTH",
"407 487 OFFCURVE",
"419 449 OFFCURVE",
"419 318 CURVE SMOOTH",
"419 155 OFFCURVE",
"400 99 OFFCURVE",
"372 76 CURVE SMOOTH",
"354 61 OFFCURVE",
"329 60 OFFCURVE",
"315 60 CURVE SMOOTH"
);
}
);
width = 577;
},
{
anchors = (
{
name = bottom;
position = "{315, 0}";
},
{
name = top;
position = "{315, 588}";
}
);
layerId = "DBD97FAF-1301-49A4-893D-DCFDD4490496";
paths = (
{
closed = 1;
nodes = (
"229 -166 LINE",
"229 -4 LINE",
"229 -4 OFFCURVE",
"290 -13 OFFCURVE",
"335 -13 CURVE SMOOTH",
"450 -13 OFFCURVE",
"582 45 OFFCURVE",
"582 304 CURVE SMOOTH",
"582 513 OFFCURVE",
"496 601 OFFCURVE",
"382 601 CURVE SMOOTH",
"304 601 OFFCURVE",
"240 559 OFFCURVE",
"196 528 CURVE",
"191 528 LINE",
"173 588 LINE",
"74 588 LINE",
"74 -166 LINE"
);
},
{
closed = 1;
nodes = (
"277 113 OFFCURVE",
"229 127 OFFCURVE",
"229 127 CURVE",
"229 430 LINE",
"229 436 OFFCURVE",
"303 474 OFFCURVE",
"358 474 CURVE SMOOTH",
"385 474 OFFCURVE",
"397 467 OFFCURVE",
"405 455 CURVE SMOOTH",
"418 436 OFFCURVE",
"424 396 OFFCURVE",
"424 308 CURVE SMOOTH",
"424 177 OFFCURVE",
"408 139 OFFCURVE",
"388 126 CURVE",
"374 117 OFFCURVE",
"360 113 OFFCURVE",
"329 113 CURVE SMOOTH"
);
}
);
width = 630;
},
{
anchors = (
{
name = bottom;
position = "{289, 0}";
},
{
name = top;
position = "{289, 582}";
}
);
associatedMasterId = UUID0;
layerId = "1F1F09CE-DE2A-4C5C-A32E-5ECB8EC309E9";
name = "Mar 29 18, 16:46";
paths = (
{
closed = 1;
nodes = (
"168 -166 LINE",
"168 1 LINE",
"168 1 OFFCURVE",
"245 -13 OFFCURVE",
"296 -13 CURVE SMOOTH",
"401 -13 OFFCURVE",
"507 45 OFFCURVE",
"507 302 CURVE SMOOTH",
"507 507 OFFCURVE",
"439 595 OFFCURVE",
"331 595 CURVE SMOOTH",
"241 595 OFFCURVE",
"175 533 OFFCURVE",
"157 523 CURVE",
"152 523 LINE",
"141 582 LINE",
"85 582 LINE",
"85 -166 LINE"
);
},
{
closed = 1;
nodes = (
"242 61 OFFCURVE",
"139 90 OFFCURVE",
"176 80 CURVE",
"168 44 LINE",
"168 467 LINE",
"168 467 OFFCURVE",
"256 521 OFFCURVE",
"334 521 CURVE SMOOTH",
"368 521 OFFCURVE",
"383 511 OFFCURVE",
"390 504 CURVE SMOOTH",
"407 487 OFFCURVE",
"419 449 OFFCURVE",
"419 318 CURVE SMOOTH",
"419 156 OFFCURVE",
"400 100 OFFCURVE",
"372 77 CURVE SMOOTH",
"354 62 OFFCURVE",
"329 61 OFFCURVE",
"315 61 CURVE SMOOTH"
);
}
);
visible = 1;
width = 577;
}
);
leftKerningGroup = l;
rightKerningGroup = o;
unicode = 0070;
},
{
glyphname = g;
lastChange = "2018-03-29 19:50:20 +0000";
layers = (
{
anchors = (
{
name = bottom;
position = "{261, 0}";
},
{
name = top;
position = "{268, 582}";
}
);
layerId = UUID0;
paths = (
{
closed = 1;
nodes = (
"381 -179 OFFCURVE",
"469 -133 OFFCURVE",
"469 -52 CURVE SMOOTH",
"469 -9 OFFCURVE",
"440 35 OFFCURVE",
"325 84 CURVE SMOOTH",
"248 117 OFFCURVE",
"235 120 OFFCURVE",
"235 125 CURVE SMOOTH",
"235 131 OFFCURVE",
"246 189 OFFCURVE",
"248 201 CURVE",
"213 189 LINE",
"365 175 OFFCURVE",
"456 261 OFFCURVE",
"456 385 CURVE SMOOTH",
"456 445 OFFCURVE",
"422 521 OFFCURVE",
"422 520 CURVE",
"488 530 LINE",
"488 583 LINE",
"488 583 OFFCURVE",
"345 595 OFFCURVE",
"277 595 CURVE SMOOTH",
"154 595 OFFCURVE",
"47 545 OFFCURVE",
"47 382 CURVE SMOOTH",
"47 281 OFFCURVE",
"112 204 OFFCURVE",
"206 192 CURVE",
"200 209 LINE",
"190 183 OFFCURVE",
"146 81 OFFCURVE",
"146 79 CURVE SMOOTH",
"146 72 OFFCURVE",
"153 72 OFFCURVE",
"267 24 CURVE SMOOTH",
"375 -22 OFFCURVE",
"394 -35 OFFCURVE",
"394 -65 CURVE SMOOTH",
"394 -90 OFFCURVE",
"375 -102 OFFCURVE",
"300 -102 CURVE SMOOTH",
"226 -102 OFFCURVE",
"146 -90 OFFCURVE",
"71 -77 CURVE",
"61 -152 LINE",
"61 -152 OFFCURVE",
"146 -179 OFFCURVE",
"253 -179 CURVE SMOOTH"
);
},
{
closed = 1;
nodes = (
"163 260 OFFCURVE",
"128 288 OFFCURVE",
"128 387 CURVE SMOOTH",
"128 498 OFFCURVE",
"167 523 OFFCURVE",
"261 523 CURVE",
"261 523 OFFCURVE",
"350 522 OFFCURVE",
"356 516 CURVE",
"364 512 OFFCURVE",
"376 463 OFFCURVE",
"376 387 CURVE SMOOTH",
"376 287 OFFCURVE",
"340 260 OFFCURVE",
"251 260 CURVE SMOOTH"
);
}
);
width = 521;
},
{
anchors = (
{
name = bottom;
position = "{283, -166}";
},
{
name = top;
position = "{283, 588}";
}
);
layerId = "DBD97FAF-1301-49A4-893D-DCFDD4490496";
paths = (
{
closed = 1;
nodes = (
"426 -179 OFFCURVE",
"534 -129 OFFCURVE",
"534 -35 CURVE SMOOTH",
"534 24 OFFCURVE",
"491 62 OFFCURVE",
"363 112 CURVE SMOOTH",
"296 138 OFFCURVE",
"259 146 OFFCURVE",
"259 154 CURVE SMOOTH",
"259 156 OFFCURVE",
"261 174 OFFCURVE",
"261 174 CURVE",
"424 176 OFFCURVE",
"517 264 OFFCURVE",
"517 377 CURVE SMOOTH",
"517 435 OFFCURVE",
"492 489 OFFCURVE",
"492 489 CURVE",
"554 499 LINE",
"554 589 LINE",
"554 589 OFFCURVE",
"370 601 OFFCURVE",
"300 601 CURVE SMOOTH",
"153 601 OFFCURVE",
"25 547 OFFCURVE",
"25 386 CURVE SMOOTH",
"25 284 OFFCURVE",
"77 222 OFFCURVE",
"169 190 CURVE",
"169 190 OFFCURVE",
"130 99 OFFCURVE",
"130 75 CURVE SMOOTH",
"130 66 OFFCURVE",
"136 61 OFFCURVE",
"220 31 CURVE SMOOTH",
"381 -27 OFFCURVE",
"391 -29 OFFCURVE",
"391 -40 CURVE SMOOTH",
"391 -52 OFFCURVE",
"377 -56 OFFCURVE",
"332 -56 CURVE SMOOTH",
"248 -56 OFFCURVE",
"150 -42 OFFCURVE",
"54 -27 CURVE",
"37 -145 LINE",
"37 -145 OFFCURVE",
"154 -179 OFFCURVE",
"277 -179 CURVE SMOOTH"
);
},
{
closed = 1;
nodes = (
"190 287 OFFCURVE",
"167 309 OFFCURVE",
"167 390 CURVE SMOOTH",
"167 479 OFFCURVE",
"195 491 OFFCURVE",
"285 491 CURVE SMOOTH",
"311 491 OFFCURVE",
"354 490 OFFCURVE",
"362 482 CURVE SMOOTH",
"370 474 OFFCURVE",
"375 441 OFFCURVE",
"375 398 CURVE SMOOTH",
"375 309 OFFCURVE",
"354 287 OFFCURVE",
"272 287 CURVE SMOOTH"
);
}
);
width = 565;
},
{
anchors = (
{
name = bottom;
position = "{283, -166}";
},
{
name = top;
position = "{283, 588}";
}
);
associatedMasterId = "DBD97FAF-1301-49A4-893D-DCFDD4490496";
layerId = "3771A2F8-492A-4828-9A04-4941C089B8D0";
name = "Mar 26 18, 13:27";
paths = (
{
closed = 1;
nodes = (
"426 -179 OFFCURVE",
"534 -129 OFFCURVE",
"534 -35 CURVE SMOOTH",
"534 24 OFFCURVE",
"491 62 OFFCURVE",
"363 112 CURVE SMOOTH",
"296 138 OFFCURVE",
"259 146 OFFCURVE",
"259 154 CURVE SMOOTH",
"259 156 OFFCURVE",
"261 174 OFFCURVE",
"261 174 CURVE",
"424 176 OFFCURVE",
"517 264 OFFCURVE",
"517 377 CURVE SMOOTH",
"517 435 OFFCURVE",
"492 489 OFFCURVE",
"492 489 CURVE",
"554 499 LINE",
"554 589 LINE",
"554 589 OFFCURVE",
"370 601 OFFCURVE",
"300 601 CURVE SMOOTH",
"153 601 OFFCURVE",
"25 547 OFFCURVE",
"25 386 CURVE SMOOTH",
"25 284 OFFCURVE",
"77 222 OFFCURVE",
"169 190 CURVE",
"169 190 OFFCURVE",
"130 99 OFFCURVE",
"130 75 CURVE SMOOTH",
"130 66 OFFCURVE",
"136 61 OFFCURVE",
"220 31 CURVE SMOOTH",
"381 -27 OFFCURVE",
"391 -29 OFFCURVE",
"391 -40 CURVE SMOOTH",
"391 -52 OFFCURVE",
"377 -56 OFFCURVE",
"332 -56 CURVE SMOOTH",
"248 -56 OFFCURVE",
"150 -42 OFFCURVE",
"54 -27 CURVE",
"37 -145 LINE",
"37 -145 OFFCURVE",
"154 -179 OFFCURVE",
"277 -179 CURVE SMOOTH"
);
},
{
closed = 1;
nodes = (
"193 287 OFFCURVE",
"170 309 OFFCURVE",
"170 390 CURVE SMOOTH",
"170 479 OFFCURVE",
"198 491 OFFCURVE",
"288 491 CURVE SMOOTH",
"314 491 OFFCURVE",
"357 490 OFFCURVE",
"365 482 CURVE SMOOTH",
"373 474 OFFCURVE",
"378 441 OFFCURVE",
"378 398 CURVE SMOOTH",
"378 309 OFFCURVE",
"357 287 OFFCURVE",
"275 287 CURVE SMOOTH"
);
}
);
width = 565;
},
{
anchors = (
{
name = bottom;
position = "{261, 0}";
},
{
name = top;
position = "{268, 582}";
}
);
associatedMasterId = UUID0;
layerId = "24BAA6C6-A66F-4888-8879-D3323127A58B";
name = "Mar 29 18, 16:48";
paths = (
{
closed = 1;
nodes = (
"381 -179 OFFCURVE",
"469 -133 OFFCURVE",
"469 -52 CURVE SMOOTH",
"469 -9 OFFCURVE",
"440 35 OFFCURVE",
"325 84 CURVE SMOOTH",
"248 117 OFFCURVE",
"235 120 OFFCURVE",
"235 125 CURVE SMOOTH",
"235 131 OFFCURVE",
"254 243 OFFCURVE",
"239 153 CURVE",
"213 189 LINE",
"365 175 OFFCURVE",
"456 261 OFFCURVE",
"456 385 CURVE SMOOTH",
"456 445 OFFCURVE",
"422 521 OFFCURVE",
"422 520 CURVE",
"488 530 LINE",
"488 583 LINE",
"488 583 OFFCURVE",
"345 595 OFFCURVE",
"277 595 CURVE SMOOTH",
"154 595 OFFCURVE",
"47 545 OFFCURVE",
"47 382 CURVE SMOOTH",
"47 281 OFFCURVE",
"112 202 OFFCURVE",
"221 189 CURVE",
"200 209 LINE",
"190 183 OFFCURVE",
"146 81 OFFCURVE",
"146 79 CURVE SMOOTH",
"146 72 OFFCURVE",
"153 72 OFFCURVE",
"267 24 CURVE SMOOTH",
"375 -22 OFFCURVE",
"394 -35 OFFCURVE",
"394 -65 CURVE SMOOTH",
"394 -90 OFFCURVE",
"375 -102 OFFCURVE",
"300 -102 CURVE SMOOTH",
"226 -102 OFFCURVE",
"146 -90 OFFCURVE",
"71 -77 CURVE",
"61 -152 LINE",
"61 -152 OFFCURVE",
"146 -179 OFFCURVE",
"253 -179 CURVE SMOOTH"
);
},
{
closed = 1;
nodes = (
"163 260 OFFCURVE",
"128 288 OFFCURVE",
"128 387 CURVE SMOOTH",
"128 498 OFFCURVE",
"167 523 OFFCURVE",
"261 523 CURVE",
"261 523 OFFCURVE",
"350 522 OFFCURVE",
"356 516 CURVE",
"364 512 OFFCURVE",
"376 463 OFFCURVE",
"376 387 CURVE SMOOTH",
"376 287 OFFCURVE",
"340 260 OFFCURVE",
"251 260 CURVE SMOOTH"
);
}
);
visible = 1;
width = 521;
}
);
unicode = 0067;
},
{
glyphname = A;
lastChange = "2018-04-28 10:22:35 +0000";
layers = (
{
anchors = (
{
name = bottom;
position = "{258, 0}";
},
{
name = ogonek;
position = "{501, 10}";
},
{
name = top;
position = "{253, 695}";
}
);
layerId = UUID0;
paths = (
{
closed = 1;
nodes = (
"129 0 LINE",
"81 -37 LINE",
"144 208 LINE",
"104 184 LINE",
"404 184 LINE",
"362 208 LINE",
"425 -37 LINE",
"378 0 LINE",
"540 0 LINE",
"511 -36 LINE",
"302 731 LINE",
"350 695 LINE",
"156 695 LINE",
"204 731 LINE",
"-5 -36 LINE",
"-33 0 LINE"
);
},
{
closed = 1;
nodes = (
"259 658 LINE",
"212 621 LINE",
"294 621 LINE",
"247 658 LINE",
"360 219 LINE",
"388 258 LINE",
"118 258 LINE",
"146 219 LINE"
);
}
);
width = 506;
},
{
anchors = (
{
name = bottom;
position = "{287, 0}";
},
{
name = ogonek;
position = "{552, 10}";
},
{
name = top;
position = "{287, 703}";
}
);
layerId = "DBD97FAF-1301-49A4-893D-DCFDD4490496";
paths = (
{
closed = 1;
nodes = (
"151 0 LINE",
"205 224 LINE",
"118 156 LINE",
"450 156 LINE",
"363 224 LINE",
"417 -1 LINE",
"579 0 LINE",
"386 703 LINE",
"182 703 LINE",
"-11 0 LINE"
);
},
{
closed = 1;
nodes = (
"297 625 LINE",
"211 557 LINE",
"357 557 LINE",
"271 625 LINE",
"366 220 LINE",
"420 288 LINE",
"148 288 LINE",
"202 220 LINE"
);
}
);
width = 573;
},
{
anchors = (
{
name = bottom;
position = "{258, 0}";
},
{
name = ogonek;
position = "{501, 10}";
},
{
name = top;
position = "{253, 695}";
}
);
associatedMasterId = UUID0;
layerId = "1E5B11BA-55C6-42AA-AE12-FF7309663C18";
name = "Apr 20 18, 12:14";
paths = (
{
closed = 1;
nodes = (
"132 0 LINE",
"84 -37 LINE",
"149 208 LINE",
"105 186 LINE",
"402 186 LINE",
"358 212 LINE",
"421 -37 LINE",
"374 0 LINE",
"540 0 LINE",
"512 -36 LINE",
"296 731 LINE",
"344 695 LINE",
"163 695 LINE",
"211 731 LINE",
"-5 -36 LINE",
"-33 0 LINE"
);
},
{
closed = 1;
nodes = (
"259 664 LINE",
"212 627 LINE",
"294 627 LINE",
"247 664 LINE",
"357 219 LINE",
"386 256 LINE",
"120 256 LINE",
"149 219 LINE"
);
}
);
width = 515;
}
);
leftKerningGroup = A;
rightKerningGroup = A;
unicode = 0041;
},
{
glyphname = o;
lastChange = "2018-04-27 22:54:01 +0000";
layers = (
{
anchors = (
{
name = bottom;
position = "{288, 0}";
},
{
name = center;
position = "{288, 291}";
},
{
name = ogonek;
position = "{518, 10}";
},
{
name = top;
position = "{288, 582}";
},
{
name = topright;
position = "{556, 582}";
}
);
layerId = UUID0;
paths = (
{
closed = 1;
nodes = (
"453 -13 OFFCURVE",
"506 103 OFFCURVE",
"506 291 CURVE SMOOTH",
"506 478 OFFCURVE",
"453 595 OFFCURVE",
"288 595 CURVE SMOOTH",
"122 595 OFFCURVE",
"70 478 OFFCURVE",
"70 291 CURVE SMOOTH",
"70 103 OFFCURVE",
"122 -13 OFFCURVE",
"288 -13 CURVE SMOOTH"
);
},
{
closed = 1;
nodes = (
"187 59 OFFCURVE",
"154 94 OFFCURVE",
"154 291 CURVE SMOOTH",
"154 489 OFFCURVE",
"187 523 OFFCURVE",
"288 523 CURVE SMOOTH",
"389 523 OFFCURVE",
"421 489 OFFCURVE",
"421 291 CURVE SMOOTH",
"421 94 OFFCURVE",
"389 59 OFFCURVE",
"288 59 CURVE SMOOTH"
);
}
);
width = 576;
},
{
anchors = (
{
name = bottom;
position = "{306, 0}";
},
{
name = center;
position = "{306, 294}";
},
{
name = ogonek;
position = "{551, 10}";
},
{
name = top;
position = "{306, 588}";
},
{
name = topright;
position = "{592, 588}";
}
);
layerId = "DBD97FAF-1301-49A4-893D-DCFDD4490496";
paths = (
{
closed = 1;
nodes = (
"502 -13 OFFCURVE",
"564 105 OFFCURVE",
"564 294 CURVE SMOOTH",
"564 483 OFFCURVE",
"502 601 OFFCURVE",
"307 601 CURVE SMOOTH",
"112 601 OFFCURVE",
"48 483 OFFCURVE",
"48 294 CURVE SMOOTH",
"48 105 OFFCURVE",
"112 -13 OFFCURVE",
"307 -13 CURVE SMOOTH"
);
},
{
closed = 1;
nodes = (
"229 105 OFFCURVE",
"206 141 OFFCURVE",
"206 294 CURVE SMOOTH",
"206 448 OFFCURVE",
"230 483 OFFCURVE",
"307 483 CURVE SMOOTH",
"383 483 OFFCURVE",
"406 448 OFFCURVE",
"406 294 CURVE SMOOTH",
"406 141 OFFCURVE",
"384 105 OFFCURVE",
"307 105 CURVE SMOOTH"
);
}
);
width = 612;
}
);
leftKerningGroup = c;
rightKerningGroup = o;
unicode = 006F;
},
{
glyphname = n;
lastChange = "2018-04-27 22:54:01 +0000";
layers = (
{
anchors = (
{
name = bottom;
position = "{321, 0}";
},
{
name = top;
position = "{301, 582}";
}
);
layerId = UUID0;
paths = (
{
closed = 1;
nodes = (
"184 0 LINE",
"184 501 LINE",
"181 461 LINE",
"177 459 OFFCURVE",
"277 516 OFFCURVE",
"360 516 CURVE SMOOTH",
"383 516 OFFCURVE",
"404 512 OFFCURVE",
"415 495 CURVE SMOOTH",
"429 474 OFFCURVE",
"430 437 OFFCURVE",
"430 358 CURVE SMOOTH",
"430 0 LINE",
"513 0 LINE",
"513 387 LINE SMOOTH",
"513 505 OFFCURVE",
"489 595 OFFCURVE",
"379 595 CURVE SMOOTH",
"282 595 OFFCURVE",
"173 526 OFFCURVE",
"166 522 CURVE",
"209 525 LINE",
"128 525 LINE",
"172 488 LINE",
"157 582 LINE",
"101 582 LINE",
"101 0 LINE"
);
}
);
width = 601;
},
{
anchors = (
{
name = bottom;
position = "{316, 0}";
},
{
name = top;
position = "{318, 588}";
}
);
layerId = "DBD97FAF-1301-49A4-893D-DCFDD4490496";
paths = (
{
closed = 1;
nodes = (
"234 0 LINE",
"234 424 LINE",
"266 446 OFFCURVE",
"318 466 OFFCURVE",
"357 466 CURVE SMOOTH",
"376 466 OFFCURVE",
"389 461 OFFCURVE",
"397 451 CURVE SMOOTH",
"410 435 OFFCURVE",
"411 411 OFFCURVE",
"411 356 CURVE SMOOTH",
"411 0 LINE",
"566 0 LINE",
"566 385 LINE SMOOTH",
"566 509 OFFCURVE",
"539 601 OFFCURVE",
"416 601 CURVE SMOOTH",
"328 601 OFFCURVE",
"256 561 OFFCURVE",
"202 529 CURVE",
"196 529 LINE",
"178 588 LINE",
"79 588 LINE",
"79 0 LINE"
);
}
);
width = 632;
}
);
leftKerningGroup = m;
rightKerningGroup = h;
unicode = 006E;
},
{
glyphname = b;
lastChange = "2018-04-27 22:54:01 +0000";
layers = (
{
anchors = (
{
name = bottom;
position = "{288, 0}";
},
{
name = top;
position = "{288, 582}";
}
);
layerId = UUID0;
paths = (
{
closed = 1;
nodes = (
"405 -13 OFFCURVE",
"506 44 OFFCURVE",
"506 301 CURVE SMOOTH",
"506 507 OFFCURVE",
"441 595 OFFCURVE",
"324 595 CURVE SMOOTH",
"256 595 OFFCURVE",
"189 577 OFFCURVE",
"160 569 CURVE",
"173 548 LINE",
"173 753 LINE",
"90 753 LINE",
"90 25 LINE",
"148 5 OFFCURVE",
"250 -13 OFFCURVE",
"305 -13 CURVE SMOOTH"
);
},
{
closed = 1;
nodes = (
"223 61 OFFCURVE",
"180 75 OFFCURVE",
"162 80 CURVE",
"173 40 LINE",
"173 525 LINE",
"162 490 LINE",
"181 496 OFFCURVE",
"236 521 OFFCURVE",
"316 521 CURVE SMOOTH",
"347 521 OFFCURVE",
"374 515 OFFCURVE",
"387 505 CURVE SMOOTH",
"407 489 OFFCURVE",
"419 431 OFFCURVE",
"419 317 CURVE SMOOTH",
"419 145 OFFCURVE",
"391 94 OFFCURVE",
"373 77 CURVE SMOOTH",
"359 65 OFFCURVE",
"341 61 OFFCURVE",
"305 61 CURVE SMOOTH"
);
}
);
width = 576;
},
{
anchors = (
{
name = bottom;
position = "{312, 0}";
},
{
name = top;
position = "{312, 761}";
}
);
layerId = "DBD97FAF-1301-49A4-893D-DCFDD4490496";
paths = (
{
closed = 1;
nodes = (
"453 -13 OFFCURVE",
"576 46 OFFCURVE",
"576 302 CURVE SMOOTH",
"576 513 OFFCURVE",
"493 601 OFFCURVE",
"358 601 CURVE SMOOTH",
"302 601 OFFCURVE",
"229 586 OFFCURVE",
"229 586 CURVE",
"229 761 LINE",
"74 761 LINE",
"74 31 LINE",
"149 8 OFFCURVE",
"269 -13 OFFCURVE",
"338 -13 CURVE SMOOTH"
);
},
{
closed = 1;
nodes = (
"281 113 OFFCURVE",
"229 123 OFFCURVE",
"229 123 CURVE",
"229 461 LINE",
"229 461 OFFCURVE",
"280 474 OFFCURVE",
"335 474 CURVE SMOOTH",
"368 474 OFFCURVE",
"385 470 OFFCURVE",
"395 460 CURVE SMOOTH",
"411 445 OFFCURVE",
"418 412 OFFCURVE",
"418 319 CURVE SMOOTH",
"418 171 OFFCURVE",
"400 139 OFFCURVE",
"383 125 CURVE SMOOTH",
"372 116 OFFCURVE",
"356 113 OFFCURVE",
"328 113 CURVE SMOOTH"
);
}
);
width = 624;
},
{
anchors = (
{
name = bottom;
position = "{288, 0}";
},
{
name = top;
position = "{288, 582}";
}
);
associatedMasterId = UUID0;
layerId = "942E73F1-C77F-4EAC-8E13-D986BC699F90";
name = "Mar 29 18, 16:57";
paths = (
{
closed = 1;
nodes = (
"405 -13 OFFCURVE",
"506 44 OFFCURVE",
"506 301 CURVE SMOOTH",
"506 507 OFFCURVE",
"441 595 OFFCURVE",
"324 595 CURVE SMOOTH",
"256 595 OFFCURVE",
"141 565 OFFCURVE",
"181 575 CURVE",
"173 535 LINE",
"173 753 LINE",
"90 753 LINE",
"90 25 LINE",
"148 5 OFFCURVE",
"250 -13 OFFCURVE",
"305 -13 CURVE SMOOTH"
);
},
{
closed = 1;
nodes = (
"223 61 OFFCURVE",
"149 84 OFFCURVE",
"162 77 CURVE",
"173 40 LINE",
"173 533 LINE",
"180 498 LINE",
"147 485 OFFCURVE",
"236 521 OFFCURVE",
"316 521 CURVE SMOOTH",
"347 521 OFFCURVE",
"374 515 OFFCURVE",
"387 505 CURVE SMOOTH",
"407 489 OFFCURVE",
"419 431 OFFCURVE",
"419 317 CURVE SMOOTH",
"419 145 OFFCURVE",
"391 94 OFFCURVE",
"373 77 CURVE SMOOTH",
"359 65 OFFCURVE",
"341 61 OFFCURVE",
"305 61 CURVE SMOOTH"
);
}
);
visible = 1;
width = 576;
}
);
leftKerningGroup = l;
rightKerningGroup = o;
unicode = 0062;
},
{
glyphname = d;
lastChange = "2018-04-27 22:54:01 +0000";
layers = (
{
anchors = (
{
name = bottom;
position = "{291, 0}";
},
{
name = center;
position = "{291, 291}";
},
{
name = top;
position = "{254, 582}";
},
{
name = topright;
position = "{561, 582}";
}
);
layerId = UUID0;
paths = (
{
closed = 1;
nodes = (
"349 -13 OFFCURVE",
"408 55 OFFCURVE",
"429 66 CURVE",
"381 60 LINE",
"463 60 LINE",
"418 97 LINE",
"436 0 LINE",
"491 0 LINE",
"491 753 LINE",
"408 753 LINE",
"408 536 LINE",
"418 568 LINE",
"402 575 OFFCURVE",
"354 595 OFFCURVE",
"277 595 CURVE SMOOTH",
"174 595 OFFCURVE",
"70 538 OFFCURVE",
"70 280 CURVE SMOOTH",
"70 78 OFFCURVE",
"145 -13 OFFCURVE",
"254 -13 CURVE SMOOTH"
);
},
{
closed = 1;
nodes = (
"234 61 OFFCURVE",
"212 64 OFFCURVE",
"202 73 CURVE SMOOTH",
"189 83 OFFCURVE",
"157 112 OFFCURVE",
"157 276 CURVE SMOOTH",
"157 421 OFFCURVE",
"176 475 OFFCURVE",
"193 497 CURVE SMOOTH",
"207 514 OFFCURVE",
"233 521 OFFCURVE",
"269 521 CURVE SMOOTH",
"340 521 OFFCURVE",
"407 496 OFFCURVE",
"419 491 CURVE",
"408 517 LINE",
"408 76 LINE",
"423 123 LINE",
"411 112 OFFCURVE",
"324 61 OFFCURVE",
"259 61 CURVE SMOOTH"
);
}
);
width = 581;
},
{
anchors = (
{
name = bottom;
position = "{314, 0}";
},
{
name = center;
position = "{314, 294}";
},
{
name = top;
position = "{314, 761}";
},
{
name = topright;
position = "{608, 588}";
}
);
layerId = "DBD97FAF-1301-49A4-893D-DCFDD4490496";
paths = (
{
closed = 1;
nodes = (
"327 -13 OFFCURVE",
"392 30 OFFCURVE",
"432 57 CURVE",
"438 57 LINE",
"454 0 LINE",
"554 0 LINE",
"554 761 LINE",
"399 761 LINE",
"399 586 LINE",
"399 586 OFFCURVE",
"340 601 OFFCURVE",
"285 601 CURVE SMOOTH",
"179 601 OFFCURVE",
"48 544 OFFCURVE",
"48 290 CURVE SMOOTH",
"48 79 OFFCURVE",
"139 -13 OFFCURVE",
"251 -13 CURVE SMOOTH"
);
},
{
closed = 1;
nodes = (
"262 113 OFFCURVE",
"245 116 OFFCURVE",
"234 125 CURVE SMOOTH",
"223 134 OFFCURVE",
"206 159 OFFCURVE",
"206 287 CURVE SMOOTH",
"206 400 OFFCURVE",
"221 443 OFFCURVE",
"235 458 CURVE SMOOTH",
"245 469 OFFCURVE",
"261 474 OFFCURVE",
"289 474 CURVE SMOOTH",
"342 474 OFFCURVE",
"399 453 OFFCURVE",
"399 453 CURVE",
"399 151 LINE",
"399 151 OFFCURVE",
"324 113 OFFCURVE",
"278 113 CURVE SMOOTH"
);
}
);
width = 628;
},
{
anchors = (
{
name = bottom;
position = "{291, 0}";
},
{
name = center;
position = "{291, 291}";
},
{
name = top;
position = "{291, 582}";
},
{
name = topright;
position = "{561, 582}";
}
);
associatedMasterId = UUID0;
layerId = "EEF10335-C7FC-43C2-8429-D2832D5480EF";
name = "Mar 29 18, 16:56";
paths = (
{
closed = 1;
nodes = (
"344 -13 OFFCURVE",
"419 60 OFFCURVE",
"419 60 CURVE",
"463 60 LINE",
"418 97 LINE",
"436 0 LINE",
"491 0 LINE",
"491 753 LINE",
"408 753 LINE",
"408 536 LINE",
"400 577 LINE",
"433 565 OFFCURVE",
"354 595 OFFCURVE",
"277 595 CURVE SMOOTH",
"174 595 OFFCURVE",
"70 538 OFFCURVE",
"70 280 CURVE SMOOTH",
"70 78 OFFCURVE",
"145 -13 OFFCURVE",
"254 -13 CURVE SMOOTH"
);
},
{
closed = 1;
nodes = (
"234 61 OFFCURVE",
"212 64 OFFCURVE",
"202 73 CURVE SMOOTH",
"189 83 OFFCURVE",
"157 112 OFFCURVE",
"157 276 CURVE SMOOTH",
"157 421 OFFCURVE",
"176 475 OFFCURVE",
"193 497 CURVE SMOOTH",
"207 514 OFFCURVE",
"233 521 OFFCURVE",
"269 521 CURVE SMOOTH",
"344 521 OFFCURVE",
"408 494 OFFCURVE",
"408 494 CURVE",
"408 114 LINE",
"408 114 OFFCURVE",
"329 61 OFFCURVE",
"259 61 CURVE SMOOTH"
);
}
);
visible = 1;
width = 581;
}
);
leftKerningGroup = c;
rightKerningGroup = l;
unicode = 0064;
},
{
glyphname = e;
lastChange = "2018-04-27 22:54:01 +0000";
layers = (
{
anchors = (
{
name = bottom;
position = "{287, 0}";
},
{
name = ogonek;
position = "{405, 10}";
},
{
name = top;
position = "{302, 582}";
}
);
layerId = UUID0;
paths = (
{
closed = 1;
nodes = (
"399 -14 OFFCURVE",
"471 20 OFFCURVE",
"490 29 CURVE",
"469 96 LINE",
"438 87 OFFCURVE",
"364 58 OFFCURVE",
"286 58 CURVE SMOOTH",
"247 58 OFFCURVE",
"221 66 OFFCURVE",
"203 82 CURVE SMOOTH",
"187 97 OFFCURVE",
"152 140 OFFCURVE",
"161 273 CURVE",
"122 258 LINE",
"506 258 LINE",
"506 321 LINE SMOOTH",
"506 525 OFFCURVE",
"432 596 OFFCURVE",
"302 596 CURVE SMOOTH",
"172 596 OFFCURVE",
"72 525 OFFCURVE",
"72 292 CURVE SMOOTH",
"72 67 OFFCURVE",
"165 -14 OFFCURVE",
"304 -14 CURVE SMOOTH"
);
},
{
closed = 1;
nodes = (
"157 385 OFFCURVE",
"167 451 OFFCURVE",
"192 484 CURVE SMOOTH",
"210 508 OFFCURVE",
"240 524 OFFCURVE",
"308 524 CURVE SMOOTH",
"373 524 OFFCURVE",
"388 509 OFFCURVE",
"398 494 CURVE SMOOTH",
"420 458 OFFCURVE",
"422 389 OFFCURVE",
"421 294 CURVE",
"459 331 LINE",
"122 324 LINE",
"161 288 LINE"
);
}
);
width = 571;
},
{
anchors = (
{
name = bottom;
position = "{304, 0}";
},
{
name = ogonek;
position = "{476, 27}";
},
{
name = top;
position = "{320, 588}";
}
);
layerId = "DBD97FAF-1301-49A4-893D-DCFDD4490496";
paths = (
{
closed = 1;
nodes = (
"431 -14 OFFCURVE",
"533 31 OFFCURVE",
"552 40 CURVE",
"514 152 LINE",
"493 145 OFFCURVE",
"377 109 OFFCURVE",
"304 109 CURVE SMOOTH",
"271 109 OFFCURVE",
"251 116 OFFCURVE",
"238 128 CURVE SMOOTH",
"215 148 OFFCURVE",
"207 189 OFFCURVE",
"207 262 CURVE",
"137 240 LINE",
"563 240 LINE",
"563 323 LINE SMOOTH",
"563 529 OFFCURVE",
"475 602 OFFCURVE",
"320 602 CURVE SMOOTH",
"168 602 OFFCURVE",
"50 530 OFFCURVE",
"50 295 CURVE SMOOTH",
"50 68 OFFCURVE",
"159 -14 OFFCURVE",
"322 -14 CURVE SMOOTH"
);
},
{
closed = 1;
nodes = (
"207 392 OFFCURVE",
"216 435 OFFCURVE",
"234 454 CURVE SMOOTH",
"247 469 OFFCURVE",
"269 480 OFFCURVE",
"320 480 CURVE SMOOTH",
"363 480 OFFCURVE",
"378 469 OFFCURVE",
"387 458 CURVE SMOOTH",
"400 440 OFFCURVE",
"405 399 OFFCURVE",
"405 335 CURVE",
"475 357 LINE",
"138 351 LINE",
"207 330 LINE"
);
}
);
width = 611;
},
{
anchors = (
{
name = bottom;
position = "{302, 0}";
},
{
name = ogonek;
position = "{412, 10}";
},
{
name = top;
position = "{318, 588}";
}
);
associatedMasterId = "DBD97FAF-1301-49A4-893D-DCFDD4490496";
layerId = "B7D82FEC-5D58-4216-8202-090C84B9FD65";
name = "Apr 14 18, 19:19";
paths = (
{
closed = 1;
nodes = (
"434 -14 OFFCURVE",
"550 40 OFFCURVE",
"550 40 CURVE",
"512 152 LINE",
"512 152 OFFCURVE",
"380 109 OFFCURVE",
"302 109 CURVE SMOOTH",
"269 109 OFFCURVE",
"249 116 OFFCURVE",
"236 128 CURVE SMOOTH",
"222 140 OFFCURVE",
"205 171 OFFCURVE",
"205 240 CURVE SMOOTH",
"205 262 LINE",
"135 240 LINE",
"561 240 LINE",
"561 323 LINE SMOOTH",
"561 529 OFFCURVE",
"473 602 OFFCURVE",
"318 602 CURVE SMOOTH",
"166 602 OFFCURVE",
"48 530 OFFCURVE",
"48 295 CURVE SMOOTH",
"48 68 OFFCURVE",
"157 -14 OFFCURVE",
"320 -14 CURVE SMOOTH"
);
},
{
closed = 1;
nodes = (
"205 346 LINE",
"207 400 OFFCURVE",
"216 437 OFFCURVE",
"232 454 CURVE SMOOTH",
"245 469 OFFCURVE",
"267 480 OFFCURVE",
"318 480 CURVE SMOOTH",
"361 480 OFFCURVE",
"376 469 OFFCURVE",
"385 458 CURVE SMOOTH",
"397 442 OFFCURVE",
"402 407 OFFCURVE",
"403 353 CURVE",
"473 357 LINE",
"136 351 LINE"
);
}
);
width = 604;
},
{
anchors = (
{
name = bottom;
position = "{285, 0}";
},
{
name = ogonek;
position = "{403, 10}";
},
{
name = top;
position = "{300, 582}";
}
);
associatedMasterId = UUID0;
layerId = "45CDEF4E-F876-4B9A-B451-8361E429A26E";
name = "Apr 14 18, 19:19";
paths = (
{
closed = 1;
nodes = (
"404 -14 OFFCURVE",
"488 29 OFFCURVE",
"488 29 CURVE",
"467 96 LINE",
"467 96 OFFCURVE",
"369 58 OFFCURVE",
"284 58 CURVE SMOOTH",
"245 58 OFFCURVE",
"219 66 OFFCURVE",
"201 82 CURVE SMOOTH",
"185 97 OFFCURVE",
"150 140 OFFCURVE",
"159 273 CURVE",
"120 258 LINE",
"504 258 LINE",
"504 321 LINE SMOOTH",
"504 525 OFFCURVE",
"430 596 OFFCURVE",
"300 596 CURVE SMOOTH",
"170 596 OFFCURVE",
"70 525 OFFCURVE",
"70 292 CURVE SMOOTH",
"70 67 OFFCURVE",
"163 -14 OFFCURVE",
"302 -14 CURVE SMOOTH"
);
},
{
closed = 1;
nodes = (
"155 385 OFFCURVE",
"165 451 OFFCURVE",
"190 484 CURVE SMOOTH",
"208 508 OFFCURVE",
"238 524 OFFCURVE",
"306 524 CURVE SMOOTH",
"371 524 OFFCURVE",
"386 509 OFFCURVE",
"396 494 CURVE SMOOTH",
"418 458 OFFCURVE",
"420 389 OFFCURVE",
"419 294 CURVE",
"457 331 LINE",
"120 324 LINE",
"159 288 LINE"
);
}
);
width = 569;
}
);
leftKerningGroup = c;
leftMetricsKey = C;
rightKerningGroup = e;
unicode = 0065;
},
{
glyphname = f;
lastChange = "2018-04-27 22:54:01 +0000";
layers = (
{
anchors = (
{
name = bottom;
position = "{169, 0}";
},
{
name = top;
position = "{169, 582}";
}
);
layerId = UUID0;
paths = (
{
closed = 1;
nodes = (
"198 0 LINE",
"198 519 LINE",
"160 481 LINE",
"325 481 LINE",
"325 548 LINE",
"160 548 LINE",
"197 532 LINE",
"197 673 OFFCURVE",
"211 696 OFFCURVE",
"267 696 CURVE SMOOTH",
"286 696 OFFCURVE",
"337 694 OFFCURVE",
"337 694 CURVE",
"343 764 LINE",
"343 764 OFFCURVE",
"307 766 OFFCURVE",
"287 766 CURVE SMOOTH",
"179 766 OFFCURVE",
"111 701 OFFCURVE",
"115 532 CURVE",
"152 555 LINE",
"50 535 LINE",
"50 484 LINE",
"153 484 LINE",
"115 522 LINE",
"115 0 LINE"
);
}
);
width = 338;
},
{
anchors = (
{
name = bottom;
position = "{191, 0}";
},
{
name = top;
position = "{191, 761}";
}
);
layerId = "DBD97FAF-1301-49A4-893D-DCFDD4490496";
paths = (
{
closed = 1;
nodes = (
"251 0 LINE",
"251 440 LINE",
"383 440 LINE",
"383 559 LINE",
"251 559 LINE",
"253 643 OFFCURVE",
"268 651 OFFCURVE",
"310 651 CURVE SMOOTH",
"346 651 OFFCURVE",
"393 647 OFFCURVE",
"393 647 CURVE",
"404 770 LINE",
"404 770 OFFCURVE",
"347 774 OFFCURVE",
"313 774 CURVE SMOOTH",
"195 774 OFFCURVE",
"110 726 OFFCURVE",
"97 554 CURVE",
"28 540 LINE",
"28 443 LINE",
"96 443 LINE",
"96 0 LINE"
);
}
);
width = 382;
},
{
anchors = (
{
name = bottom;
position = "{169, 0}";
},
{
name = top;
position = "{169, 582}";
}
);
associatedMasterId = UUID0;
layerId = "261AC23E-1DD0-4D7E-A318-9172632E2E9D";
name = "Mar 29 18, 16:51";
paths = (
{
closed = 1;
nodes = (
"198 0 LINE",
"198 519 LINE",
"160 481 LINE",
"325 481 LINE",
"325 548 LINE",
"160 548 LINE",
"199 487 LINE",
"193 679 OFFCURVE",
"211 696 OFFCURVE",
"267 696 CURVE SMOOTH",
"286 696 OFFCURVE",
"337 694 OFFCURVE",
"337 694 CURVE",
"343 764 LINE",
"343 764 OFFCURVE",
"307 766 OFFCURVE",
"287 766 CURVE SMOOTH",
"179 766 OFFCURVE",
"111 708 OFFCURVE",
"115 506 CURVE",
"152 555 LINE",
"50 535 LINE",
"50 484 LINE",
"153 484 LINE",
"115 522 LINE",
"115 0 LINE"
);
}
);
visible = 1;
width = 338;
}
);
leftKerningGroup = f;
unicode = 0066;
},
{
glyphname = q;
lastChange = "2018-04-27 22:54:01 +0000";
layers = (
{
anchors = (
{
name = bottom;
position = "{289, 0}";
},
{
name = top;
position = "{289, 582}";
}
);
layerId = UUID0;
paths = (
{
closed = 1;
nodes = (
"487 -166 LINE",
"487 561 LINE",
"487 561 OFFCURVE",
"376 595 OFFCURVE",
"281 595 CURVE SMOOTH",
"143 595 OFFCURVE",
"70 524 OFFCURVE",
"70 302 CURVE SMOOTH",
"70 49 OFFCURVE",
"165 -13 OFFCURVE",
"260 -13 CURVE SMOOTH",
"333 -13 OFFCURVE",
"380 10 OFFCURVE",
"416 27 CURVE",
"404 45 LINE",
"404 -166 LINE"
);
},
{
closed = 1;
nodes = (
"223 61 OFFCURVE",
"210 66 OFFCURVE",
"197 79 CURVE SMOOTH",
"173 104 OFFCURVE",
"157 167 OFFCURVE",
"157 302 CURVE SMOOTH",
"157 424 OFFCURVE",
"170 477 OFFCURVE",
"190 500 CURVE SMOOTH",
"204 516 OFFCURVE",
"223 521 OFFCURVE",
"267 521 CURVE SMOOTH",
"360 521 OFFCURVE",
"392 507 OFFCURVE",
"412 501 CURVE",
"404 543 LINE",
"404 71 LINE",
"412 97 LINE",
"387 87 OFFCURVE",
"339 61 OFFCURVE",
"252 61 CURVE SMOOTH"
);
}
);
width = 577;
},
{
anchors = (
{
name = bottom;
position = "{312, 0}";
},
{
name = top;
position = "{312, 588}";
}
);
layerId = "DBD97FAF-1301-49A4-893D-DCFDD4490496";
paths = (
{
closed = 1;
nodes = (
"550 -166 LINE",
"550 564 LINE",
"550 564 OFFCURVE",
"410 601 OFFCURVE",
"297 601 CURVE SMOOTH",
"136 601 OFFCURVE",
"48 526 OFFCURVE",
"48 305 CURVE SMOOTH",
"48 49 OFFCURVE",
"166 -13 OFFCURVE",
"276 -13 CURVE SMOOTH",
"341 -13 OFFCURVE",
"395 9 OFFCURVE",
"395 9 CURVE",
"395 -166 LINE"
);
},
{
closed = 1;
nodes = (
"258 113 OFFCURVE",
"242 117 OFFCURVE",
"233 126 CURVE SMOOTH",
"214 144 OFFCURVE",
"206 197 OFFCURVE",
"206 302 CURVE SMOOTH",
"206 408 OFFCURVE",
"215 443 OFFCURVE",
"230 458 CURVE SMOOTH",
"238 466 OFFCURVE",
"250 474 OFFCURVE",
"292 474 CURVE SMOOTH",
"340 474 OFFCURVE",
"395 462 OFFCURVE",
"395 462 CURVE",
"395 128 LINE",
"395 128 OFFCURVE",
"346 113 OFFCURVE",
"289 113 CURVE SMOOTH"
);
}
);
width = 624;
},
{
anchors = (
{
name = bottom;
position = "{289, 0}";
},
{
name = top;
position = "{289, 582}";
}
);
associatedMasterId = UUID0;
layerId = "61B81E23-9951-403B-83F0-42BFB0243B29";
name = "Mar 29 18, 16:58";
paths = (
{
closed = 1;
nodes = (
"487 -166 LINE",
"487 561 LINE",
"487 561 OFFCURVE",
"376 595 OFFCURVE",
"281 595 CURVE SMOOTH",
"143 595 OFFCURVE",
"70 524 OFFCURVE",
"70 302 CURVE SMOOTH",
"70 49 OFFCURVE",
"165 -13 OFFCURVE",
"260 -13 CURVE SMOOTH",
"342 -13 OFFCURVE",
"429 32 OFFCURVE",
"397 17 CURVE",
"404 58 LINE",
"404 -166 LINE"
);
},
{
closed = 1;
nodes = (
"223 61 OFFCURVE",
"210 66 OFFCURVE",
"197 79 CURVE SMOOTH",
"173 104 OFFCURVE",
"157 167 OFFCURVE",
"157 302 CURVE SMOOTH",
"157 424 OFFCURVE",
"170 477 OFFCURVE",
"190 500 CURVE SMOOTH",
"204 516 OFFCURVE",
"223 521 OFFCURVE",
"267 521 CURVE SMOOTH",
"360 521 OFFCURVE",
"424 499 OFFCURVE",
"398 507 CURVE",
"404 543 LINE",
"404 55 LINE",
"398 90 LINE",
"429 104 OFFCURVE",
"339 61 OFFCURVE",
"252 61 CURVE SMOOTH"
);
}
);
visible = 1;
width = 577;
}
);
leftKerningGroup = c;
rightKerningGroup = l;
unicode = 0071;
},
{
glyphname = period;
lastChange = "2018-04-27 22:54:01 +0000";
layers = (
{
layerId = UUID0;
paths = (
{
closed = 1;
nodes = (
"178 0 LINE",
"178 89 LINE",
"76 89 LINE",
"76 0 LINE"
);
}
);
width = 254;
},
{
layerId = "DBD97FAF-1301-49A4-893D-DCFDD4490496";
paths = (
{
closed = 1;
nodes = (
"229 0 LINE",
"229 137 LINE",
"54 137 LINE",
"54 0 LINE"
);
}
);
width = 283;
}
);
leftKerningGroup = comma;
rightKerningGroup = comma;
unicode = 002E;
},
{
glyphname = six;
lastChange = "2018-04-27 22:54:01 +0000";
layers = (
{
layerId = UUID0;
paths = (
{
closed = 1;
nodes = (
"411 -13 OFFCURVE",
"492 66 OFFCURVE",
"492 210 CURVE SMOOTH",
"492 364 OFFCURVE",
"400 416 OFFCURVE",
"256 416 CURVE SMOOTH",
"203 416 OFFCURVE",
"150 409 OFFCURVE",
"150 409 CURVE",
"155 516 OFFCURVE",
"174 570 OFFCURVE",
"202 599 CURVE SMOOTH",
"224 621 OFFCURVE",
"253 632 OFFCURVE",
"301 632 CURVE SMOOTH",
"368 632 OFFCURVE",
"438 611 OFFCURVE",
"438 611 CURVE",
"457 682 LINE",
"457 682 OFFCURVE",
"401 708 OFFCURVE",
"318 708 CURVE SMOOTH",
"178 708 OFFCURVE",
"60 634 OFFCURVE",
"60 330 CURVE SMOOTH",
"60 75 OFFCURVE",
"143 -13 OFFCURVE",
"281 -13 CURVE SMOOTH"
);
},
{
closed = 1;
nodes = (
"228 58 OFFCURVE",
"202 74 OFFCURVE",
"189 86 CURVE SMOOTH",
"176 99 OFFCURVE",
"148 137 OFFCURVE",
"148 250 CURVE SMOOTH",
"148 330 LINE",
"148 330 OFFCURVE",
"208 344 OFFCURVE",
"276 344 CURVE SMOOTH",
"384 344 OFFCURVE",
"409 309 OFFCURVE",
"409 207 CURVE SMOOTH",
"409 98 OFFCURVE",
"380 58 OFFCURVE",
"287 58 CURVE SMOOTH"
);
}
);
width = 552;
},
{
layerId = "DBD97FAF-1301-49A4-893D-DCFDD4490496";
paths = (
{
closed = 1;
nodes = (
"458 -13 OFFCURVE",
"554 72 OFFCURVE",
"554 226 CURVE SMOOTH",
"554 390 OFFCURVE",
"447 447 OFFCURVE",
"276 447 CURVE SMOOTH",
"250 447 OFFCURVE",
"203 444 OFFCURVE",
"203 444 CURVE",
"210 509 OFFCURVE",
"224 545 OFFCURVE",
"245 562 CURVE SMOOTH",
"261 576 OFFCURVE",
"285 582 OFFCURVE",
"323 582 CURVE SMOOTH",
"386 582 OFFCURVE",
"490 559 OFFCURVE",
"490 559 CURVE",
"524 681 LINE",
"524 681 OFFCURVE",
"435 716 OFFCURVE",
"340 716 CURVE SMOOTH",
"176 716 OFFCURVE",
"38 642 OFFCURVE",
"38 335 CURVE SMOOTH",
"38 77 OFFCURVE",
"137 -13 OFFCURVE",
"302 -13 CURVE SMOOTH"
);
},
{
closed = 1;
nodes = (
"262 118 OFFCURVE",
"242 127 OFFCURVE",
"231 136 CURVE SMOOTH",
"220 144 OFFCURVE",
"199 171 OFFCURVE",
"199 259 CURVE SMOOTH",
"199 309 LINE",
"199 309 OFFCURVE",
"259 316 OFFCURVE",
"297 316 CURVE SMOOTH",
"380 316 OFFCURVE",
"400 293 OFFCURVE",
"400 222 CURVE SMOOTH",
"400 146 OFFCURVE",
"378 118 OFFCURVE",
"308 118 CURVE SMOOTH"
);
}
);
width = 592;
}
);
unicode = 0036;
},
{
glyphname = nine;
lastChange = "2018-04-27 22:54:01 +0000";
layers = (
{
layerId = UUID0;
paths = (
{
closed = 1;
nodes = (
"424 -13 OFFCURVE",
"490 121 OFFCURVE",
"490 354 CURVE SMOOTH",
"490 625 OFFCURVE",
"401 708 OFFCURVE",
"269 708 CURVE SMOOTH",
"137 708 OFFCURVE",
"60 626 OFFCURVE",
"60 486 CURVE SMOOTH",
"60 341 OFFCURVE",
"143 280 OFFCURVE",
"267 280 CURVE SMOOTH",
"328 280 OFFCURVE",
"401 295 OFFCURVE",
"401 295 CURVE",
"401 191 OFFCURVE",
"376 114 OFFCURVE",
"347 83 CURVE SMOOTH",
"332 67 OFFCURVE",
"313 58 OFFCURVE",
"278 58 CURVE SMOOTH",
"193 58 OFFCURVE",
"110 111 OFFCURVE",
"110 111 CURVE",
"79 48 LINE",
"79 48 OFFCURVE",
"165 -13 OFFCURVE",
"269 -13 CURVE SMOOTH"
);
},
{
closed = 1;
nodes = (
"153 356 OFFCURVE",
"143 408 OFFCURVE",
"143 483 CURVE SMOOTH",
"143 587 OFFCURVE",
"162 636 OFFCURVE",
"266 636 CURVE SMOOTH",
"299 636 OFFCURVE",
"329 631 OFFCURVE",
"349 620 CURVE SMOOTH",
"374 606 OFFCURVE",
"401 564 OFFCURVE",
"401 380 CURVE SMOOTH",
"401 380 OFFCURVE",
"338 356 OFFCURVE",
"263 356 CURVE SMOOTH"
);
}
);
width = 550;
},
{
layerId = "DBD97FAF-1301-49A4-893D-DCFDD4490496";
paths = (
{
closed = 1;
nodes = (
"479 -13 OFFCURVE",
"552 123 OFFCURVE",
"552 358 CURVE SMOOTH",
"552 632 OFFCURVE",
"446 716 OFFCURVE",
"289 716 CURVE SMOOTH",
"131 716 OFFCURVE",
"38 629 OFFCURVE",
"38 479 CURVE SMOOTH",
"38 324 OFFCURVE",
"138 258 OFFCURVE",
"286 258 CURVE SMOOTH",
"331 258 OFFCURVE",
"389 266 OFFCURVE",
"389 266 CURVE",
"385 199 OFFCURVE",
"376 155 OFFCURVE",
"353 136 CURVE SMOOTH",
"342 127 OFFCURVE",
"321 121 OFFCURVE",
"285 121 CURVE SMOOTH",
"216 121 OFFCURVE",
"96 169 OFFCURVE",
"96 169 CURVE",
"53 52 LINE",
"53 52 OFFCURVE",
"173 -13 OFFCURVE",
"282 -13 CURVE SMOOTH"
);
},
{
closed = 1;
nodes = (
"201 390 OFFCURVE",
"193 426 OFFCURVE",
"193 477 CURVE SMOOTH",
"193 550 OFFCURVE",
"207 585 OFFCURVE",
"285 585 CURVE SMOOTH",
"313 585 OFFCURVE",
"339 582 OFFCURVE",
"354 572 CURVE SMOOTH",
"371 561 OFFCURVE",
"389 537 OFFCURVE",
"390 404 CURVE",
"390 404 OFFCURVE",
"326 390 OFFCURVE",
"282 390 CURVE SMOOTH"
);
}
);
width = 590;
}
);
unicode = 0039;
},
{
glyphname = m;
lastChange = "2018-04-27 22:54:01 +0000";
layers = (
{
anchors = (
{
name = bottom;
position = "{459, 0}";
},
{
name = top;
position = "{459, 582}";
}
);
layerId = UUID0;
paths = (
{
closed = 1;
nodes = (
"184 0 LINE",
"184 502 LINE",
"176 461 LINE",
"190 463 OFFCURVE",
"276 516 OFFCURVE",
"354 516 CURVE SMOOTH",
"372 516 OFFCURVE",
"395 513 OFFCURVE",
"408 494 CURVE SMOOTH",
"423 471 OFFCURVE",
"424 434 OFFCURVE",
"424 358 CURVE SMOOTH",
"424 0 LINE",
"507 0 LINE",
"507 387 LINE SMOOTH",
"507 422 OFFCURVE",
"503 454 OFFCURVE",
"501 481 CURVE",
"502 458 LINE",
"493 453 OFFCURVE",
"593 516 OFFCURVE",
"675 516 CURVE SMOOTH",
"690 516 OFFCURVE",
"718 514 OFFCURVE",
"731 493 CURVE SMOOTH",
"746 470 OFFCURVE",
"746 417 OFFCURVE",
"746 355 CURVE SMOOTH",
"746 0 LINE",
"829 0 LINE",
"829 383 LINE SMOOTH",
"829 513 OFFCURVE",
"799 595 OFFCURVE",
"691 595 CURVE SMOOTH",
"604 595 OFFCURVE",
"528 544 OFFCURVE",
"469 509 CURVE",
"495 495 LINE",
"484 557 OFFCURVE",
"436 595 OFFCURVE",
"369 595 CURVE SMOOTH",
"281 595 OFFCURVE",
"173 526 OFFCURVE",
"165 522 CURVE",
"209 525 LINE",
"128 525 LINE",
"172 488 LINE",
"157 582 LINE",
"101 582 LINE",
"101 0 LINE"
);
}
);
width = 917;
},
{
anchors = (
{
name = bottom;
position = "{478, 0}";
},
{
name = top;
position = "{478, 588}";
}
);
layerId = "DBD97FAF-1301-49A4-893D-DCFDD4490496";
paths = (
{
closed = 1;
nodes = (
"234 0 LINE",
"234 426 LINE",
"265 448 OFFCURVE",
"316 468 OFFCURVE",
"352 468 CURVE SMOOTH",
"366 468 OFFCURVE",
"382 465 OFFCURVE",
"392 453 CURVE SMOOTH",
"405 437 OFFCURVE",
"406 413 OFFCURVE",
"406 358 CURVE SMOOTH",
"406 0 LINE",
"561 0 LINE",
"561 375 LINE SMOOTH",
"561 392 OFFCURVE",
"560 409 OFFCURVE",
"559 425 CURVE",
"590 446 OFFCURVE",
"641 468 OFFCURVE",
"677 468 CURVE SMOOTH",
"696 468 OFFCURVE",
"711 462 OFFCURVE",
"719 452 CURVE SMOOTH",
"732 436 OFFCURVE",
"733 413 OFFCURVE",
"733 358 CURVE SMOOTH",
"733 0 LINE",
"890 0 LINE",
"890 385 LINE SMOOTH",
"890 510 OFFCURVE",
"856 603 OFFCURVE",
"733 603 CURVE SMOOTH",
"653 603 OFFCURVE",
"587 561 OFFCURVE",
"534 527 CURVE",
"511 573 OFFCURVE",
"472 603 OFFCURVE",
"405 603 CURVE SMOOTH",
"322 603 OFFCURVE",
"250 558 OFFCURVE",
"202 529 CURVE",
"196 529 LINE",
"178 588 LINE",
"79 588 LINE",
"79 0 LINE"
);
}
);
width = 956;
}
);
leftKerningGroup = m;
rightKerningGroup = h;
unicode = 006D;
},
{
glyphname = r;
lastChange = "2018-04-27 22:54:01 +0000";
layers = (
{
anchors = (
{
name = bottom;
position = "{145, 0}";
},
{
name = top;
position = "{238, 582}";
}
);
layerId = UUID0;
paths = (
{
closed = 1;
nodes = (
"184 0 LINE",
"184 499 LINE",
"173 451 LINE",
"192 473 OFFCURVE",
"266 512 OFFCURVE",
"331 512 CURVE",
"345 512 OFFCURVE",
"368 510 OFFCURVE",
"368 510 CURVE",
"375 590 LINE",
"375 590 OFFCURVE",
"354 595 OFFCURVE",
"334 595 CURVE SMOOTH",
"266 595 OFFCURVE",
"171 523 OFFCURVE",
"171 523 CURVE SMOOTH",
"127 523 LINE",
"172 486 LINE",
"154 582 LINE",
"101 582 LINE",
"101 0 LINE"
);
}
);
width = 395;
},
{
anchors = (
{
name = bottom;
position = "{148, 0}";
},
{
name = top;
position = "{254, 588}";
}
);
layerId = "DBD97FAF-1301-49A4-893D-DCFDD4490496";
paths = (
{
closed = 1;
nodes = (
"234 0 LINE",
"234 423 LINE",
"263 441 OFFCURVE",
"308 459 OFFCURVE",
"359 459 CURVE SMOOTH",
"386 459 OFFCURVE",
"414 456 OFFCURVE",
"414 456 CURVE",
"426 590 LINE",
"426 590 OFFCURVE",
"407 601 OFFCURVE",
"361 601 CURVE SMOOTH",
"289 601 OFFCURVE",
"201 526 OFFCURVE",
"201 526 CURVE",
"195 526 LINE",
"175 588 LINE",
"79 588 LINE",
"79 0 LINE"
);
}
);
width = 430;
},
{
anchors = (
{
name = bottom;
position = "{145, 0}";
},
{
name = top;
position = "{221, 582}";
}
);
associatedMasterId = UUID0;
layerId = "E72D2C64-7049-44D9-9F54-30F890011DA7";
name = "Feb 28 18, 18:31";
paths = (
{
closed = 1;
nodes = (
"184 0 LINE",
"184 461 LINE",
"212 483 OFFCURVE",
"275 512 OFFCURVE",
"331 512 CURVE",
"345 512 OFFCURVE",
"368 510 OFFCURVE",
"368 510 CURVE",
"375 590 LINE",
"375 590 OFFCURVE",
"354 595 OFFCURVE",
"334 595 CURVE SMOOTH",
"266 595 OFFCURVE",
"171 523 OFFCURVE",
"171 523 CURVE SMOOTH",
"165 523 LINE",
"154 582 LINE",
"101 582 LINE",
"101 0 LINE"
);
}
);
width = 395;
}
);
leftKerningGroup = m;
rightKerningGroup = r;
unicode = 0072;
},
{
glyphname = s;
lastChange = "2018-04-27 22:54:01 +0000";
layers = (
{
anchors = (
{
name = bottom;
position = "{246, 0}";
},
{
name = top;
position = "{251, 582}";
}
);
layerId = UUID0;
paths = (
{
closed = 1;
nodes = (
"368 -13 OFFCURVE",
"434 61 OFFCURVE",
"434 169 CURVE SMOOTH",
"434 279 OFFCURVE",
"365 311 OFFCURVE",
"293 332 CURVE SMOOTH",
"215 355 OFFCURVE",
"134 366 OFFCURVE",
"134 450 CURVE SMOOTH",
"134 478 OFFCURVE",
"143 500 OFFCURVE",
"155 509 CURVE SMOOTH",
"167 518 OFFCURVE",
"190 523 OFFCURVE",
"230 523 CURVE SMOOTH",
"314 523 OFFCURVE",
"393 501 OFFCURVE",
"393 501 CURVE",
"406 571 LINE",
"382 579 OFFCURVE",
"315 595 OFFCURVE",
"246 595 CURVE SMOOTH",
"108 595 OFFCURVE",
"56 531 OFFCURVE",
"56 437 CURVE SMOOTH",
"56 317 OFFCURVE",
"136 295 OFFCURVE",
"213 273 CURVE SMOOTH",
"284 253 OFFCURVE",
"353 236 OFFCURVE",
"353 153 CURVE SMOOTH",
"353 115 OFFCURVE",
"339 88 OFFCURVE",
"324 75 CURVE SMOOTH",
"310 63 OFFCURVE",
"287 59 OFFCURVE",
"260 59 CURVE SMOOTH",
"167 59 OFFCURVE",
"76 106 OFFCURVE",
"76 106 CURVE",
"55 35 LINE",
"55 35 OFFCURVE",
"146 -13 OFFCURVE",
"245 -13 CURVE SMOOTH"
);
}
);
width = 492;
},
{
anchors = (
{
name = bottom;
position = "{269, 0}";
},
{
name = top;
position = "{275, 588}";
}
);
layerId = "DBD97FAF-1301-49A4-893D-DCFDD4490496";
paths = (
{
closed = 1;
nodes = (
"425 -13 OFFCURVE",
"503 66 OFFCURVE",
"503 183 CURVE SMOOTH",
"503 320 OFFCURVE",
"400 339 OFFCURVE",
"314 364 CURVE SMOOTH",
"252 382 OFFCURVE",
"198 395 OFFCURVE",
"198 440 CURVE SMOOTH",
"198 455 OFFCURVE",
"204 463 OFFCURVE",
"209 467 CURVE SMOOTH",
"215 472 OFFCURVE",
"226 477 OFFCURVE",
"259 477 CURVE SMOOTH",
"340 477 OFFCURVE",
"455 447 OFFCURVE",
"455 447 CURVE",
"478 567 LINE",
"442 579 OFFCURVE",
"358 601 OFFCURVE",
"270 601 CURVE SMOOTH",
"114 601 OFFCURVE",
"47 531 OFFCURVE",
"47 426 CURVE SMOOTH",
"47 296 OFFCURVE",
"149 269 OFFCURVE",
"234 243 CURVE SMOOTH",
"299 224 OFFCURVE",
"352 214 OFFCURVE",
"352 164 CURVE SMOOTH",
"352 146 OFFCURVE",
"346 131 OFFCURVE",
"335 123 CURVE SMOOTH",
"327 117 OFFCURVE",
"313 113 OFFCURVE",
"291 113 CURVE SMOOTH",
"207 113 OFFCURVE",
"80 167 OFFCURVE",
"80 167 CURVE",
"42 45 LINE",
"42 45 OFFCURVE",
"159 -13 OFFCURVE",
"282 -13 CURVE SMOOTH"
);
}
);
width = 537;
}
);
unicode = 0073;
},
{
glyphname = c;
lastChange = "2018-04-27 22:54:01 +0000";
layers = (
{
anchors = (
{
name = bottom;
position = "{259, 0}";
},
{
name = top;
position = "{311, 582}";
}
);
layerId = UUID0;
paths = (
{
closed = 1;
nodes = (
"406 -13 OFFCURVE",
"477 40 OFFCURVE",
"477 40 CURVE",
"451 105 LINE",
"451 105 OFFCURVE",
"359 59 OFFCURVE",
"281 59 CURVE SMOOTH",
"248 59 OFFCURVE",
"232 67 OFFCURVE",
"221 75 CURVE SMOOTH",
"196 92 OFFCURVE",
"157 144 OFFCURVE",
"157 287 CURVE SMOOTH",
"157 389 OFFCURVE",
"177 468 OFFCURVE",
"203 496 CURVE SMOOTH",
"222 515 OFFCURVE",
"255 522 OFFCURVE",
"305 522 CURVE SMOOTH",
"368 522 OFFCURVE",
"428 512 OFFCURVE",
"453 509 CURVE",
"463 579 LINE",
"430 587 OFFCURVE",
"372 595 OFFCURVE",
"321 595 CURVE SMOOTH",
"181 595 OFFCURVE",
"70 531 OFFCURVE",
"70 293 CURVE SMOOTH",
"70 75 OFFCURVE",
"163 -13 OFFCURVE",
"300 -13 CURVE SMOOTH"
);
}
);
width = 518;
},
{
anchors = (
{
name = bottom;
position = "{272, 0}";
},
{
name = top;
position = "{318, 588}";
}
);
layerId = "DBD97FAF-1301-49A4-893D-DCFDD4490496";
paths = (
{
closed = 1;
nodes = (
"443 -13 OFFCURVE",
"524 48 OFFCURVE",
"524 48 CURVE",
"482 158 LINE",
"482 158 OFFCURVE",
"370 110 OFFCURVE",
"307 110 CURVE SMOOTH",
"278 110 OFFCURVE",
"262 119 OFFCURVE",
"254 125 CURVE SMOOTH",
"233 141 OFFCURVE",
"206 180 OFFCURVE",
"206 296 CURVE SMOOTH",
"206 377 OFFCURVE",
"219 431 OFFCURVE",
"243 456 CURVE SMOOTH",
"255 468 OFFCURVE",
"273 478 OFFCURVE",
"329 478 CURVE SMOOTH",
"383 478 OFFCURVE",
"453 468 OFFCURVE",
"492 462 CURVE",
"509 579 LINE",
"479 587 OFFCURVE",
"415 601 OFFCURVE",
"340 601 CURVE SMOOTH",
"182 601 OFFCURVE",
"48 539 OFFCURVE",
"48 296 CURVE SMOOTH",
"48 76 OFFCURVE",
"159 -13 OFFCURVE",
"314 -13 CURVE SMOOTH"
);
}
);
width = 544;
}
);
leftKerningGroup = c;
rightKerningGroup = c;
unicode = 0063;
},
{
glyphname = h;
lastChange = "2018-04-27 22:54:01 +0000";
layers = (
{
anchors = (
{
name = bottom;
position = "{292, 0}";
},
{
name = center;
position = "{292, 291}";
},
{
name = top;
position = "{292, 582}";
}
);
layerId = UUID0;
paths = (
{
closed = 1;
nodes = (
"168 0 LINE",
"169 488 LINE",
"157 469 LINE",
"179 482 OFFCURVE",
"270 516 OFFCURVE",
"333 516 CURVE SMOOTH",
"361 516 OFFCURVE",
"380 513 OFFCURVE",
"393 495 CURVE SMOOTH",
"409 472 OFFCURVE",
"413 433 OFFCURVE",
"413 358 CURVE SMOOTH",
"413 0 LINE",
"496 0 LINE",
"496 387 LINE SMOOTH",
"496 522 OFFCURVE",
"462 595 OFFCURVE",
"344 595 CURVE SMOOTH",
"286 595 OFFCURVE",
"201 561 OFFCURVE",
"147 537 CURVE",
"168 518 LINE",
"168 753 LINE",
"85 753 LINE",
"85 0 LINE"
);
}
);
width = 584;
},
{
anchors = (
{
name = bottom;
position = "{314, 0}";
},
{
name = center;
position = "{314, 381}";
},
{
name = top;
position = "{314, 761}";
}
);
layerId = "DBD97FAF-1301-49A4-893D-DCFDD4490496";
paths = (
{
closed = 1;
nodes = (
"229 0 LINE",
"229 453 LINE",
"206 421 LINE",
"215 427 OFFCURVE",
"310 468 OFFCURVE",
"351 468 CURVE SMOOTH",
"367 468 OFFCURVE",
"383 462 OFFCURVE",
"390 453 CURVE SMOOTH",
"400 440 OFFCURVE",
"406 410 OFFCURVE",
"406 358 CURVE SMOOTH",
"406 0 LINE",
"561 0 LINE",
"561 385 LINE SMOOTH",
"561 508 OFFCURVE",
"532 603 OFFCURVE",
"410 603 CURVE SMOOTH",
"324 603 OFFCURVE",
"234 553 OFFCURVE",
"206 539 CURVE",
"229 481 LINE",
"229 761 LINE",
"74 761 LINE",
"74 0 LINE"
);
}
);
width = 627;
},
{
anchors = (
{
name = bottom;
position = "{292, 0}";
},
{
name = center;
position = "{292, 291}";
},
{
name = top;
position = "{292, 582}";
}
);
associatedMasterId = UUID0;
layerId = "5223CE95-E974-4CE8-8269-C154C1539F72";
name = "Mar 29 18, 16:52";
paths = (
{
closed = 1;
nodes = (
"168 0 LINE",
"168 512 LINE",
"174 477 LINE",
"141 461 OFFCURVE",
"249 516 OFFCURVE",
"333 516 CURVE SMOOTH",
"361 516 OFFCURVE",
"380 513 OFFCURVE",
"393 495 CURVE SMOOTH",
"409 472 OFFCURVE",
"413 433 OFFCURVE",
"413 358 CURVE SMOOTH",
"413 0 LINE",
"496 0 LINE",
"496 387 LINE SMOOTH",
"496 522 OFFCURVE",
"462 595 OFFCURVE",
"344 595 CURVE SMOOTH",
"286 595 OFFCURVE",
"201 561 OFFCURVE",
"147 537 CURVE",
"168 508 LINE",
"168 753 LINE",
"85 753 LINE",
"85 0 LINE"
);
}
);
visible = 1;
width = 584;
},
{
anchors = (
{
name = bottom;
position = "{314, 0}";
},
{
name = center;
position = "{314, 381}";
},
{
name = top;
position = "{314, 761}";
}
);
associatedMasterId = "DBD97FAF-1301-49A4-893D-DCFDD4490496";
layerId = "8BF4F96C-CCD7-43A2-AC42-B74071B567C5";
name = "Apr 14 18, 23:05";
paths = (
{
closed = 1;
nodes = (
"229 0 LINE",
"229 432 LINE",
"229 432 OFFCURVE",
"313 468 OFFCURVE",
"351 468 CURVE SMOOTH",
"367 468 OFFCURVE",
"383 462 OFFCURVE",
"390 453 CURVE SMOOTH",
"400 440 OFFCURVE",
"406 410 OFFCURVE",
"406 358 CURVE SMOOTH",
"406 0 LINE",
"561 0 LINE",
"561 385 LINE SMOOTH",
"561 508 OFFCURVE",
"532 603 OFFCURVE",
"410 603 CURVE SMOOTH",
"341 603 OFFCURVE",
"269 571 OFFCURVE",
"229 551 CURVE",
"229 761 LINE",
"74 761 LINE",
"74 0 LINE"
);
}
);
visible = 1;
width = 627;
}
);
leftKerningGroup = l;
rightKerningGroup = h;
rightMetricsKey = n;
unicode = 0068;
},
{
glyphname = j;
lastChange = "2018-04-27 22:54:01 +0000";
layers = (
{
components = (
{
name = dotlessj;
},
{
name = dotaccentcomb;
transform = "{1, 0, 0, 1, 109, 0}";
}
);
layerId = UUID0;
width = 307;
},
{
components = (
{
name = dotlessj;
},
{
alignment = -1;
name = dotaccentcomb;
transform = "{1, 0, 0, 1, 107, 0}";
}
);
layerId = "DBD97FAF-1301-49A4-893D-DCFDD4490496";
width = 346;
},
{
associatedMasterId = "DBD97FAF-1301-49A4-893D-DCFDD4490496";
layerId = "03D5897D-1BE1-4BEC-8DEC-08C0801BCF00";
name = "Feb 28 18, 19:47";
paths = (
{
closed = 1;
nodes = (
"169 -179 OFFCURVE",
"262 -118 OFFCURVE",
"262 69 CURVE SMOOTH",
"262 588 LINE",
"107 588 LINE",
"107 70 LINE SMOOTH",
"107 -33 OFFCURVE",
"104 -51 OFFCURVE",
"61 -51 CURVE SMOOTH",
"32 -51 OFFCURVE",
"-22 -43 OFFCURVE",
"-22 -43 CURVE",
"-38 -169 LINE",
"-38 -169 OFFCURVE",
"28 -179 OFFCURVE",
"69 -179 CURVE SMOOTH"
);
},
{
closed = 1;
nodes = (
"272 657 LINE",
"272 761 LINE",
"97 761 LINE",
"97 657 LINE"
);
}
);
width = 346;
}
);
leftKerningGroup = i;
rightKerningGroup = i;
unicode = 006A;
},
{
glyphname = i;
lastChange = "2018-04-27 22:54:01 +0000";
layers = (
{
anchors = (
{
name = bottom;
position = "{148, 0}";
}
);
components = (
{
name = dotlessi;
},
{
alignment = 1;
name = dotaccentcomb;
transform = "{1, 0, 0, 1, 97, 0}";
}
);
layerId = UUID0;
width = 295;
},
{
anchors = (
{
name = bottom;
position = "{148, 0}";
}
);
components = (
{
alignment = -1;
name = dotlessi;
},
{
name = dotaccentcomb;
transform = "{1, 0, 0, 1, 74, 0}";
}
);
layerId = "DBD97FAF-1301-49A4-893D-DCFDD4490496";
width = 323;
},
{
anchors = (
{
name = bottom;
position = "{162, 0}";
}
);
associatedMasterId = "DBD97FAF-1301-49A4-893D-DCFDD4490496";
layerId = "524357C0-F5A0-4E6D-A6D0-04285AA0E293";
name = "Feb 28 18, 19:47";
paths = (
{
closed = 1;
nodes = (
"239 0 LINE",
"239 588 LINE",
"84 588 LINE",
"84 0 LINE"
);
},
{
closed = 1;
nodes = (
"249 657 LINE",
"249 761 LINE",
"74 761 LINE",
"74 657 LINE"
);
}
);
width = 323;
}
);
leftKerningGroup = i;
rightKerningGroup = i;
unicode = 0069;
},
{
glyphname = u;
lastChange = "2018-04-27 22:54:01 +0000";
layers = (
{
anchors = (
{
name = bottom;
position = "{300, 0}";
},
{
name = ogonek;
position = "{499, 10}";
},
{
name = top;
position = "{300, 582}";
},
{
name = topright;
position = "{580, 582}";
}
);
layerId = UUID0;
paths = (
{
closed = 1;
nodes = (
"327 -13 OFFCURVE",
"415 54 OFFCURVE",
"437 60 CURVE",
"390 56 LINE",
"471 56 LINE",
"426 93 LINE",
"443 0 LINE",
"499 0 LINE",
"499 582 LINE",
"416 582 LINE",
"416 81 LINE",
"437 129 LINE",
"381 104 OFFCURVE",
"311 66 OFFCURVE",
"243 66 CURVE SMOOTH",
"216 66 OFFCURVE",
"194 72 OFFCURVE",
"185 87 CURVE SMOOTH",
"174 106 OFFCURVE",
"171 152 OFFCURVE",
"171 226 CURVE SMOOTH",
"171 582 LINE",
"88 582 LINE",
"88 195 LINE SMOOTH",
"88 38 OFFCURVE",
"153 -13 OFFCURVE",
"234 -13 CURVE SMOOTH"
);
}
);
width = 600;
},
{
anchors = (
{
name = bottom;
position = "{316, 0}";
},
{
name = ogonek;
position = "{535, 10}";
},
{
name = top;
position = "{316, 588}";
},
{
name = topright;
position = "{612, 588}";
}
);
layerId = "DBD97FAF-1301-49A4-893D-DCFDD4490496";
paths = (
{
closed = 1;
nodes = (
"305 -13 OFFCURVE",
"376 29 OFFCURVE",
"429 61 CURVE",
"435 61 LINE",
"454 0 LINE",
"553 0 LINE",
"553 588 LINE",
"398 588 LINE",
"398 164 LINE",
"366 142 OFFCURVE",
"315 122 OFFCURVE",
"276 122 CURVE SMOOTH",
"257 122 OFFCURVE",
"244 125 OFFCURVE",
"234 134 CURVE SMOOTH",
"224 143 OFFCURVE",
"221 163 OFFCURVE",
"221 220 CURVE SMOOTH",
"221 588 LINE",
"66 588 LINE",
"66 205 LINE SMOOTH",
"66 81 OFFCURVE",
"96 -13 OFFCURVE",
"230 -13 CURVE SMOOTH"
);
}
);
width = 632;
}
);
leftKerningGroup = u;
rightKerningGroup = u;
unicode = 0075;
},
{
glyphname = l;
lastChange = "2018-04-27 22:54:01 +0000";
layers = (
{
anchors = (
{
name = bottom;
position = "{132, 0}";
},
{
name = center;
position = "{132, 291}";
},
{
name = top;
position = "{132, 582}";
},
{
name = topright;
position = "{243, 582}";
}
);
layerId = UUID0;
paths = (
{
closed = 1;
nodes = (
"173 0 LINE",
"173 753 LINE",
"90 753 LINE",
"90 0 LINE"
);
}
);
width = 263;
},
{
anchors = (
{
name = bottom;
position = "{152, 0}";
},
{
name = center;
position = "{152, 381}";
},
{
name = top;
position = "{152, 761}";
},
{
name = topright;
position = "{283, 761}";
}
);
layerId = "DBD97FAF-1301-49A4-893D-DCFDD4490496";
paths = (
{
closed = 1;
nodes = (
"229 0 LINE",
"229 761 LINE",
"74 761 LINE",
"74 0 LINE"
);
}
);
width = 303;
}
);
leftKerningGroup = l;
rightKerningGroup = l;
unicode = 006C;
},
{
color = 3;
glyphname = v;
lastChange = "2018-04-28 09:38:28 +0000";
layers = (
{
anchors = (
{
name = bottom;
position = "{237, 0}";
},
{
name = top;
position = "{237, 582}";
}
);
layerId = UUID0;
paths = (
{
closed = 1;
nodes = (
"291 0 LINE",
"459 582 LINE",
"370 582 LINE",
"231 34 LINE",
"278 71 LINE",
"196 71 LINE",
"243 34 LINE",
"103 582 LINE",
"14 582 LINE",
"183 0 LINE"
);
}
);
width = 474;
},
{
anchors = (
{
name = bottom;
position = "{272, 0}";
},
{
name = top;
position = "{272, 588}";
}
);
layerId = "DBD97FAF-1301-49A4-893D-DCFDD4490496";
paths = (
{
closed = 1;
nodes = (
"364 0 LINE",
"535 588 LINE",
"375 588 LINE",
"275 132 LINE",
"269 132 LINE",
"169 588 LINE",
"9 588 LINE",
"180 0 LINE"
);
}
);
width = 544;
},
{
anchors = (
{
name = bottom;
position = "{237, 0}";
},
{
name = top;
position = "{237, 582}";
}
);
associatedMasterId = UUID0;
layerId = "A6A093C0-6146-4076-8F99-0A408DB9D5A2";
name = "Apr 20 18, 12:15";
paths = (
{
closed = 1;
nodes = (
"286 0 LINE",
"459 582 LINE",
"369 582 LINE",
"229 31 LINE",
"276 68 LINE",
"194 68 LINE",
"241 31 LINE",
"104 582 LINE",
"14 582 LINE",
"183 0 LINE"
);
}
);
width = 474;
}
);
leftKerningGroup = v;
rightKerningGroup = v;
unicode = 0076;
},
{
glyphname = t;
lastChange = "2018-04-27 22:54:01 +0000";
layers = (
{
anchors = (
{
name = bottom;
position = "{187, 0}";
},
{
name = center;
position = "{182, 291}";
},
{
name = top;
position = "{182, 582}";
},
{
name = topright;
position = "{344, 582}";
}
);
layerId = UUID0;
paths = (
{
closed = 1;
nodes = (
"288 -14 OFFCURVE",
"309 -9 OFFCURVE",
"309 -9 CURVE",
"309 58 LINE",
"309 58 OFFCURVE",
"287 56 OFFCURVE",
"255 56 CURVE SMOOTH",
"195 56 OFFCURVE",
"194 63 OFFCURVE",
"194 174 CURVE SMOOTH",
"194 519 LINE",
"156 481 LINE",
"310 481 LINE",
"310 548 LINE",
"156 548 LINE",
"194 510 LINE",
"194 685 LINE",
"136 685 LINE",
"108 512 LINE",
"151 557 LINE",
"45 535 LINE",
"45 483 LINE",
"149 483 LINE",
"111 521 LINE",
"111 180 LINE SMOOTH",
"111 16 OFFCURVE",
"167 -14 OFFCURVE",
"253 -14 CURVE SMOOTH"
);
}
);
width = 364;
},
{
anchors = (
{
name = bottom;
position = "{211, 0}";
},
{
name = center;
position = "{200, 294}";
},
{
name = top;
position = "{187, 691}";
},
{
name = topright;
position = "{380, 588}";
}
);
layerId = "DBD97FAF-1301-49A4-893D-DCFDD4490496";
paths = (
{
closed = 1;
nodes = (
"317 -13 OFFCURVE",
"366 -2 OFFCURVE",
"366 -2 CURVE",
"366 124 LINE",
"366 124 OFFCURVE",
"318 119 OFFCURVE",
"289 119 CURVE SMOOTH",
"259 119 OFFCURVE",
"246 124 OFFCURVE",
"246 193 CURVE SMOOTH",
"246 440 LINE",
"368 440 LINE",
"368 559 LINE",
"248 559 LINE",
"248 693 LINE",
"121 693 LINE",
"98 554 LINE",
"23 540 LINE",
"23 443 LINE",
"91 443 LINE",
"91 197 LINE SMOOTH",
"91 23 OFFCURVE",
"151 -13 OFFCURVE",
"258 -13 CURVE SMOOTH"
);
}
);
width = 400;
}
);
unicode = 0074;
},
{
color = 3;
glyphname = x;
lastChange = "2018-04-28 09:38:28 +0000";
layers = (
{
anchors = (
{
name = bottom;
position = "{246, 0}";
},
{
name = top;
position = "{246, 582}";
}
);
layerId = UUID0;
paths = (
{
closed = 1;
nodes = (
"113 0 LINE",
"254 285 LINE",
"199 251 LINE",
"280 251 LINE",
"225 285 LINE",
"369 0 LINE",
"466 0 LINE",
"272 334 LINE",
"271 269 LINE",
"463 582 LINE",
"369 582 LINE",
"228 316 LINE",
"284 349 LINE",
"202 349 LINE",
"258 316 LINE",
"113 582 LINE",
"19 582 LINE",
"211 271 LINE",
"210 336 LINE",
"17 0 LINE"
);
}
);
width = 491;
},
{
anchors = (
{
name = bottom;
position = "{291, 0}";
},
{
name = top;
position = "{291, 588}";
}
);
layerId = "DBD97FAF-1301-49A4-893D-DCFDD4490496";
paths = (
{
closed = 1;
nodes = (
"379 309 LINE",
"559 588 LINE",
"398 588 LINE",
"290 394 LINE",
"284 394 LINE",
"176 588 LINE",
"15 588 LINE",
"195 309 LINE",
"4 0 LINE",
"170 0 LINE",
"284 218 LINE",
"290 218 LINE",
"404 0 LINE",
"570 0 LINE"
);
}
);
width = 582;
},
{
anchors = (
{
name = bottom;
position = "{246, 0}";
},
{
name = top;
position = "{246, 582}";
}
);
associatedMasterId = UUID0;
layerId = "8D11A25D-880F-451A-9E95-990B71ECEBCD";
name = "Apr 20 18, 12:15";
paths = (
{
closed = 1;
nodes = (
"113 0 LINE",
"254 285 LINE",
"199 251 LINE",
"280 251 LINE",
"225 285 LINE",
"369 0 LINE",
"466 0 LINE",
"272 334 LINE",
"271 269 LINE",
"463 582 LINE",
"369 582 LINE",
"228 316 LINE",
"284 349 LINE",
"202 349 LINE",
"258 316 LINE",
"113 582 LINE",
"19 582 LINE",
"211 271 LINE",
"210 336 LINE",
"17 0 LINE"
);
}
);
width = 491;
}
);
unicode = 0078;
},
{
color = 3;
glyphname = w;
lastChange = "2018-04-28 09:38:28 +0000";
layers = (
{
anchors = (
{
name = bottom;
position = "{364, 0}";
},
{
name = top;
position = "{364, 582}";
}
);
layerId = UUID0;
paths = (
{
closed = 1;
nodes = (
"261 0 LINE",
"369 477 LINE",
"323 440 LINE",
"405 440 LINE",
"359 477 LINE",
"467 0 LINE",
"589 0 LINE",
"704 582 LINE",
"619 582 LINE",
"525 28 LINE",
"570 65 LINE",
"488 65 LINE",
"534 28 LINE",
"425 505 LINE",
"303 505 LINE",
"194 28 LINE",
"240 65 LINE",
"159 65 LINE",
"203 28 LINE",
"109 582 LINE",
"24 582 LINE",
"139 0 LINE"
);
}
);
width = 727;
},
{
anchors = (
{
name = bottom;
position = "{402, 0}";
},
{
name = top;
position = "{402, 588}";
}
);
layerId = "DBD97FAF-1301-49A4-893D-DCFDD4490496";
paths = (
{
closed = 1;
nodes = (
"333 0 LINE",
"402 393 LINE",
"408 393 LINE",
"477 0 LINE",
"673 0 LINE",
"789 588 LINE",
"633 588 LINE",
"574 114 LINE",
"568 114 LINE",
"499 507 LINE",
"311 507 LINE",
"243 114 LINE",
"237 114 LINE",
"176 588 LINE",
"20 588 LINE",
"137 0 LINE"
);
}
);
width = 804;
},
{
anchors = (
{
name = bottom;
position = "{364, 0}";
},
{
name = top;
position = "{364, 582}";
}
);
associatedMasterId = UUID0;
layerId = "CC1005DE-783E-4DD0-9EEF-5AD5D60FC682";
name = "Apr 20 18, 12:15";
paths = (
{
closed = 1;
nodes = (
"260 0 LINE",
"366 495 LINE",
"320 458 LINE",
"402 458 LINE",
"356 495 LINE",
"462 0 LINE",
"585 0 LINE",
"702 582 LINE",
"617 582 LINE",
"521 11 LINE",
"565 48 LINE",
"483 48 LINE",
"529 11 LINE",
"423 505 LINE",
"300 505 LINE",
"193 11 LINE",
"239 48 LINE",
"158 48 LINE",
"202 11 LINE",
"105 582 LINE",
"21 582 LINE",
"138 0 LINE"
);
}
);
width = 727;
}
);
leftKerningGroup = v;
rightKerningGroup = v;
unicode = 0077;
},
{
glyphname = ntilde;
lastChange = "2018-04-28 09:20:48 +0000";
layers = (
{
components = (
{
name = n;
},
{
name = tildecomb;
transform = "{1, 0, 0, 1, 148, 0}";
}
);
layerId = UUID0;
width = 601;
},
{
components = (
{
alignment = -1;
name = n;
},
{
alignment = -1;
name = tildecomb;
transform = "{1, 0, 0, 1, 123, 0}";
}
);
layerId = "DBD97FAF-1301-49A4-893D-DCFDD4490496";
width = 632;
},
{
associatedMasterId = "DBD97FAF-1301-49A4-893D-DCFDD4490496";
layerId = "B3ADAC92-349E-4336-B88F-55B6A9712D18";
name = "Feb 28 18, 19:50";
paths = (
{
closed = 1;
nodes = (
"234 0 LINE",
"234 424 LINE",
"266 446 OFFCURVE",
"318 466 OFFCURVE",
"357 466 CURVE SMOOTH",
"376 466 OFFCURVE",
"389 461 OFFCURVE",
"397 451 CURVE SMOOTH",
"410 435 OFFCURVE",
"411 411 OFFCURVE",
"411 356 CURVE SMOOTH",
"411 0 LINE",
"566 0 LINE",
"566 385 LINE SMOOTH",
"566 509 OFFCURVE",
"539 601 OFFCURVE",
"416 601 CURVE SMOOTH",
"328 601 OFFCURVE",
"256 561 OFFCURVE",
"202 529 CURVE",
"196 529 LINE",
"178 588 LINE",
"79 588 LINE",
"79 0 LINE"
);
},
{
closed = 1;
nodes = (
"495 646 OFFCURVE",
"532 682 OFFCURVE",
"534 773 CURVE",
"459 785 LINE",
"459 785 OFFCURVE",
"444 745 OFFCURVE",
"428 745 CURVE SMOOTH",
"400 745 OFFCURVE",
"284 788 OFFCURVE",
"224 788 CURVE SMOOTH",
"168 788 OFFCURVE",
"129 752 OFFCURVE",
"127 660 CURVE",
"203 650 LINE",
"203 650 OFFCURVE",
"219 691 OFFCURVE",
"235 691 CURVE SMOOTH",
"262 691 OFFCURVE",
"380 646 OFFCURVE",
"439 646 CURVE SMOOTH"
);
}
);
width = 632;
}
);
leftKerningGroup = m;
rightKerningGroup = h;
unicode = 00F1;
},
{
glyphname = aacute;
lastChange = "2018-04-27 22:54:01 +0000";
layers = (
{
components = (
{
name = a;
},
{
name = acutecomb;
transform = "{1, 0, 0, 1, 150, 0}";
}
);
layerId = UUID0;
width = 569;
},
{
components = (
{
name = a;
},
{
name = acutecomb;
transform = "{1, 0, 0, 1, 144, 0}";
}
);
layerId = "DBD97FAF-1301-49A4-893D-DCFDD4490496";
width = 622;
},
{
associatedMasterId = "DBD97FAF-1301-49A4-893D-DCFDD4490496";
layerId = "1751B8DC-F1A6-4F01-9EF8-23193419ACD7";
name = "Feb 28 18, 19:50";
paths = (
{
closed = 1;
nodes = (
"322 -13 OFFCURVE",
"425 65 OFFCURVE",
"425 65 CURVE",
"431 65 LINE",
"451 0 LINE",
"549 0 LINE",
"549 380 LINE SMOOTH",
"549 517 OFFCURVE",
"491 601 OFFCURVE",
"320 601 CURVE SMOOTH",
"185 601 OFFCURVE",
"66 549 OFFCURVE",
"66 549 CURVE",
"98 437 LINE",
"98 437 OFFCURVE",
"224 477 OFFCURVE",
"319 477 CURVE SMOOTH",
"366 477 OFFCURVE",
"375 467 OFFCURVE",
"381 458 CURVE SMOOTH",
"388 447 OFFCURVE",
"394 428 OFFCURVE",
"394 371 CURVE",
"319 371 LINE SMOOTH",
"155 371 OFFCURVE",
"51 324 OFFCURVE",
"51 179 CURVE SMOOTH",
"51 56 OFFCURVE",
"126 -13 OFFCURVE",
"222 -13 CURVE SMOOTH"
);
},
{
closed = 1;
nodes = (
"225 114 OFFCURVE",
"209 135 OFFCURVE",
"209 185 CURVE SMOOTH",
"209 220 OFFCURVE",
"217 238 OFFCURVE",
"226 246 CURVE SMOOTH",
"238 257 OFFCURVE",
"262 261 OFFCURVE",
"308 261 CURVE SMOOTH",
"359 261 OFFCURVE",
"394 256 OFFCURVE",
"394 256 CURVE",
"394 152 LINE",
"394 152 OFFCURVE",
"323 114 OFFCURVE",
"267 114 CURVE SMOOTH"
);
},
{
closed = 1;
nodes = (
"476 704 LINE",
"445 816 LINE",
"152 729 LINE",
"174 646 LINE"
);
}
);
width = 622;
}
);
leftKerningGroup = a;
rightKerningGroup = a;
unicode = 00E1;
},
{
color = 3;
glyphname = z;
lastChange = "2018-04-28 09:38:28 +0000";
layers = (
{
anchors = (
{
name = bottom;
position = "{236, 0}";
},
{
name = top;
position = "{242, 582}";
}
);
layerId = UUID0;
paths = (
{
closed = 1;
nodes = (
"435 0 LINE",
"435 69 LINE",
"91 65 LINE",
"131 26 LINE",
"131 108 LINE",
"109 39 LINE",
"450 546 LINE",
"429 477 LINE",
"429 582 LINE",
"47 582 LINE",
"47 513 LINE",
"371 517 LINE",
"333 556 LINE",
"333 474 LINE",
"354 543 LINE",
"13 36 LINE",
"34 105 LINE",
"34 0 LINE"
);
}
);
width = 471;
},
{
anchors = (
{
name = bottom;
position = "{253, 0}";
},
{
name = top;
position = "{253, 588}";
}
);
layerId = "DBD97FAF-1301-49A4-893D-DCFDD4490496";
paths = (
{
closed = 1;
nodes = (
"486 0 LINE",
"486 127 LINE",
"202 115 LINE",
"202 121 LINE",
"479 484 LINE",
"479 588 LINE",
"25 588 LINE",
"25 461 LINE",
"291 471 LINE",
"291 466 LINE",
"11 104 LINE",
"11 0 LINE"
);
}
);
width = 506;
}
);
leftKerningGroup = z;
rightKerningGroup = z;
unicode = 007A;
},
{
glyphname = comma;
lastChange = "2018-04-27 22:54:01 +0000";
layers = (
{
layerId = UUID0;
paths = (
{
closed = 1;
nodes = (
"141 -134 OFFCURVE",
"175 -80 OFFCURVE",
"176 14 CURVE SMOOTH",
"176 84 LINE",
"94 84 LINE",
"94 -36 LINE SMOOTH",
"94 -82 OFFCURVE",
"84 -110 OFFCURVE",
"62 -137 CURVE",
"102 -166 LINE"
);
}
);
width = 270;
},
{
layerId = "DBD97FAF-1301-49A4-893D-DCFDD4490496";
paths = (
{
closed = 1;
nodes = (
"181 -141 OFFCURVE",
"226 -78 OFFCURVE",
"226 41 CURVE SMOOTH",
"226 132 LINE",
"76 132 LINE",
"76 -1 LINE SMOOTH",
"76 -60 OFFCURVE",
"65 -100 OFFCURVE",
"44 -131 CURVE",
"134 -175 LINE"
);
}
);
width = 299;
}
);
leftKerningGroup = comma;
rightKerningGroup = comma;
unicode = 002C;
},
{
glyphname = equal;
lastChange = "2018-04-27 22:54:01 +0000";
layers = (
{
layerId = UUID0;
paths = (
{
closed = 1;
nodes = (
"566 335 LINE",
"566 407 LINE",
"52 407 LINE",
"52 335 LINE"
);
},
{
closed = 1;
nodes = (
"566 179 LINE",
"566 251 LINE",
"52 251 LINE",
"52 179 LINE"
);
}
);
width = 618;
},
{
layerId = "DBD97FAF-1301-49A4-893D-DCFDD4490496";
paths = (
{
closed = 1;
nodes = (
"619 371 LINE",
"619 504 LINE",
"30 504 LINE",
"30 371 LINE"
);
},
{
closed = 1;
nodes = (
"619 79 LINE",
"619 212 LINE",
"30 212 LINE",
"30 79 LINE"
);
}
);
width = 649;
}
);
unicode = 003D;
},
{
glyphname = acircumflex;
lastChange = "2018-04-27 22:54:01 +0000";
layers = (
{
components = (
{
name = a;
},
{
name = circumflexcomb;
transform = "{1, 0, 0, 1, 130, 0}";
}
);
layerId = UUID0;
width = 569;
},
{
components = (
{
name = a;
},
{
name = circumflexcomb;
transform = "{1, 0, 0, 1, 107, 0}";
}
);
layerId = "DBD97FAF-1301-49A4-893D-DCFDD4490496";
width = 622;
},
{
associatedMasterId = "DBD97FAF-1301-49A4-893D-DCFDD4490496";
layerId = "D08F2536-93B2-45FB-AE90-6D0F4E6FEF15";
name = "Feb 28 18, 19:53";
paths = (
{
closed = 1;
nodes = (
"322 -13 OFFCURVE",
"425 65 OFFCURVE",
"425 65 CURVE",
"431 65 LINE",
"451 0 LINE",
"549 0 LINE",
"549 380 LINE SMOOTH",
"549 517 OFFCURVE",
"491 601 OFFCURVE",
"320 601 CURVE SMOOTH",
"185 601 OFFCURVE",
"66 549 OFFCURVE",
"66 549 CURVE",
"98 437 LINE",
"98 437 OFFCURVE",
"224 477 OFFCURVE",
"319 477 CURVE SMOOTH",
"366 477 OFFCURVE",
"375 467 OFFCURVE",
"381 458 CURVE SMOOTH",
"388 447 OFFCURVE",
"394 428 OFFCURVE",
"394 371 CURVE",
"319 371 LINE SMOOTH",
"155 371 OFFCURVE",
"51 324 OFFCURVE",
"51 179 CURVE SMOOTH",
"51 56 OFFCURVE",
"126 -13 OFFCURVE",
"222 -13 CURVE SMOOTH"
);
},
{
closed = 1;
nodes = (
"225 114 OFFCURVE",
"209 135 OFFCURVE",
"209 185 CURVE SMOOTH",
"209 220 OFFCURVE",
"217 238 OFFCURVE",
"226 246 CURVE SMOOTH",
"238 257 OFFCURVE",
"262 261 OFFCURVE",
"308 261 CURVE SMOOTH",
"359 261 OFFCURVE",
"394 256 OFFCURVE",
"394 256 CURVE",
"394 152 LINE",
"394 152 OFFCURVE",
"323 114 OFFCURVE",
"267 114 CURVE SMOOTH"
);
},
{
closed = 1;
nodes = (
"307 705 LINE",
"314 705 LINE",
"481 641 LINE",
"514 702 LINE",
"347 807 LINE",
"274 807 LINE",
"107 702 LINE",
"140 641 LINE"
);
}
);
width = 622;
}
);
leftKerningGroup = a;
rightKerningGroup = a;
unicode = 00E2;
},
{
glyphname = aring;
lastChange = "2018-04-27 22:54:01 +0000";
layers = (
{
components = (
{
name = a;
},
{
name = ringcomb;
transform = "{1, 0, 0, 1, 193, 0}";
}
);
layerId = UUID0;
width = 569;
},
{
components = (
{
name = a;
},
{
name = ringcomb;
transform = "{1, 0, 0, 1, 205, 3}";
}
);
layerId = "DBD97FAF-1301-49A4-893D-DCFDD4490496";
width = 622;
},
{
associatedMasterId = "DBD97FAF-1301-49A4-893D-DCFDD4490496";
layerId = "C2205DB5-BEA1-4032-B9B1-7D07616242F7";
name = "Feb 28 18, 19:55";
paths = (
{
closed = 1;
nodes = (
"322 -13 OFFCURVE",
"425 65 OFFCURVE",
"425 65 CURVE",
"431 65 LINE",
"451 0 LINE",
"549 0 LINE",
"549 380 LINE SMOOTH",
"549 517 OFFCURVE",
"491 601 OFFCURVE",
"320 601 CURVE SMOOTH",
"185 601 OFFCURVE",
"66 549 OFFCURVE",
"66 549 CURVE",
"98 437 LINE",
"98 437 OFFCURVE",
"224 477 OFFCURVE",
"319 477 CURVE SMOOTH",
"366 477 OFFCURVE",
"375 467 OFFCURVE",
"381 458 CURVE SMOOTH",
"388 447 OFFCURVE",
"394 428 OFFCURVE",
"394 371 CURVE",
"319 371 LINE SMOOTH",
"155 371 OFFCURVE",
"51 324 OFFCURVE",
"51 179 CURVE SMOOTH",
"51 56 OFFCURVE",
"126 -13 OFFCURVE",
"222 -13 CURVE SMOOTH"
);
},
{
closed = 1;
nodes = (
"225 114 OFFCURVE",
"209 135 OFFCURVE",
"209 185 CURVE SMOOTH",
"209 220 OFFCURVE",
"217 238 OFFCURVE",
"226 246 CURVE SMOOTH",
"238 257 OFFCURVE",
"262 261 OFFCURVE",
"308 261 CURVE SMOOTH",
"359 261 OFFCURVE",
"394 256 OFFCURVE",
"394 256 CURVE",
"394 152 LINE",
"394 152 OFFCURVE",
"323 114 OFFCURVE",
"267 114 CURVE SMOOTH"
);
},
{
closed = 1;
nodes = (
"362 637 OFFCURVE",
"415 658 OFFCURVE",
"415 733 CURVE SMOOTH",
"415 810 OFFCURVE",
"362 830 OFFCURVE",
"310 830 CURVE SMOOTH",
"259 830 OFFCURVE",
"204 810 OFFCURVE",
"204 733 CURVE SMOOTH",
"204 658 OFFCURVE",
"259 637 OFFCURVE",
"310 637 CURVE SMOOTH"
);
},
{
closed = 1;
nodes = (
"281 694 OFFCURVE",
"268 703 OFFCURVE",
"268 733 CURVE SMOOTH",
"268 765 OFFCURVE",
"281 771 OFFCURVE",
"310 771 CURVE SMOOTH",
"339 771 OFFCURVE",
"351 765 OFFCURVE",
"351 733 CURVE SMOOTH",
"351 703 OFFCURVE",
"339 694 OFFCURVE",
"310 694 CURVE SMOOTH"
);
}
);
width = 622;
}
);
leftKerningGroup = a;
rightKerningGroup = a;
unicode = 00E5;
},
{
glyphname = acute;
lastChange = "2018-04-27 22:54:01 +0000";
layers = (
{
layerId = UUID0;
paths = (
{
closed = 1;
nodes = (
"214 721 LINE",
"184 788 LINE",
"0 704 LINE",
"20 654 LINE"
);
}
);
width = 214;
},
{
layerId = "DBD97FAF-1301-49A4-893D-DCFDD4490496";
paths = (
{
closed = 1;
nodes = (
"324 704 LINE",
"293 816 LINE",
"0 727 LINE",
"22 646 LINE"
);
}
);
width = 324;
}
);
unicode = 00B4;
},
{
glyphname = ring;
lastChange = "2018-04-27 22:54:01 +0000";
layers = (
{
layerId = UUID0;
paths = (
{
closed = 1;
nodes = (
"125 647 OFFCURVE",
"168 666 OFFCURVE",
"168 730 CURVE SMOOTH",
"168 795 OFFCURVE",
"125 814 OFFCURVE",
"84 814 CURVE SMOOTH",
"43 814 OFFCURVE",
"0 795 OFFCURVE",
"0 730 CURVE SMOOTH",
"0 666 OFFCURVE",
"43 647 OFFCURVE",
"84 647 CURVE SMOOTH"
);
},
{
closed = 1;
nodes = (
"60 693 OFFCURVE",
"48 699 OFFCURVE",
"48 730 CURVE SMOOTH",
"48 762 OFFCURVE",
"60 768 OFFCURVE",
"84 768 CURVE SMOOTH",
"108 768 OFFCURVE",
"118 762 OFFCURVE",
"118 730 CURVE SMOOTH",
"118 699 OFFCURVE",
"108 693 OFFCURVE",
"84 693 CURVE SMOOTH"
);
}
);
width = 168;
},
{
layerId = "DBD97FAF-1301-49A4-893D-DCFDD4490496";
paths = (
{
closed = 1;
nodes = (
"158 637 OFFCURVE",
"211 658 OFFCURVE",
"211 733 CURVE SMOOTH",
"211 810 OFFCURVE",
"158 830 OFFCURVE",
"106 830 CURVE SMOOTH",
"55 830 OFFCURVE",
"0 810 OFFCURVE",
"0 733 CURVE SMOOTH",
"0 658 OFFCURVE",
"55 637 OFFCURVE",
"106 637 CURVE SMOOTH"
);
},
{
closed = 1;
nodes = (
"77 694 OFFCURVE",
"64 703 OFFCURVE",
"64 733 CURVE SMOOTH",
"64 765 OFFCURVE",
"77 771 OFFCURVE",
"106 771 CURVE SMOOTH",
"135 771 OFFCURVE",
"147 765 OFFCURVE",
"147 733 CURVE SMOOTH",
"147 703 OFFCURVE",
"135 694 OFFCURVE",
"106 694 CURVE SMOOTH"
);
}
);
width = 211;
}
);
unicode = 02DA;
},
{
glyphname = grave;
lastChange = "2018-04-27 22:54:01 +0000";
layers = (
{
layerId = UUID0;
paths = (
{
closed = 1;
nodes = (
"214 704 LINE",
"30 788 LINE",
"0 721 LINE",
"194 654 LINE"
);
}
);
width = 214;
},
{
layerId = "DBD97FAF-1301-49A4-893D-DCFDD4490496";
paths = (
{
closed = 1;
nodes = (
"324 729 LINE",
"26 816 LINE",
"0 704 LINE",
"305 646 LINE"
);
}
);
width = 324;
}
);
unicode = 0060;
},
{
glyphname = dieresis;
lastChange = "2018-04-27 22:54:01 +0000";
layers = (
{
layerId = UUID0;
paths = (
{
closed = 1;
nodes = (
"99 684 LINE",
"99 766 LINE",
"0 766 LINE",
"0 684 LINE"
);
},
{
closed = 1;
nodes = (
"285 684 LINE",
"285 766 LINE",
"187 766 LINE",
"187 684 LINE"
);
}
);
width = 285;
},
{
layerId = "DBD97FAF-1301-49A4-893D-DCFDD4490496";
paths = (
{
closed = 1;
nodes = (
"372 668 LINE",
"372 776 LINE",
"225 776 LINE",
"225 668 LINE"
);
},
{
closed = 1;
nodes = (
"147 668 LINE",
"147 776 LINE",
"0 776 LINE",
"0 668 LINE"
);
}
);
width = 372;
}
);
unicode = 00A8;
},
{
glyphname = tilde;
lastChange = "2018-04-27 22:54:01 +0000";
layers = (
{
layerId = UUID0;
paths = (
{
closed = 1;
nodes = (
"280 675 OFFCURVE",
"306 701 OFFCURVE",
"306 776 CURVE",
"253 783 LINE",
"253 783 OFFCURVE",
"238 738 OFFCURVE",
"225 738 CURVE SMOOTH",
"205 738 OFFCURVE",
"118 786 OFFCURVE",
"73 786 CURVE SMOOTH",
"27 786 OFFCURVE",
"0 761 OFFCURVE",
"0 685 CURVE",
"52 679 LINE",
"52 679 OFFCURVE",
"66 725 OFFCURVE",
"79 725 CURVE SMOOTH",
"98 725 OFFCURVE",
"190 675 OFFCURVE",
"234 675 CURVE SMOOTH"
);
}
);
width = 306;
},
{
layerId = "DBD97FAF-1301-49A4-893D-DCFDD4490496";
paths = (
{
closed = 1;
nodes = (
"368 656 OFFCURVE",
"405 692 OFFCURVE",
"407 783 CURVE",
"332 795 LINE",
"332 795 OFFCURVE",
"317 755 OFFCURVE",
"301 755 CURVE SMOOTH",
"273 755 OFFCURVE",
"157 798 OFFCURVE",
"97 798 CURVE SMOOTH",
"41 798 OFFCURVE",
"2 762 OFFCURVE",
"0 670 CURVE",
"76 660 LINE",
"76 660 OFFCURVE",
"92 701 OFFCURVE",
"108 701 CURVE SMOOTH",
"135 701 OFFCURVE",
"253 656 OFFCURVE",
"312 656 CURVE SMOOTH"
);
}
);
width = 407;
}
);
unicode = 02DC;
},
{
glyphname = circumflex;
lastChange = "2018-04-27 22:54:01 +0000";
layers = (
{
layerId = UUID0;
paths = (
{
closed = 1;
nodes = (
"143 730 LINE",
"150 730 LINE",
"264 659 LINE",
"293 693 LINE",
"172 802 LINE",
"121 802 LINE",
"0 693 LINE",
"29 659 LINE"
);
}
);
width = 293;
},
{
layerId = "DBD97FAF-1301-49A4-893D-DCFDD4490496";
paths = (
{
closed = 1;
nodes = (
"200 701 LINE",
"207 701 LINE",
"374 637 LINE",
"407 698 LINE",
"240 803 LINE",
"167 803 LINE",
"0 698 LINE",
"33 637 LINE"
);
}
);
width = 407;
}
);
unicode = 02C6;
},
{
glyphname = ograve;
lastChange = "2018-04-27 22:54:01 +0000";
layers = (
{
components = (
{
name = o;
},
{
name = gravecomb;
transform = "{1, 0, 0, 1, 162, 0}";
}
);
layerId = UUID0;
width = 576;
},
{
components = (
{
name = o;
},
{
name = gravecomb;
transform = "{1, 0, 0, 1, 144, 0}";
}
);
layerId = "DBD97FAF-1301-49A4-893D-DCFDD4490496";
width = 612;
},
{
associatedMasterId = "DBD97FAF-1301-49A4-893D-DCFDD4490496";
layerId = "33B406F6-8C57-4E90-8A98-9EA1F7BB8A35";
name = "Feb 28 18, 19:56";
paths = (
{
closed = 1;
nodes = (
"502 -13 OFFCURVE",
"564 105 OFFCURVE",
"564 294 CURVE SMOOTH",
"564 483 OFFCURVE",
"502 601 OFFCURVE",
"307 601 CURVE SMOOTH",
"112 601 OFFCURVE",
"48 483 OFFCURVE",
"48 294 CURVE SMOOTH",
"48 105 OFFCURVE",
"112 -13 OFFCURVE",
"307 -13 CURVE SMOOTH"
);
},
{
closed = 1;
nodes = (
"229 105 OFFCURVE",
"206 141 OFFCURVE",
"206 294 CURVE SMOOTH",
"206 448 OFFCURVE",
"230 483 OFFCURVE",
"307 483 CURVE SMOOTH",
"383 483 OFFCURVE",
"406 448 OFFCURVE",
"406 294 CURVE SMOOTH",
"406 141 OFFCURVE",
"384 105 OFFCURVE",
"307 105 CURVE SMOOTH"
);
},
{
closed = 1;
nodes = (
"464 729 LINE",
"166 812 LINE",
"140 704 LINE",
"445 646 LINE"
);
}
);
width = 612;
}
);
leftKerningGroup = c;
rightKerningGroup = o;
unicode = 00F2;
},
{
glyphname = oacute;
lastChange = "2018-04-27 22:54:01 +0000";
layers = (
{
components = (
{
name = o;
},
{
name = acutecomb;
transform = "{1, 0, 0, 1, 161, 0}";
}
);
layerId = UUID0;
width = 576;
},
{
components = (
{
name = o;
},
{
alignment = -1;
name = acutecomb;
transform = "{1, 0, 0, 1, 155, 0}";
}
);
layerId = "DBD97FAF-1301-49A4-893D-DCFDD4490496";
width = 612;
},
{
associatedMasterId = "DBD97FAF-1301-49A4-893D-DCFDD4490496";
layerId = "E9666AD3-935C-4CB1-8ED1-7C6F018D6BE8";
name = "Feb 28 18, 19:57";
paths = (
{
closed = 1;
nodes = (
"502 -13 OFFCURVE",
"564 105 OFFCURVE",
"564 294 CURVE SMOOTH",
"564 483 OFFCURVE",
"502 601 OFFCURVE",
"307 601 CURVE SMOOTH",
"112 601 OFFCURVE",
"48 483 OFFCURVE",
"48 294 CURVE SMOOTH",
"48 105 OFFCURVE",
"112 -13 OFFCURVE",
"307 -13 CURVE SMOOTH"
);
},
{
closed = 1;
nodes = (
"229 105 OFFCURVE",
"206 141 OFFCURVE",
"206 294 CURVE SMOOTH",
"206 448 OFFCURVE",
"230 483 OFFCURVE",
"307 483 CURVE SMOOTH",
"383 483 OFFCURVE",
"406 448 OFFCURVE",
"406 294 CURVE SMOOTH",
"406 141 OFFCURVE",
"384 105 OFFCURVE",
"307 105 CURVE SMOOTH"
);
},
{
closed = 1;
nodes = (
"473 704 LINE",
"442 816 LINE",
"149 729 LINE",
"171 646 LINE"
);
}
);
width = 612;
}
);
leftKerningGroup = c;
rightKerningGroup = o;
unicode = 00F3;
},
{
glyphname = ocircumflex;
lastChange = "2018-04-28 09:20:44 +0000";
layers = (
{
components = (
{
name = o;
},
{
name = circumflexcomb;
transform = "{1, 0, 0, 1, 141, 0}";
}
);
layerId = UUID0;
width = 576;
},
{
components = (
{
name = o;
},
{
name = circumflexcomb;
transform = "{1, 0, 0, 1, 102, 0}";
}
);
layerId = "DBD97FAF-1301-49A4-893D-DCFDD4490496";
width = 612;
},
{
associatedMasterId = "DBD97FAF-1301-49A4-893D-DCFDD4490496";
layerId = "5E9C88E1-71A0-4B71-9232-2AAAAE28BFCD";
name = "Feb 28 18, 19:57";
paths = (
{
closed = 1;
nodes = (
"502 -13 OFFCURVE",
"564 105 OFFCURVE",
"564 294 CURVE SMOOTH",
"564 483 OFFCURVE",
"502 601 OFFCURVE",
"307 601 CURVE SMOOTH",
"112 601 OFFCURVE",
"48 483 OFFCURVE",
"48 294 CURVE SMOOTH",
"48 105 OFFCURVE",
"112 -13 OFFCURVE",
"307 -13 CURVE SMOOTH"
);
},
{
closed = 1;
nodes = (
"229 105 OFFCURVE",
"206 141 OFFCURVE",
"206 294 CURVE SMOOTH",
"206 448 OFFCURVE",
"230 483 OFFCURVE",
"307 483 CURVE SMOOTH",
"383 483 OFFCURVE",
"406 448 OFFCURVE",
"406 294 CURVE SMOOTH",
"406 141 OFFCURVE",
"384 105 OFFCURVE",
"307 105 CURVE SMOOTH"
);
},
{
closed = 1;
nodes = (
"305 705 LINE",
"312 705 LINE",
"479 641 LINE",
"512 702 LINE",
"345 807 LINE",
"272 807 LINE",
"105 702 LINE",
"138 641 LINE"
);
}
);
width = 612;
}
);
leftKerningGroup = c;
rightKerningGroup = o;
unicode = 00F4;
},
{
glyphname = otilde;
lastChange = "2018-04-27 22:54:01 +0000";
layers = (
{
components = (
{
name = o;
},
{
name = tildecomb;
transform = "{1, 0, 0, 1, 135, 0}";
}
);
layerId = UUID0;
width = 576;
},
{
components = (
{
name = o;
},
{
name = tildecomb;
transform = "{1, 0, 0, 1, 102, 0}";
}
);
layerId = "DBD97FAF-1301-49A4-893D-DCFDD4490496";
width = 612;
},
{
associatedMasterId = "DBD97FAF-1301-49A4-893D-DCFDD4490496";
layerId = "27926BDD-617F-4AC2-86D5-D1EC81C13F83";
name = "Feb 28 18, 19:58";
paths = (
{
closed = 1;
nodes = (
"502 -13 OFFCURVE",
"564 105 OFFCURVE",
"564 294 CURVE SMOOTH",
"564 483 OFFCURVE",
"502 601 OFFCURVE",
"307 601 CURVE SMOOTH",
"112 601 OFFCURVE",
"48 483 OFFCURVE",
"48 294 CURVE SMOOTH",
"48 105 OFFCURVE",
"112 -13 OFFCURVE",
"307 -13 CURVE SMOOTH"
);
},
{
closed = 1;
nodes = (
"229 105 OFFCURVE",
"206 141 OFFCURVE",
"206 294 CURVE SMOOTH",
"206 448 OFFCURVE",
"230 483 OFFCURVE",
"307 483 CURVE SMOOTH",
"383 483 OFFCURVE",
"406 448 OFFCURVE",
"406 294 CURVE SMOOTH",
"406 141 OFFCURVE",
"384 105 OFFCURVE",
"307 105 CURVE SMOOTH"
);
},
{
closed = 1;
nodes = (
"474 656 OFFCURVE",
"511 692 OFFCURVE",
"513 783 CURVE",
"438 795 LINE",
"438 795 OFFCURVE",
"423 755 OFFCURVE",
"407 755 CURVE SMOOTH",
"379 755 OFFCURVE",
"263 798 OFFCURVE",
"203 798 CURVE SMOOTH",
"147 798 OFFCURVE",
"108 762 OFFCURVE",
"106 670 CURVE",
"182 660 LINE",
"182 660 OFFCURVE",
"198 701 OFFCURVE",
"214 701 CURVE SMOOTH",
"241 701 OFFCURVE",
"359 656 OFFCURVE",
"418 656 CURVE SMOOTH"
);
}
);
width = 612;
}
);
leftKerningGroup = c;
rightKerningGroup = o;
unicode = 00F5;
},
{
glyphname = odieresis;
lastChange = "2018-04-27 22:54:01 +0000";
layers = (
{
components = (
{
name = o;
},
{
name = dieresiscomb;
transform = "{1, 0, 0, 1, 145, 0}";
}
);
layerId = UUID0;
width = 576;
},
{
components = (
{
name = o;
},
{
name = dieresiscomb;
transform = "{1, 0, 0, 1, 115, 0}";
}
);
layerId = "DBD97FAF-1301-49A4-893D-DCFDD4490496";
width = 612;
},
{
associatedMasterId = "DBD97FAF-1301-49A4-893D-DCFDD4490496";
layerId = "3A974B0C-C04F-4780-A00A-514AA89F0C7F";
name = "Feb 28 18, 19:59";
paths = (
{
closed = 1;
nodes = (
"502 -13 OFFCURVE",
"564 105 OFFCURVE",
"564 294 CURVE SMOOTH",
"564 483 OFFCURVE",
"502 601 OFFCURVE",
"307 601 CURVE SMOOTH",
"112 601 OFFCURVE",
"48 483 OFFCURVE",
"48 294 CURVE SMOOTH",
"48 105 OFFCURVE",
"112 -13 OFFCURVE",
"307 -13 CURVE SMOOTH"
);
},
{
closed = 1;
nodes = (
"229 105 OFFCURVE",
"206 141 OFFCURVE",
"206 294 CURVE SMOOTH",
"206 448 OFFCURVE",
"230 483 OFFCURVE",
"307 483 CURVE SMOOTH",
"383 483 OFFCURVE",
"406 448 OFFCURVE",
"406 294 CURVE SMOOTH",
"406 141 OFFCURVE",
"384 105 OFFCURVE",
"307 105 CURVE SMOOTH"
);
},
{
closed = 1;
nodes = (
"259 668 LINE",
"259 776 LINE",
"112 776 LINE",
"112 668 LINE"
);
},
{
closed = 1;
nodes = (
"504 668 LINE",
"504 776 LINE",
"357 776 LINE",
"357 668 LINE"
);
}
);
width = 612;
}
);
leftKerningGroup = c;
rightKerningGroup = o;
unicode = 00F6;
},
{
glyphname = idieresis;
lastChange = "2018-04-27 22:54:01 +0000";
layers = (
{
components = (
{
name = dotlessi;
}
);
layerId = UUID0;
paths = (
{
closed = 1;
nodes = (
"106 684 LINE",
"106 766 LINE",
"7 766 LINE",
"7 684 LINE"
);
},
{
closed = 1;
nodes = (
"288 684 LINE",
"288 766 LINE",
"190 766 LINE",
"190 684 LINE"
);
}
);
width = 295;
},
{
components = (
{
name = dotlessi;
}
);
layerId = "DBD97FAF-1301-49A4-893D-DCFDD4490496";
paths = (
{
closed = 1;
nodes = (
"132 668 LINE",
"132 776 LINE",
"-15 776 LINE",
"-15 668 LINE"
);
},
{
closed = 1;
nodes = (
"337 668 LINE",
"337 776 LINE",
"190 776 LINE",
"190 668 LINE"
);
}
);
width = 323;
}
);
leftKerningGroup = i;
rightKerningGroup = i;
unicode = 00EF;
},
{
glyphname = icircumflex;
lastChange = "2018-04-27 22:54:01 +0000";
layers = (
{
components = (
{
name = dotlessi;
}
);
layerId = UUID0;
paths = (
{
closed = 1;
nodes = (
"144 730 LINE",
"152 730 LINE",
"256 660 LINE",
"288 693 LINE",
"174 802 LINE",
"121 802 LINE",
"7 693 LINE",
"40 660 LINE"
);
}
);
width = 295;
},
{
components = (
{
name = dotlessi;
}
);
layerId = "DBD97FAF-1301-49A4-893D-DCFDD4490496";
paths = (
{
closed = 1;
nodes = (
"159 701 LINE",
"166 701 LINE",
"313 640 LINE",
"346 702 LINE",
"199 803 LINE",
"126 803 LINE",
"-21 702 LINE",
"12 640 LINE"
);
}
);
width = 323;
}
);
leftKerningGroup = i;
rightKerningGroup = i;
unicode = 00EE;
},
{
glyphname = iacute;
lastChange = "2018-04-27 22:54:01 +0000";
layers = (
{
components = (
{
name = dotlessi;
}
);
layerId = UUID0;
paths = (
{
closed = 1;
nodes = (
"291 734 LINE",
"264 802 LINE",
"51 707 LINE",
"71 657 LINE"
);
}
);
width = 295;
},
{
components = (
{
name = dotlessi;
}
);
layerId = "DBD97FAF-1301-49A4-893D-DCFDD4490496";
paths = (
{
closed = 1;
nodes = (
"326 704 LINE",
"295 816 LINE",
"22 728 LINE",
"44 646 LINE"
);
}
);
width = 323;
}
);
leftKerningGroup = i;
rightKerningGroup = i;
unicode = 00ED;
},
{
glyphname = igrave;
lastChange = "2018-04-27 22:54:01 +0000";
layers = (
{
components = (
{
name = dotlessi;
}
);
layerId = UUID0;
paths = (
{
closed = 1;
nodes = (
"244 707 LINE",
"33 802 LINE",
"5 734 LINE",
"224 657 LINE"
);
}
);
width = 295;
},
{
components = (
{
name = dotlessi;
}
);
layerId = "DBD97FAF-1301-49A4-893D-DCFDD4490496";
paths = (
{
closed = 1;
nodes = (
"290 729 LINE",
"12 811 LINE",
"-14 703 LINE",
"271 646 LINE"
);
}
);
width = 323;
}
);
leftKerningGroup = i;
rightKerningGroup = i;
unicode = 00EC;
},
{
glyphname = edieresis;
lastChange = "2018-04-27 22:54:01 +0000";
layers = (
{
components = (
{
name = e;
},
{
name = dieresiscomb;
transform = "{1, 0, 0, 1, 159, 0}";
}
);
layerId = UUID0;
width = 571;
},
{
components = (
{
name = e;
},
{
name = dieresiscomb;
transform = "{1, 0, 0, 1, 129, 0}";
}
);
layerId = "DBD97FAF-1301-49A4-893D-DCFDD4490496";
width = 611;
},
{
associatedMasterId = "DBD97FAF-1301-49A4-893D-DCFDD4490496";
layerId = "C51EC447-10D1-42BB-B8BF-F042821BF5CC";
name = "Feb 28 18, 20:01";
paths = (
{
closed = 1;
nodes = (
"434 -13 OFFCURVE",
"550 41 OFFCURVE",
"550 41 CURVE",
"512 153 LINE",
"512 153 OFFCURVE",
"380 110 OFFCURVE",
"302 110 CURVE SMOOTH",
"273 110 OFFCURVE",
"253 117 OFFCURVE",
"240 129 CURVE SMOOTH",
"226 141 OFFCURVE",
"209 172 OFFCURVE",
"209 240 CURVE",
"561 240 LINE",
"561 323 LINE SMOOTH",
"561 528 OFFCURVE",
"473 601 OFFCURVE",
"318 601 CURVE SMOOTH",
"166 601 OFFCURVE",
"48 529 OFFCURVE",
"48 295 CURVE SMOOTH",
"48 69 OFFCURVE",
"157 -13 OFFCURVE",
"320 -13 CURVE SMOOTH"
);
},
{
closed = 1;
nodes = (
"212 401 OFFCURVE",
"221 436 OFFCURVE",
"236 453 CURVE SMOOTH",
"249 468 OFFCURVE",
"271 479 OFFCURVE",
"318 479 CURVE SMOOTH",
"361 479 OFFCURVE",
"376 468 OFFCURVE",
"385 457 CURVE SMOOTH",
"397 441 OFFCURVE",
"402 407 OFFCURVE",
"403 356 CURVE",
"210 352 LINE"
);
},
{
closed = 1;
nodes = (
"259 668 LINE",
"259 776 LINE",
"112 776 LINE",
"112 668 LINE"
);
},
{
closed = 1;
nodes = (
"504 668 LINE",
"504 776 LINE",
"357 776 LINE",
"357 668 LINE"
);
}
);
width = 604;
}
);
leftKerningGroup = c;
rightKerningGroup = e;
unicode = 00EB;
},
{
glyphname = ecircumflex;
lastChange = "2018-04-27 22:54:01 +0000";
layers = (
{
components = (
{
name = e;
},
{
name = circumflexcomb;
transform = "{1, 0, 0, 1, 155, 0}";
}
);
layerId = UUID0;
width = 571;
},
{
components = (
{
name = e;
},
{
name = circumflexcomb;
transform = "{1, 0, 0, 1, 116, 0}";
}
);
layerId = "DBD97FAF-1301-49A4-893D-DCFDD4490496";
width = 611;
},
{
associatedMasterId = "DBD97FAF-1301-49A4-893D-DCFDD4490496";
layerId = "B73D2667-9294-4040-AEFC-F41B8A848F9A";
name = "Feb 28 18, 20:01";
paths = (
{
closed = 1;
nodes = (
"434 -13 OFFCURVE",
"550 41 OFFCURVE",
"550 41 CURVE",
"512 153 LINE",
"512 153 OFFCURVE",
"380 110 OFFCURVE",
"302 110 CURVE SMOOTH",
"273 110 OFFCURVE",
"253 117 OFFCURVE",
"240 129 CURVE SMOOTH",
"226 141 OFFCURVE",
"209 172 OFFCURVE",
"209 240 CURVE",
"561 240 LINE",
"561 323 LINE SMOOTH",
"561 528 OFFCURVE",
"473 601 OFFCURVE",
"318 601 CURVE SMOOTH",
"166 601 OFFCURVE",
"48 529 OFFCURVE",
"48 295 CURVE SMOOTH",
"48 69 OFFCURVE",
"157 -13 OFFCURVE",
"320 -13 CURVE SMOOTH"
);
},
{
closed = 1;
nodes = (
"212 401 OFFCURVE",
"221 436 OFFCURVE",
"236 453 CURVE SMOOTH",
"249 468 OFFCURVE",
"271 479 OFFCURVE",
"318 479 CURVE SMOOTH",
"361 479 OFFCURVE",
"376 468 OFFCURVE",
"385 457 CURVE SMOOTH",
"397 441 OFFCURVE",
"402 407 OFFCURVE",
"403 356 CURVE",
"210 352 LINE"
);
},
{
closed = 1;
nodes = (
"312 705 LINE",
"319 705 LINE",
"486 641 LINE",
"519 702 LINE",
"352 807 LINE",
"279 807 LINE",
"112 702 LINE",
"145 641 LINE"
);
}
);
width = 604;
}
);
leftKerningGroup = c;
rightKerningGroup = e;
unicode = 00EA;
},
{
glyphname = eacute;
lastChange = "2018-04-27 22:54:01 +0000";
layers = (
{
components = (
{
name = e;
},
{
name = acutecomb;
transform = "{1, 0, 0, 1, 175, 0}";
}
);
layerId = UUID0;
width = 571;
},
{
components = (
{
name = e;
},
{
name = acutecomb;
transform = "{1, 0, 0, 1, 153, 0}";
}
);
layerId = "DBD97FAF-1301-49A4-893D-DCFDD4490496";
width = 611;
},
{
associatedMasterId = "DBD97FAF-1301-49A4-893D-DCFDD4490496";
layerId = "B9967F60-0790-4ED5-8712-C0086065E340";
name = "Feb 28 18, 20:02";
paths = (
{
closed = 1;
nodes = (
"434 -13 OFFCURVE",
"550 41 OFFCURVE",
"550 41 CURVE",
"512 153 LINE",
"512 153 OFFCURVE",
"380 110 OFFCURVE",
"302 110 CURVE SMOOTH",
"273 110 OFFCURVE",
"253 117 OFFCURVE",
"240 129 CURVE SMOOTH",
"226 141 OFFCURVE",
"209 172 OFFCURVE",
"209 240 CURVE",
"561 240 LINE",
"561 323 LINE SMOOTH",
"561 528 OFFCURVE",
"473 601 OFFCURVE",
"318 601 CURVE SMOOTH",
"166 601 OFFCURVE",
"48 529 OFFCURVE",
"48 295 CURVE SMOOTH",
"48 69 OFFCURVE",
"157 -13 OFFCURVE",
"320 -13 CURVE SMOOTH"
);
},
{
closed = 1;
nodes = (
"212 401 OFFCURVE",
"221 436 OFFCURVE",
"236 453 CURVE SMOOTH",
"249 468 OFFCURVE",
"271 479 OFFCURVE",
"318 479 CURVE SMOOTH",
"361 479 OFFCURVE",
"376 468 OFFCURVE",
"385 457 CURVE SMOOTH",
"397 441 OFFCURVE",
"402 407 OFFCURVE",
"403 356 CURVE",
"210 352 LINE"
);
},
{
closed = 1;
nodes = (
"482 704 LINE",
"451 816 LINE",
"158 729 LINE",
"180 646 LINE"
);
}
);
width = 604;
}
);
leftKerningGroup = c;
rightKerningGroup = e;
unicode = 00E9;
},
{
glyphname = egrave;
lastChange = "2018-04-28 09:18:27 +0000";
layers = (
{
components = (
{
name = e;
},
{
name = gravecomb;
transform = "{1, 0, 0, 1, 176, 0}";
}
);
layerId = UUID0;
width = 571;
},
{
components = (
{
name = e;
},
{
name = gravecomb;
transform = "{1, 0, 0, 1, 158, 0}";
}
);
layerId = "DBD97FAF-1301-49A4-893D-DCFDD4490496";
width = 611;
},
{
associatedMasterId = "DBD97FAF-1301-49A4-893D-DCFDD4490496";
layerId = "C1FE5682-68C1-4492-B19D-845E9CEB571C";
name = "Feb 28 18, 20:02";
paths = (
{
closed = 1;
nodes = (
"434 -13 OFFCURVE",
"550 41 OFFCURVE",
"550 41 CURVE",
"512 153 LINE",
"512 153 OFFCURVE",
"380 110 OFFCURVE",
"302 110 CURVE SMOOTH",
"273 110 OFFCURVE",
"253 117 OFFCURVE",
"240 129 CURVE SMOOTH",
"226 141 OFFCURVE",
"209 172 OFFCURVE",
"209 240 CURVE",
"561 240 LINE",
"561 323 LINE SMOOTH",
"561 528 OFFCURVE",
"473 601 OFFCURVE",
"318 601 CURVE SMOOTH",
"166 601 OFFCURVE",
"48 529 OFFCURVE",
"48 295 CURVE SMOOTH",
"48 69 OFFCURVE",
"157 -13 OFFCURVE",
"320 -13 CURVE SMOOTH"
);
},
{
closed = 1;
nodes = (
"212 401 OFFCURVE",
"221 436 OFFCURVE",
"236 453 CURVE SMOOTH",
"249 468 OFFCURVE",
"271 479 OFFCURVE",
"318 479 CURVE SMOOTH",
"361 479 OFFCURVE",
"376 468 OFFCURVE",
"385 457 CURVE SMOOTH",
"397 441 OFFCURVE",
"402 407 OFFCURVE",
"403 356 CURVE",
"210 352 LINE"
);
},
{
closed = 1;
nodes = (
"472 729 LINE",
"174 812 LINE",
"148 704 LINE",
"453 646 LINE"
);
}
);
width = 604;
}
);
leftKerningGroup = c;
rightKerningGroup = e;
unicode = 00E8;
},
{
glyphname = atilde;
lastChange = "2018-04-27 22:54:01 +0000";
layers = (
{
components = (
{
name = a;
},
{
name = tildecomb;
transform = "{1, 0, 0, 1, 124, 0}";
}
);
layerId = UUID0;
width = 569;
},
{
components = (
{
name = a;
},
{
name = tildecomb;
transform = "{1, 0, 0, 1, 107, 0}";
}
);
layerId = "DBD97FAF-1301-49A4-893D-DCFDD4490496";
width = 622;
},
{
associatedMasterId = "DBD97FAF-1301-49A4-893D-DCFDD4490496";
layerId = "F9BAADB0-B0B9-4C15-94B6-27C3E3FE9D23";
name = "Feb 28 18, 20:02";
paths = (
{
closed = 1;
nodes = (
"322 -13 OFFCURVE",
"425 65 OFFCURVE",
"425 65 CURVE",
"431 65 LINE",
"451 0 LINE",
"549 0 LINE",
"549 380 LINE SMOOTH",
"549 517 OFFCURVE",
"491 601 OFFCURVE",
"320 601 CURVE SMOOTH",
"185 601 OFFCURVE",
"66 549 OFFCURVE",
"66 549 CURVE",
"98 437 LINE",
"98 437 OFFCURVE",
"224 477 OFFCURVE",
"319 477 CURVE SMOOTH",
"366 477 OFFCURVE",
"375 467 OFFCURVE",
"381 458 CURVE SMOOTH",
"388 447 OFFCURVE",
"394 428 OFFCURVE",
"394 371 CURVE",
"319 371 LINE SMOOTH",
"155 371 OFFCURVE",
"51 324 OFFCURVE",
"51 179 CURVE SMOOTH",
"51 56 OFFCURVE",
"126 -13 OFFCURVE",
"222 -13 CURVE SMOOTH"
);
},
{
closed = 1;
nodes = (
"225 114 OFFCURVE",
"209 135 OFFCURVE",
"209 185 CURVE SMOOTH",
"209 220 OFFCURVE",
"217 238 OFFCURVE",
"226 246 CURVE SMOOTH",
"238 257 OFFCURVE",
"262 261 OFFCURVE",
"308 261 CURVE SMOOTH",
"359 261 OFFCURVE",
"394 256 OFFCURVE",
"394 256 CURVE",
"394 152 LINE",
"394 152 OFFCURVE",
"323 114 OFFCURVE",
"267 114 CURVE SMOOTH"
);
},
{
closed = 1;
nodes = (
"462 656 OFFCURVE",
"499 692 OFFCURVE",
"501 783 CURVE",
"426 795 LINE",
"426 795 OFFCURVE",
"411 755 OFFCURVE",
"395 755 CURVE SMOOTH",
"367 755 OFFCURVE",
"251 798 OFFCURVE",
"191 798 CURVE SMOOTH",
"135 798 OFFCURVE",
"96 762 OFFCURVE",
"94 670 CURVE",
"170 660 LINE",
"170 660 OFFCURVE",
"186 701 OFFCURVE",
"202 701 CURVE SMOOTH",
"229 701 OFFCURVE",
"347 656 OFFCURVE",
"406 656 CURVE SMOOTH"
);
}
);
width = 622;
}
);
leftKerningGroup = a;
rightKerningGroup = a;
unicode = 00E3;
},
{
glyphname = adieresis;
lastChange = "2018-04-27 22:54:01 +0000";
layers = (
{
components = (
{
name = a;
},
{
name = dieresiscomb;
transform = "{1, 0, 0, 1, 134, 0}";
}
);
layerId = UUID0;
width = 569;
},
{
components = (
{
name = a;
},
{
name = dieresiscomb;
transform = "{1, 0, 0, 1, 120, 0}";
}
);
layerId = "DBD97FAF-1301-49A4-893D-DCFDD4490496";
width = 622;
},
{
associatedMasterId = "DBD97FAF-1301-49A4-893D-DCFDD4490496";
layerId = "90A533FC-131A-4CD1-91C2-C3BFED1E4898";
name = "Feb 28 18, 20:02";
paths = (
{
closed = 1;
nodes = (
"322 -13 OFFCURVE",
"425 65 OFFCURVE",
"425 65 CURVE",
"431 65 LINE",
"451 0 LINE",
"549 0 LINE",
"549 380 LINE SMOOTH",
"549 517 OFFCURVE",
"491 601 OFFCURVE",
"320 601 CURVE SMOOTH",
"185 601 OFFCURVE",
"66 549 OFFCURVE",
"66 549 CURVE",
"98 437 LINE",
"98 437 OFFCURVE",
"224 477 OFFCURVE",
"319 477 CURVE SMOOTH",
"366 477 OFFCURVE",
"375 467 OFFCURVE",
"381 458 CURVE SMOOTH",
"388 447 OFFCURVE",
"394 428 OFFCURVE",
"394 371 CURVE",
"319 371 LINE SMOOTH",
"155 371 OFFCURVE",
"51 324 OFFCURVE",
"51 179 CURVE SMOOTH",
"51 56 OFFCURVE",
"126 -13 OFFCURVE",
"222 -13 CURVE SMOOTH"
);
},
{
closed = 1;
nodes = (
"225 114 OFFCURVE",
"209 135 OFFCURVE",
"209 185 CURVE SMOOTH",
"209 220 OFFCURVE",
"217 238 OFFCURVE",
"226 246 CURVE SMOOTH",
"238 257 OFFCURVE",
"262 261 OFFCURVE",
"308 261 CURVE SMOOTH",
"359 261 OFFCURVE",
"394 256 OFFCURVE",
"394 256 CURVE",
"394 152 LINE",
"394 152 OFFCURVE",
"323 114 OFFCURVE",
"267 114 CURVE SMOOTH"
);
},
{
closed = 1;
nodes = (
"255 668 LINE",
"255 776 LINE",
"108 776 LINE",
"108 668 LINE"
);
},
{
closed = 1;
nodes = (
"500 668 LINE",
"500 776 LINE",
"353 776 LINE",
"353 668 LINE"
);
}
);
width = 622;
}
);
leftKerningGroup = a;
rightKerningGroup = a;
unicode = 00E4;
},
{
glyphname = ugrave;
lastChange = "2018-04-27 22:54:01 +0000";
layers = (
{
components = (
{
name = u;
},
{
name = gravecomb;
transform = "{1, 0, 0, 1, 174, 0}";
}
);
layerId = UUID0;
width = 600;
},
{
components = (
{
name = u;
},
{
name = gravecomb;
transform = "{1, 0, 0, 1, 154, 0}";
}
);
layerId = "DBD97FAF-1301-49A4-893D-DCFDD4490496";
width = 632;
},
{
associatedMasterId = "DBD97FAF-1301-49A4-893D-DCFDD4490496";
layerId = "DCF7D7A8-6CE2-4D0C-B111-D21EF8F34B10";
name = "Feb 28 18, 20:03";
paths = (
{
closed = 1;
nodes = (
"305 -13 OFFCURVE",
"376 29 OFFCURVE",
"429 61 CURVE",
"435 61 LINE",
"454 0 LINE",
"553 0 LINE",
"553 588 LINE",
"398 588 LINE",
"398 164 LINE",
"366 142 OFFCURVE",
"315 122 OFFCURVE",
"276 122 CURVE SMOOTH",
"257 122 OFFCURVE",
"244 125 OFFCURVE",
"234 134 CURVE SMOOTH",
"224 143 OFFCURVE",
"221 163 OFFCURVE",
"221 220 CURVE SMOOTH",
"221 588 LINE",
"66 588 LINE",
"66 205 LINE SMOOTH",
"66 81 OFFCURVE",
"96 -13 OFFCURVE",
"230 -13 CURVE SMOOTH"
);
},
{
closed = 1;
nodes = (
"451 729 LINE",
"153 812 LINE",
"127 704 LINE",
"432 646 LINE"
);
}
);
width = 632;
}
);
leftKerningGroup = u;
rightKerningGroup = u;
unicode = 00F9;
},
{
glyphname = uacute;
lastChange = "2018-04-27 22:54:01 +0000";
layers = (
{
components = (
{
name = u;
},
{
name = acutecomb;
transform = "{1, 0, 0, 1, 173, 0}";
}
);
layerId = UUID0;
width = 600;
},
{
components = (
{
name = u;
},
{
alignment = -1;
name = acutecomb;
transform = "{1, 0, 0, 1, 159, 0}";
}
);
layerId = "DBD97FAF-1301-49A4-893D-DCFDD4490496";
width = 632;
},
{
associatedMasterId = "DBD97FAF-1301-49A4-893D-DCFDD4490496";
layerId = "5C9DC273-45AB-4489-85E1-D5384A44FDAF";
name = "Feb 28 18, 20:03";
paths = (
{
closed = 1;
nodes = (
"305 -13 OFFCURVE",
"376 29 OFFCURVE",
"429 61 CURVE",
"435 61 LINE",
"454 0 LINE",
"553 0 LINE",
"553 588 LINE",
"398 588 LINE",
"398 164 LINE",
"366 142 OFFCURVE",
"315 122 OFFCURVE",
"276 122 CURVE SMOOTH",
"257 122 OFFCURVE",
"244 125 OFFCURVE",
"234 134 CURVE SMOOTH",
"224 143 OFFCURVE",
"221 163 OFFCURVE",
"221 220 CURVE SMOOTH",
"221 588 LINE",
"66 588 LINE",
"66 205 LINE SMOOTH",
"66 81 OFFCURVE",
"96 -13 OFFCURVE",
"230 -13 CURVE SMOOTH"
);
},
{
closed = 1;
nodes = (
"490 704 LINE",
"459 816 LINE",
"166 729 LINE",
"188 646 LINE"
);
}
);
width = 632;
}
);
leftKerningGroup = u;
rightKerningGroup = u;
unicode = 00FA;
},
{
glyphname = ucircumflex;
lastChange = "2018-04-27 22:54:01 +0000";
layers = (
{
components = (
{
name = u;
},
{
name = circumflexcomb;
transform = "{1, 0, 0, 1, 153, 0}";
}
);
layerId = UUID0;
width = 600;
},
{
components = (
{
name = u;
},
{
name = circumflexcomb;
transform = "{1, 0, 0, 1, 112, 0}";
}
);
layerId = "DBD97FAF-1301-49A4-893D-DCFDD4490496";
width = 632;
},
{
associatedMasterId = "DBD97FAF-1301-49A4-893D-DCFDD4490496";
layerId = "29EBE7B7-1D0F-4688-8CD8-892275BB22CF";
name = "Feb 28 18, 20:03";
paths = (
{
closed = 1;
nodes = (
"305 -13 OFFCURVE",
"376 29 OFFCURVE",
"429 61 CURVE",
"435 61 LINE",
"454 0 LINE",
"553 0 LINE",
"553 588 LINE",
"398 588 LINE",
"398 164 LINE",
"366 142 OFFCURVE",
"315 122 OFFCURVE",
"276 122 CURVE SMOOTH",
"257 122 OFFCURVE",
"244 125 OFFCURVE",
"234 134 CURVE SMOOTH",
"224 143 OFFCURVE",
"221 163 OFFCURVE",
"221 220 CURVE SMOOTH",
"221 588 LINE",
"66 588 LINE",
"66 205 LINE SMOOTH",
"66 81 OFFCURVE",
"96 -13 OFFCURVE",
"230 -13 CURVE SMOOTH"
);
},
{
closed = 1;
nodes = (
"309 705 LINE",
"316 705 LINE",
"483 641 LINE",
"516 702 LINE",
"349 807 LINE",
"276 807 LINE",
"109 702 LINE",
"142 641 LINE"
);
}
);
width = 632;
}
);
leftKerningGroup = u;
rightKerningGroup = u;
unicode = 00FB;
},
{
glyphname = udieresis;
lastChange = "2018-04-27 22:54:01 +0000";
layers = (
{
components = (
{
name = u;
},
{
alignment = 1;
name = dieresiscomb;
transform = "{1, 0, 0, 1, 157, 0}";
}
);
layerId = UUID0;
width = 600;
},
{
components = (
{
alignment = -1;
name = u;
},
{
alignment = -1;
name = dieresiscomb;
transform = "{1, 0, 0, 1, 121, 0}";
}
);
layerId = "DBD97FAF-1301-49A4-893D-DCFDD4490496";
width = 632;
},
{
associatedMasterId = "DBD97FAF-1301-49A4-893D-DCFDD4490496";
layerId = "CDBC9D06-2808-45EA-B791-A69AEE4552D8";
name = "Feb 28 18, 20:03";
paths = (
{
closed = 1;
nodes = (
"305 -13 OFFCURVE",
"376 29 OFFCURVE",
"429 61 CURVE",
"435 61 LINE",
"454 0 LINE",
"553 0 LINE",
"553 588 LINE",
"398 588 LINE",
"398 164 LINE",
"366 142 OFFCURVE",
"315 122 OFFCURVE",
"276 122 CURVE SMOOTH",
"257 122 OFFCURVE",
"244 125 OFFCURVE",
"234 134 CURVE SMOOTH",
"224 143 OFFCURVE",
"221 163 OFFCURVE",
"221 220 CURVE SMOOTH",
"221 588 LINE",
"66 588 LINE",
"66 205 LINE SMOOTH",
"66 81 OFFCURVE",
"96 -13 OFFCURVE",
"230 -13 CURVE SMOOTH"
);
},
{
closed = 1;
nodes = (
"260 668 LINE",
"260 776 LINE",
"113 776 LINE",
"113 668 LINE"
);
},
{
closed = 1;
nodes = (
"505 668 LINE",
"505 776 LINE",
"358 776 LINE",
"358 668 LINE"
);
}
);
width = 632;
}
);
leftKerningGroup = u;
rightKerningGroup = u;
unicode = 00FC;
},
{
glyphname = yacute;
lastChange = "2018-04-27 22:54:01 +0000";
layers = (
{
components = (
{
name = y;
},
{
name = acutecomb;
transform = "{1, 0, 0, 1, 113, 0}";
}
);
layerId = UUID0;
width = 479;
},
{
components = (
{
alignment = -1;
name = y;
},
{
alignment = -1;
name = acutecomb;
transform = "{1, 0, 0, 1, 126, 0}";
}
);
layerId = "DBD97FAF-1301-49A4-893D-DCFDD4490496";
width = 540;
},
{
associatedMasterId = "DBD97FAF-1301-49A4-893D-DCFDD4490496";
layerId = "B280F162-3593-4A7B-833A-7A34CF932972";
name = "Feb 28 18, 20:04";
paths = (
{
closed = 1;
nodes = (
"278 -166 LINE",
"334 31 LINE",
"541 588 LINE",
"382 588 LINE",
"277 195 LINE",
"271 195 LINE",
"168 588 LINE",
"-4 588 LINE",
"204 51 LINE",
"117 -166 LINE"
);
},
{
closed = 1;
nodes = (
"461 704 LINE",
"430 816 LINE",
"137 729 LINE",
"159 646 LINE"
);
}
);
width = 540;
}
);
leftKerningGroup = y;
rightKerningGroup = y;
unicode = 00FD;
},
{
glyphname = Aring;
lastChange = "2018-04-27 22:54:01 +0000";
layers = (
{
components = (
{
name = A;
},
{
name = ringcomb.case;
transform = "{1, 0, 0, 1, 169, 0}";
}
);
layerId = UUID0;
width = 506;
},
{
components = (
{
name = A;
},
{
name = ringcomb.case;
transform = "{1, 0, 0, 1, 180, 0}";
}
);
layerId = "DBD97FAF-1301-49A4-893D-DCFDD4490496";
width = 573;
},
{
associatedMasterId = "DBD97FAF-1301-49A4-893D-DCFDD4490496";
layerId = "7FEC4419-1FC7-430B-8AB5-B59BB57B568A";
name = "Feb 28 18, 19:11";
paths = (
{
closed = 1;
nodes = (
"148 0 LINE",
"188 156 LINE",
"380 156 LINE",
"420 0 LINE",
"579 0 LINE",
"378 703 LINE",
"190 703 LINE",
"-11 0 LINE"
);
},
{
closed = 1;
nodes = (
"281 559 LINE",
"287 559 LINE",
"350 288 LINE",
"218 288 LINE"
);
},
{
closed = 1;
nodes = (
"338 733 OFFCURVE",
"391 754 OFFCURVE",
"391 827 CURVE SMOOTH",
"391 902 OFFCURVE",
"338 922 OFFCURVE",
"285 922 CURVE SMOOTH",
"233 922 OFFCURVE",
"178 902 OFFCURVE",
"178 827 CURVE SMOOTH",
"178 754 OFFCURVE",
"233 733 OFFCURVE",
"285 733 CURVE SMOOTH"
);
},
{
closed = 1;
nodes = (
"260 797 OFFCURVE",
"249 804 OFFCURVE",
"249 827 CURVE SMOOTH",
"249 852 OFFCURVE",
"260 857 OFFCURVE",
"285 857 CURVE SMOOTH",
"310 857 OFFCURVE",
"320 852 OFFCURVE",
"320 827 CURVE SMOOTH",
"320 804 OFFCURVE",
"310 797 OFFCURVE",
"285 797 CURVE SMOOTH"
);
}
);
visible = 1;
width = 573;
}
);
leftKerningGroup = A;
rightKerningGroup = A;
unicode = 00C5;
},
{
glyphname = Aacute;
lastChange = "2018-04-27 22:54:01 +0000";
layers = (
{
components = (
{
name = A;
},
{
name = acutecomb.case;
transform = "{1, 0, 0, 1, 136, 0}";
}
);
layerId = UUID0;
width = 506;
},
{
components = (
{
name = A;
},
{
name = acutecomb.case;
transform = "{1, 0, 0, 1, 141, 0}";
}
);
layerId = "DBD97FAF-1301-49A4-893D-DCFDD4490496";
width = 573;
},
{
associatedMasterId = "DBD97FAF-1301-49A4-893D-DCFDD4490496";
layerId = "E34642D1-0EBF-43B0-8C00-98B895BCDD59";
name = "Feb 28 18, 19:12";
paths = (
{
closed = 1;
nodes = (
"148 0 LINE",
"188 156 LINE",
"380 156 LINE",
"420 0 LINE",
"579 0 LINE",
"378 703 LINE",
"190 703 LINE",
"-11 0 LINE"
);
},
{
closed = 1;
nodes = (
"281 559 LINE",
"287 559 LINE",
"350 288 LINE",
"218 288 LINE"
);
},
{
closed = 1;
nodes = (
"458 800 LINE",
"430 910 LINE",
"136 833 LINE",
"156 750 LINE"
);
}
);
visible = 1;
width = 573;
}
);
leftKerningGroup = A;
rightKerningGroup = A;
unicode = 00C1;
},
{
glyphname = five;
lastChange = "2018-04-27 22:54:01 +0000";
layers = (
{
layerId = UUID0;
paths = (
{
closed = 1;
nodes = (
"372 -13 OFFCURVE",
"452 67 OFFCURVE",
"452 205 CURVE SMOOTH",
"452 375 OFFCURVE",
"329 406 OFFCURVE",
"167 413 CURVE",
"196 626 LINE",
"421 622 LINE",
"421 695 LINE",
"126 695 LINE",
"75 336 LINE",
"75 336 OFFCURVE",
"110 338 OFFCURVE",
"154 338 CURVE SMOOTH",
"243 338 OFFCURVE",
"313 330 OFFCURVE",
"335 308 CURVE SMOOTH",
"354 290 OFFCURVE",
"364 239 OFFCURVE",
"364 197 CURVE SMOOTH",
"364 150 OFFCURVE",
"351 94 OFFCURVE",
"326 77 CURVE SMOOTH",
"312 68 OFFCURVE",
"285 62 OFFCURVE",
"256 62 CURVE SMOOTH",
"163 62 OFFCURVE",
"59 123 OFFCURVE",
"59 123 CURVE",
"27 60 LINE",
"27 60 OFFCURVE",
"119 -13 OFFCURVE",
"243 -13 CURVE SMOOTH"
);
}
);
width = 509;
},
{
layerId = "DBD97FAF-1301-49A4-893D-DCFDD4490496";
paths = (
{
closed = 1;
nodes = (
"421 -13 OFFCURVE",
"517 73 OFFCURVE",
"517 221 CURVE SMOOTH",
"517 390 OFFCURVE",
"394 433 OFFCURVE",
"227 444 CURVE",
"247 577 LINE",
"486 573 LINE",
"486 703 LINE",
"117 703 LINE",
"56 314 LINE",
"56 314 OFFCURVE",
"136 316 OFFCURVE",
"174 316 CURVE SMOOTH",
"277 316 OFFCURVE",
"317 306 OFFCURVE",
"334 292 CURVE SMOOTH",
"347 282 OFFCURVE",
"356 249 OFFCURVE",
"356 215 CURVE SMOOTH",
"356 177 OFFCURVE",
"348 147 OFFCURVE",
"333 136 CURVE SMOOTH",
"322 128 OFFCURVE",
"302 123 OFFCURVE",
"280 123 CURVE SMOOTH",
"195 123 OFFCURVE",
"51 180 OFFCURVE",
"51 180 CURVE",
"5 66 LINE",
"5 66 OFFCURVE",
"125 -13 OFFCURVE",
"266 -13 CURVE SMOOTH"
);
}
);
width = 552;
}
);
unicode = 0035;
},
{
glyphname = Ntilde;
lastChange = "2018-04-27 22:54:01 +0000";
layers = (
{
components = (
{
name = N;
},
{
name = tildecomb.case;
transform = "{1, 0, 0, 1, 166, 0}";
}
);
layerId = UUID0;
width = 680;
},
{
components = (
{
name = N;
},
{
name = tildecomb.case;
transform = "{1, 0, 0, 1, 165, 0}";
}
);
layerId = "DBD97FAF-1301-49A4-893D-DCFDD4490496";
width = 716;
},
{
associatedMasterId = "DBD97FAF-1301-49A4-893D-DCFDD4490496";
layerId = "ADF497D1-3E87-493E-8B99-56F4EF2367D2";
name = "Feb 28 18, 19:14";
paths = (
{
closed = 1;
nodes = (
"228 0 LINE",
"216 499 LINE",
"222 499 LINE",
"439 0 LINE",
"635 0 LINE",
"635 703 LINE",
"490 703 LINE",
"502 204 LINE",
"496 204 LINE",
"279 703 LINE",
"83 703 LINE",
"83 0 LINE"
);
},
{
closed = 1;
nodes = (
"521 746 OFFCURVE",
"558 782 OFFCURVE",
"560 871 CURVE",
"485 883 LINE",
"485 883 OFFCURVE",
"470 843 OFFCURVE",
"454 843 CURVE SMOOTH",
"426 843 OFFCURVE",
"310 886 OFFCURVE",
"250 886 CURVE SMOOTH",
"194 886 OFFCURVE",
"155 850 OFFCURVE",
"153 760 CURVE",
"229 750 LINE",
"229 750 OFFCURVE",
"245 791 OFFCURVE",
"261 791 CURVE SMOOTH",
"288 791 OFFCURVE",
"406 746 OFFCURVE",
"465 746 CURVE SMOOTH"
);
}
);
width = 716;
}
);
leftKerningGroup = B;
rightKerningGroup = H;
unicode = 00D1;
},
{
glyphname = zero;
lastChange = "2018-04-27 22:54:01 +0000";
layers = (
{
layerId = UUID0;
paths = (
{
closed = 1;
nodes = (
"414 -13 OFFCURVE",
"512 56 OFFCURVE",
"512 349 CURVE SMOOTH",
"512 640 OFFCURVE",
"414 708 OFFCURVE",
"286 708 CURVE SMOOTH",
"159 708 OFFCURVE",
"60 640 OFFCURVE",
"60 349 CURVE SMOOTH",
"60 56 OFFCURVE",
"159 -13 OFFCURVE",
"286 -13 CURVE SMOOTH"
);
},
{
closed = 1;
nodes = (
"194 63 OFFCURVE",
"147 121 OFFCURVE",
"147 351 CURVE SMOOTH",
"147 587 OFFCURVE",
"197 633 OFFCURVE",
"286 633 CURVE SMOOTH",
"374 633 OFFCURVE",
"426 587 OFFCURVE",
"426 349 CURVE SMOOTH",
"426 118 OFFCURVE",
"378 63 OFFCURVE",
"287 63 CURVE SMOOTH"
);
}
);
width = 572;
},
{
layerId = "DBD97FAF-1301-49A4-893D-DCFDD4490496";
paths = (
{
closed = 1;
nodes = (
"459 -13 OFFCURVE",
"576 56 OFFCURVE",
"576 352 CURVE SMOOTH",
"576 647 OFFCURVE",
"459 716 OFFCURVE",
"307 716 CURVE SMOOTH",
"156 716 OFFCURVE",
"38 647 OFFCURVE",
"38 352 CURVE SMOOTH",
"38 56 OFFCURVE",
"156 -13 OFFCURVE",
"307 -13 CURVE SMOOTH"
);
},
{
closed = 1;
nodes = (
"235 118 OFFCURVE",
"198 164 OFFCURVE",
"198 354 CURVE SMOOTH",
"198 546 OFFCURVE",
"237 585 OFFCURVE",
"307 585 CURVE SMOOTH",
"376 585 OFFCURVE",
"417 546 OFFCURVE",
"417 352 CURVE SMOOTH",
"417 161 OFFCURVE",
"380 118 OFFCURVE",
"308 118 CURVE SMOOTH"
);
}
);
width = 614;
}
);
unicode = 0030;
},
{
glyphname = Odieresis;
lastChange = "2018-04-27 22:54:01 +0000";
layers = (
{
components = (
{
name = O;
},
{
name = dieresiscomb.case;
transform = "{1, 0, 0, 1, 185, 0}";
}
);
layerId = UUID0;
width = 656;
},
{
components = (
{
name = O;
},
{
name = dieresiscomb.case;
transform = "{1, 0, 0, 1, 158, 0}";
}
);
layerId = "DBD97FAF-1301-49A4-893D-DCFDD4490496";
width = 700;
},
{
associatedMasterId = "DBD97FAF-1301-49A4-893D-DCFDD4490496";
layerId = "8B3F8E43-6054-47CF-9C8B-1727E43EA79D";
name = "Feb 28 18, 19:16";
paths = (
{
closed = 1;
nodes = (
"514 -13 OFFCURVE",
"650 57 OFFCURVE",
"650 353 CURVE SMOOTH",
"650 648 OFFCURVE",
"514 716 OFFCURVE",
"350 716 CURVE SMOOTH",
"186 716 OFFCURVE",
"50 648 OFFCURVE",
"50 353 CURVE SMOOTH",
"50 57 OFFCURVE",
"186 -13 OFFCURVE",
"350 -13 CURVE SMOOTH"
);
},
{
closed = 1;
nodes = (
"255 125 OFFCURVE",
"213 157 OFFCURVE",
"213 351 CURVE SMOOTH",
"213 545 OFFCURVE",
"253 578 OFFCURVE",
"350 578 CURVE SMOOTH",
"447 578 OFFCURVE",
"487 545 OFFCURVE",
"487 351 CURVE SMOOTH",
"487 158 OFFCURVE",
"445 125 OFFCURVE",
"350 125 CURVE SMOOTH"
);
},
{
closed = 1;
nodes = (
"301 766 LINE",
"301 874 LINE",
"154 874 LINE",
"154 766 LINE"
);
},
{
closed = 1;
nodes = (
"546 766 LINE",
"546 874 LINE",
"399 874 LINE",
"399 766 LINE"
);
}
);
width = 700;
}
);
leftKerningGroup = C;
rightKerningGroup = O;
unicode = 00D6;
},
{
glyphname = Otilde;
lastChange = "2018-04-27 22:54:01 +0000";
layers = (
{
components = (
{
name = O;
},
{
name = tildecomb.case;
transform = "{1, 0, 0, 1, 155, 0}";
}
);
layerId = UUID0;
width = 656;
},
{
components = (
{
name = O;
},
{
name = tildecomb.case;
transform = "{1, 0, 0, 1, 157, 0}";
}
);
layerId = "DBD97FAF-1301-49A4-893D-DCFDD4490496";
width = 700;
},
{
associatedMasterId = "DBD97FAF-1301-49A4-893D-DCFDD4490496";
layerId = "91784B2B-EAF4-43B2-86AA-1831E496E75F";
name = "Feb 28 18, 19:17";
paths = (
{
closed = 1;
nodes = (
"514 -13 OFFCURVE",
"650 57 OFFCURVE",
"650 353 CURVE SMOOTH",
"650 648 OFFCURVE",
"514 716 OFFCURVE",
"350 716 CURVE SMOOTH",
"186 716 OFFCURVE",
"50 648 OFFCURVE",
"50 353 CURVE SMOOTH",
"50 57 OFFCURVE",
"186 -13 OFFCURVE",
"350 -13 CURVE SMOOTH"
);
},
{
closed = 1;
nodes = (
"255 125 OFFCURVE",
"213 157 OFFCURVE",
"213 351 CURVE SMOOTH",
"213 545 OFFCURVE",
"253 578 OFFCURVE",
"350 578 CURVE SMOOTH",
"447 578 OFFCURVE",
"487 545 OFFCURVE",
"487 351 CURVE SMOOTH",
"487 158 OFFCURVE",
"445 125 OFFCURVE",
"350 125 CURVE SMOOTH"
);
},
{
closed = 1;
nodes = (
"514 746 OFFCURVE",
"551 782 OFFCURVE",
"553 871 CURVE",
"478 883 LINE",
"478 883 OFFCURVE",
"463 843 OFFCURVE",
"447 843 CURVE SMOOTH",
"419 843 OFFCURVE",
"303 886 OFFCURVE",
"243 886 CURVE SMOOTH",
"187 886 OFFCURVE",
"148 850 OFFCURVE",
"146 760 CURVE",
"222 750 LINE",
"222 750 OFFCURVE",
"238 791 OFFCURVE",
"254 791 CURVE SMOOTH",
"281 791 OFFCURVE",
"399 746 OFFCURVE",
"458 746 CURVE SMOOTH"
);
}
);
width = 700;
}
);
leftKerningGroup = C;
rightKerningGroup = O;
unicode = 00D5;
},
{
glyphname = Oacute;
lastChange = "2018-04-27 22:54:01 +0000";
layers = (
{
components = (
{
name = O;
},
{
name = acutecomb.case;
transform = "{1, 0, 0, 1, 211, 0}";
}
);
layerId = UUID0;
width = 656;
},
{
components = (
{
name = O;
},
{
name = acutecomb.case;
transform = "{1, 0, 0, 1, 204, 0}";
}
);
layerId = "DBD97FAF-1301-49A4-893D-DCFDD4490496";
width = 700;
},
{
associatedMasterId = "DBD97FAF-1301-49A4-893D-DCFDD4490496";
layerId = "FB7E4831-182E-4243-97A0-B9F336276BB2";
name = "Feb 28 18, 19:20";
paths = (
{
closed = 1;
nodes = (
"514 -13 OFFCURVE",
"650 57 OFFCURVE",
"650 353 CURVE SMOOTH",
"650 648 OFFCURVE",
"514 716 OFFCURVE",
"350 716 CURVE SMOOTH",
"186 716 OFFCURVE",
"50 648 OFFCURVE",
"50 353 CURVE SMOOTH",
"50 57 OFFCURVE",
"186 -13 OFFCURVE",
"350 -13 CURVE SMOOTH"
);
},
{
closed = 1;
nodes = (
"255 125 OFFCURVE",
"213 157 OFFCURVE",
"213 351 CURVE SMOOTH",
"213 545 OFFCURVE",
"253 578 OFFCURVE",
"350 578 CURVE SMOOTH",
"447 578 OFFCURVE",
"487 545 OFFCURVE",
"487 351 CURVE SMOOTH",
"487 158 OFFCURVE",
"445 125 OFFCURVE",
"350 125 CURVE SMOOTH"
);
},
{
closed = 1;
nodes = (
"500 800 LINE",
"472 910 LINE",
"178 833 LINE",
"198 750 LINE"
);
}
);
width = 700;
}
);
leftKerningGroup = C;
rightKerningGroup = O;
unicode = 00D3;
},
{
glyphname = Idieresis;
lastChange = "2018-04-27 22:54:01 +0000";
layers = (
{
components = (
{
name = I;
}
);
layerId = UUID0;
paths = (
{
closed = 1;
nodes = (
"116 762 LINE",
"116 844 LINE",
"17 844 LINE",
"17 762 LINE"
);
},
{
closed = 1;
nodes = (
"278 762 LINE",
"278 844 LINE",
"180 844 LINE",
"180 762 LINE"
);
}
);
width = 295;
},
{
components = (
{
name = I;
}
);
layerId = "DBD97FAF-1301-49A4-893D-DCFDD4490496";
paths = (
{
closed = 1;
nodes = (
"124 766 LINE",
"124 874 LINE",
"-19 874 LINE",
"-19 766 LINE"
);
},
{
closed = 1;
nodes = (
"343 766 LINE",
"343 874 LINE",
"200 874 LINE",
"200 766 LINE"
);
}
);
width = 324;
},
{
associatedMasterId = "DBD97FAF-1301-49A4-893D-DCFDD4490496";
layerId = "99ECF77A-DD75-41DC-8A45-3935486C2561";
name = "Feb 28 18, 19:22";
paths = (
{
closed = 1;
nodes = (
"241 0 LINE",
"238 390 LINE",
"241 703 LINE",
"83 703 LINE",
"87 324 LINE",
"83 0 LINE"
);
},
{
closed = 1;
nodes = (
"124 766 LINE",
"124 874 LINE",
"-19 874 LINE",
"-19 766 LINE"
);
},
{
closed = 1;
nodes = (
"343 766 LINE",
"343 874 LINE",
"200 874 LINE",
"200 766 LINE"
);
}
);
width = 324;
}
);
leftKerningGroup = I;
rightKerningGroup = I;
unicode = 00CF;
},
{
glyphname = Icircumflex;
lastChange = "2018-04-27 22:54:01 +0000";
layers = (
{
components = (
{
name = I;
}
);
layerId = UUID0;
paths = (
{
closed = 1;
nodes = (
"144 794 LINE",
"151 794 LINE",
"261 733 LINE",
"287 773 LINE",
"173 866 LINE",
"122 866 LINE",
"8 773 LINE",
"34 733 LINE"
);
}
);
width = 295;
},
{
components = (
{
name = I;
}
);
layerId = "DBD97FAF-1301-49A4-893D-DCFDD4490496";
paths = (
{
closed = 1;
nodes = (
"158 803 LINE",
"165 803 LINE",
"314 750 LINE",
"347 815 LINE",
"198 905 LINE",
"125 905 LINE",
"-25 815 LINE",
"8 750 LINE"
);
}
);
width = 324;
},
{
associatedMasterId = "DBD97FAF-1301-49A4-893D-DCFDD4490496";
layerId = "180F23EC-720D-4A21-B123-6192A515A706";
name = "Feb 28 18, 19:22";
paths = (
{
closed = 1;
nodes = (
"241 0 LINE",
"238 390 LINE",
"241 703 LINE",
"83 703 LINE",
"87 324 LINE",
"83 0 LINE"
);
},
{
closed = 1;
nodes = (
"158 803 LINE",
"165 803 LINE",
"314 750 LINE",
"347 815 LINE",
"198 905 LINE",
"125 905 LINE",
"-25 815 LINE",
"8 750 LINE"
);
}
);
width = 324;
}
);
leftKerningGroup = I;
rightKerningGroup = I;
unicode = 00CE;
},
{
glyphname = Iacute;
lastChange = "2018-04-27 22:54:01 +0000";
layers = (
{
components = (
{
name = I;
}
);
layerId = UUID0;
paths = (
{
closed = 1;
nodes = (
"292 794 LINE",
"264 869 LINE",
"53 789 LINE",
"71 736 LINE"
);
}
);
width = 295;
},
{
components = (
{
name = I;
}
);
layerId = "DBD97FAF-1301-49A4-893D-DCFDD4490496";
paths = (
{
closed = 1;
nodes = (
"339 800 LINE",
"313 910 LINE",
"29 831 LINE",
"47 750 LINE"
);
}
);
width = 324;
},
{
associatedMasterId = "DBD97FAF-1301-49A4-893D-DCFDD4490496";
layerId = "7D7EF87F-2021-4BED-8380-0888E22A5D28";
name = "Feb 28 18, 19:23";
paths = (
{
closed = 1;
nodes = (
"241 0 LINE",
"238 390 LINE",
"241 703 LINE",
"83 703 LINE",
"87 324 LINE",
"83 0 LINE"
);
},
{
closed = 1;
nodes = (
"339 800 LINE",
"313 910 LINE",
"29 833 LINE",
"47 750 LINE"
);
}
);
width = 324;
}
);
leftKerningGroup = I;
rightKerningGroup = I;
unicode = 00CD;
},
{
glyphname = Igrave;
lastChange = "2018-04-27 22:54:01 +0000";
layers = (
{
components = (
{
name = I;
}
);
layerId = UUID0;
paths = (
{
closed = 1;
nodes = (
"247 789 LINE",
"33 868 LINE",
"7 795 LINE",
"227 736 LINE"
);
}
);
width = 295;
},
{
components = (
{
name = I;
}
);
layerId = "DBD97FAF-1301-49A4-893D-DCFDD4490496";
paths = (
{
closed = 1;
nodes = (
"289 832 LINE",
"5 909 LINE",
"-21 799 LINE",
"271 751 LINE"
);
}
);
width = 324;
}
);
leftKerningGroup = I;
rightKerningGroup = I;
unicode = 00CC;
},
{
glyphname = Edieresis;
lastChange = "2018-04-27 22:54:01 +0000";
layers = (
{
components = (
{
name = E;
},
{
name = dieresiscomb.case;
transform = "{1, 0, 0, 1, 133, 0}";
}
);
layerId = UUID0;
width = 514;
},
{
components = (
{
name = E;
},
{
name = dieresiscomb.case;
transform = "{1, 0, 0, 1, 106, 0}";
}
);
layerId = "DBD97FAF-1301-49A4-893D-DCFDD4490496";
width = 551;
},
{
associatedMasterId = "DBD97FAF-1301-49A4-893D-DCFDD4490496";
layerId = "CCD087AB-DBF3-4C07-985E-BF085AD573A9";
name = "Feb 28 18, 19:24";
paths = (
{
closed = 1;
nodes = (
"505 0 LINE",
"505 134 LINE",
"239 132 LINE",
"235 290 LINE",
"480 290 LINE",
"480 422 LINE",
"235 422 LINE",
"239 570 LINE",
"505 567 LINE",
"505 703 LINE",
"83 703 LINE",
"83 0 LINE"
);
},
{
closed = 1;
nodes = (
"246 766 LINE",
"246 874 LINE",
"99 874 LINE",
"99 766 LINE"
);
},
{
closed = 1;
nodes = (
"491 766 LINE",
"491 874 LINE",
"344 874 LINE",
"344 766 LINE"
);
}
);
width = 551;
}
);
leftKerningGroup = B;
rightKerningGroup = E;
unicode = 00CB;
},
{
glyphname = Ecircumflex;
lastChange = "2018-04-27 22:54:01 +0000";
layers = (
{
components = (
{
name = E;
},
{
name = circumflexcomb.case;
transform = "{1, 0, 0, 1, 129, 0}";
}
);
layerId = UUID0;
width = 514;
},
{
components = (
{
name = E;
},
{
name = circumflexcomb.case;
transform = "{1, 0, 0, 1, 93, 0}";
}
);
layerId = "DBD97FAF-1301-49A4-893D-DCFDD4490496";
width = 551;
},
{
associatedMasterId = "DBD97FAF-1301-49A4-893D-DCFDD4490496";
layerId = "B50C3542-4E85-4A12-AFD3-9E2E43EA75DF";
name = "Feb 28 18, 19:25";
paths = (
{
closed = 1;
nodes = (
"505 0 LINE",
"505 134 LINE",
"239 132 LINE",
"235 290 LINE",
"480 290 LINE",
"480 422 LINE",
"235 422 LINE",
"239 570 LINE",
"505 567 LINE",
"505 703 LINE",
"83 703 LINE",
"83 0 LINE"
);
},
{
closed = 1;
nodes = (
"278 803 LINE",
"285 803 LINE",
"452 744 LINE",
"485 805 LINE",
"318 905 LINE",
"245 905 LINE",
"78 805 LINE",
"111 744 LINE"
);
}
);
width = 551;
}
);
leftKerningGroup = B;
rightKerningGroup = E;
unicode = 00CA;
},
{
glyphname = Eacute;
lastChange = "2018-04-27 22:54:01 +0000";
layers = (
{
components = (
{
name = E;
},
{
name = acutecomb.case;
transform = "{1, 0, 0, 1, 159, 0}";
}
);
layerId = UUID0;
width = 514;
},
{
components = (
{
name = E;
},
{
name = acutecomb.case;
transform = "{1, 0, 0, 1, 152, 0}";
}
);
layerId = "DBD97FAF-1301-49A4-893D-DCFDD4490496";
width = 551;
},
{
associatedMasterId = "DBD97FAF-1301-49A4-893D-DCFDD4490496";
layerId = "E9C3DD33-4171-4539-8200-FDD883CEF06E";
name = "Feb 28 18, 19:26";
paths = (
{
closed = 1;
nodes = (
"505 0 LINE",
"505 134 LINE",
"239 132 LINE",
"235 290 LINE",
"480 290 LINE",
"480 422 LINE",
"235 422 LINE",
"239 570 LINE",
"505 567 LINE",
"505 703 LINE",
"83 703 LINE",
"83 0 LINE"
);
},
{
closed = 1;
nodes = (
"425 800 LINE",
"397 910 LINE",
"103 833 LINE",
"123 750 LINE"
);
}
);
width = 551;
}
);
leftKerningGroup = B;
rightKerningGroup = E;
unicode = 00C9;
},
{
glyphname = Adieresis;
lastChange = "2018-04-27 22:54:01 +0000";
layers = (
{
components = (
{
alignment = -1;
name = A;
},
{
alignment = 1;
name = dieresiscomb.case;
transform = "{1, 0, 0, 1, 110, 0}";
}
);
layerId = UUID0;
width = 515;
},
{
components = (
{
alignment = -1;
name = A;
},
{
alignment = 1;
name = dieresiscomb.case;
transform = "{1, 0, 0, 1, 95, 0}";
}
);
layerId = "DBD97FAF-1301-49A4-893D-DCFDD4490496";
width = 573;
},
{
associatedMasterId = "DBD97FAF-1301-49A4-893D-DCFDD4490496";
layerId = "9323CE04-1DD6-4DAF-BCEF-DCD82B395461";
name = "Feb 28 18, 19:26";
paths = (
{
closed = 1;
nodes = (
"148 0 LINE",
"188 156 LINE",
"380 156 LINE",
"420 0 LINE",
"579 0 LINE",
"378 703 LINE",
"190 703 LINE",
"-11 0 LINE"
);
},
{
closed = 1;
nodes = (
"281 559 LINE",
"287 559 LINE",
"350 288 LINE",
"218 288 LINE"
);
},
{
closed = 1;
nodes = (
"235 766 LINE",
"235 874 LINE",
"88 874 LINE",
"88 766 LINE"
);
},
{
closed = 1;
nodes = (
"480 766 LINE",
"480 874 LINE",
"333 874 LINE",
"333 766 LINE"
);
}
);
width = 573;
}
);
leftKerningGroup = A;
rightKerningGroup = A;
unicode = 00C4;
},
{
glyphname = Atilde;
lastChange = "2018-04-27 22:54:01 +0000";
layers = (
{
components = (
{
name = A;
},
{
name = tildecomb.case;
transform = "{1, 0, 0, 1, 80, 0}";
}
);
layerId = UUID0;
width = 506;
},
{
components = (
{
name = A;
},
{
name = tildecomb.case;
transform = "{1, 0, 0, 1, 94, 0}";
}
);
layerId = "DBD97FAF-1301-49A4-893D-DCFDD4490496";
width = 573;
},
{
associatedMasterId = "DBD97FAF-1301-49A4-893D-DCFDD4490496";
layerId = "8CA7A7B4-7A00-4582-9C69-3765F3ECEFB5";
name = "Feb 28 18, 19:26";
paths = (
{
closed = 1;
nodes = (
"148 0 LINE",
"188 156 LINE",
"380 156 LINE",
"420 0 LINE",
"579 0 LINE",
"378 703 LINE",
"190 703 LINE",
"-11 0 LINE"
);
},
{
closed = 1;
nodes = (
"281 559 LINE",
"287 559 LINE",
"350 288 LINE",
"218 288 LINE"
);
},
{
closed = 1;
nodes = (
"449 746 OFFCURVE",
"486 782 OFFCURVE",
"488 871 CURVE",
"413 883 LINE",
"413 883 OFFCURVE",
"398 843 OFFCURVE",
"382 843 CURVE SMOOTH",
"354 843 OFFCURVE",
"238 886 OFFCURVE",
"178 886 CURVE SMOOTH",
"122 886 OFFCURVE",
"83 850 OFFCURVE",
"81 760 CURVE",
"157 750 LINE",
"157 750 OFFCURVE",
"173 791 OFFCURVE",
"189 791 CURVE SMOOTH",
"216 791 OFFCURVE",
"334 746 OFFCURVE",
"393 746 CURVE SMOOTH"
);
}
);
width = 573;
}
);
leftKerningGroup = A;
rightKerningGroup = A;
unicode = 00C3;
},
{
glyphname = Acircumflex;
lastChange = "2018-04-27 22:54:01 +0000";
layers = (
{
components = (
{
name = A;
},
{
name = circumflexcomb.case;
transform = "{1, 0, 0, 1, 106, 0}";
}
);
layerId = UUID0;
width = 506;
},
{
components = (
{
name = A;
},
{
name = circumflexcomb.case;
transform = "{1, 0, 0, 1, 82, 0}";
}
);
layerId = "DBD97FAF-1301-49A4-893D-DCFDD4490496";
width = 573;
},
{
associatedMasterId = "DBD97FAF-1301-49A4-893D-DCFDD4490496";
layerId = "11FA7780-CB1A-4EE1-B574-A6B24959CBEB";
name = "Feb 28 18, 19:27";
paths = (
{
closed = 1;
nodes = (
"148 0 LINE",
"188 156 LINE",
"380 156 LINE",
"420 0 LINE",
"579 0 LINE",
"378 703 LINE",
"190 703 LINE",
"-11 0 LINE"
);
},
{
closed = 1;
nodes = (
"281 559 LINE",
"287 559 LINE",
"350 288 LINE",
"218 288 LINE"
);
},
{
closed = 1;
nodes = (
"281 803 LINE",
"288 803 LINE",
"455 744 LINE",
"488 805 LINE",
"321 905 LINE",
"248 905 LINE",
"81 805 LINE",
"114 744 LINE"
);
}
);
width = 573;
}
);
leftKerningGroup = A;
rightKerningGroup = A;
unicode = 00C2;
},
{
glyphname = Agrave;
lastChange = "2018-04-27 22:54:01 +0000";
layers = (
{
components = (
{
name = A;
},
{
name = gravecomb.case;
transform = "{1, 0, 0, 1, 127, 0}";
}
);
layerId = UUID0;
width = 506;
},
{
components = (
{
name = A;
},
{
name = gravecomb.case;
transform = "{1, 0, 0, 1, 125, 0}";
}
);
layerId = "DBD97FAF-1301-49A4-893D-DCFDD4490496";
width = 573;
},
{
associatedMasterId = "DBD97FAF-1301-49A4-893D-DCFDD4490496";
layerId = "6C22A696-59B9-4485-BDC1-FFB22BC3BA8D";
name = "Feb 28 18, 19:27";
paths = (
{
closed = 1;
nodes = (
"148 0 LINE",
"188 156 LINE",
"380 156 LINE",
"420 0 LINE",
"579 0 LINE",
"378 703 LINE",
"190 703 LINE",
"-11 0 LINE"
);
},
{
closed = 1;
nodes = (
"281 559 LINE",
"287 559 LINE",
"350 288 LINE",
"218 288 LINE"
);
},
{
closed = 1;
nodes = (
"447 835 LINE",
"148 909 LINE",
"123 799 LINE",
"430 752 LINE"
);
}
);
width = 573;
}
);
leftKerningGroup = A;
rightKerningGroup = A;
unicode = 00C0;
},
{
glyphname = one;
lastChange = "2018-04-27 22:54:01 +0000";
layers = (
{
layerId = UUID0;
paths = (
{
closed = 1;
nodes = (
"476 0 LINE",
"476 72 LINE",
"329 70 LINE",
"329 695 LINE",
"239 702 LINE",
"43 518 LINE",
"99 464 LINE",
"246 619 LINE",
"251 619 LINE",
"244 70 LINE",
"77 72 LINE",
"77 0 LINE"
);
}
);
width = 507;
},
{
layerId = "DBD97FAF-1301-49A4-893D-DCFDD4490496";
paths = (
{
closed = 1;
nodes = (
"545 0 LINE",
"545 134 LINE",
"393 132 LINE",
"393 701 LINE",
"244 711 LINE",
"21 521 LINE",
"120 418 LINE",
"236 535 LINE",
"242 535 LINE",
"236 133 LINE",
"63 134 LINE",
"63 0 LINE"
);
}
);
width = 554;
}
);
unicode = 0031;
},
{
glyphname = three;
lastChange = "2018-04-27 22:54:01 +0000";
layers = (
{
layerId = UUID0;
paths = (
{
closed = 1;
nodes = (
"406 -13 OFFCURVE",
"461 82 OFFCURVE",
"461 194 CURVE SMOOTH",
"461 330 OFFCURVE",
"380 364 OFFCURVE",
"328 371 CURVE",
"328 375 LINE",
"351 379 OFFCURVE",
"440 402 OFFCURVE",
"440 533 CURVE SMOOTH",
"440 666 OFFCURVE",
"348 708 OFFCURVE",
"227 708 CURVE SMOOTH",
"178 708 OFFCURVE",
"108 701 OFFCURVE",
"73 692 CURVE",
"83 624 LINE",
"157 633 OFFCURVE",
"183 636 OFFCURVE",
"220 636 CURVE SMOOTH",
"276 636 OFFCURVE",
"315 629 OFFCURVE",
"333 609 CURVE SMOOTH",
"346 595 OFFCURVE",
"354 565 OFFCURVE",
"354 522 CURVE SMOOTH",
"354 417 OFFCURVE",
"306 415 OFFCURVE",
"143 401 CURVE",
"143 335 LINE",
"236 335 LINE SMOOTH",
"329 335 OFFCURVE",
"372 299 OFFCURVE",
"372 187 CURVE SMOOTH",
"372 101 OFFCURVE",
"347 62 OFFCURVE",
"265 62 CURVE SMOOTH",
"177 62 OFFCURVE",
"86 101 OFFCURVE",
"68 110 CURVE",
"36 46 LINE",
"55 36 OFFCURVE",
"135 -13 OFFCURVE",
"252 -13 CURVE SMOOTH"
);
}
);
width = 545;
},
{
layerId = "DBD97FAF-1301-49A4-893D-DCFDD4490496";
paths = (
{
closed = 1;
nodes = (
"485 -13 OFFCURVE",
"552 88 OFFCURVE",
"552 208 CURVE SMOOTH",
"552 306 OFFCURVE",
"506 352 OFFCURVE",
"455 376 CURVE",
"455 382 LINE",
"493 405 OFFCURVE",
"530 446 OFFCURVE",
"530 526 CURVE SMOOTH",
"530 671 OFFCURVE",
"420 716 OFFCURVE",
"274 716 CURVE SMOOTH",
"221 716 OFFCURVE",
"132 706 OFFCURVE",
"77 691 CURVE",
"95 566 LINE",
"196 578 OFFCURVE",
"231 581 OFFCURVE",
"267 581 CURVE SMOOTH",
"314 581 OFFCURVE",
"346 577 OFFCURVE",
"358 566 CURVE SMOOTH",
"366 559 OFFCURVE",
"371 544 OFFCURVE",
"371 516 CURVE SMOOTH",
"371 448 OFFCURVE",
"321 446 OFFCURVE",
"152 434 CURVE",
"152 304 LINE",
"284 304 LINE SMOOTH",
"356 304 OFFCURVE",
"389 278 OFFCURVE",
"389 199 CURVE SMOOTH",
"389 147 OFFCURVE",
"372 123 OFFCURVE",
"314 123 CURVE SMOOTH",
"235 123 OFFCURVE",
"119 161 OFFCURVE",
"87 170 CURVE",
"40 58 LINE",
"61 48 OFFCURVE",
"169 -13 OFFCURVE",
"300 -13 CURVE SMOOTH"
);
}
);
width = 614;
},
{
associatedMasterId = UUID0;
layerId = "28AE230D-6190-4165-AFAD-2BB3FBFA9602";
name = "Apr 15 18, 01:44";
paths = (
{
closed = 1;
nodes = (
"386 -13 OFFCURVE",
"441 82 OFFCURVE",
"441 194 CURVE SMOOTH",
"441 330 OFFCURVE",
"360 364 OFFCURVE",
"308 371 CURVE",
"308 375 LINE",
"331 379 OFFCURVE",
"420 402 OFFCURVE",
"420 533 CURVE SMOOTH",
"420 666 OFFCURVE",
"328 708 OFFCURVE",
"207 708 CURVE SMOOTH",
"158 708 OFFCURVE",
"88 701 OFFCURVE",
"53 692 CURVE",
"63 624 LINE",
"137 633 OFFCURVE",
"163 636 OFFCURVE",
"200 636 CURVE SMOOTH",
"256 636 OFFCURVE",
"295 629 OFFCURVE",
"313 609 CURVE SMOOTH",
"326 595 OFFCURVE",
"334 565 OFFCURVE",
"334 522 CURVE SMOOTH",
"334 417 OFFCURVE",
"286 415 OFFCURVE",
"123 401 CURVE",
"123 335 LINE",
"216 335 LINE SMOOTH",
"309 335 OFFCURVE",
"352 299 OFFCURVE",
"352 187 CURVE SMOOTH",
"352 101 OFFCURVE",
"327 62 OFFCURVE",
"245 62 CURVE SMOOTH",
"154 62 OFFCURVE",
"48 110 OFFCURVE",
"48 110 CURVE",
"16 46 LINE",
"16 46 OFFCURVE",
"111 -13 OFFCURVE",
"232 -13 CURVE SMOOTH"
);
}
);
width = 525;
},
{
associatedMasterId = "DBD97FAF-1301-49A4-893D-DCFDD4490496";
layerId = "76EB0E25-8A1F-4F38-B99F-B9CEE9ECD36C";
name = "Apr 15 18, 01:44";
paths = (
{
closed = 1;
nodes = (
"485 -13 OFFCURVE",
"552 88 OFFCURVE",
"552 208 CURVE SMOOTH",
"552 306 OFFCURVE",
"506 352 OFFCURVE",
"455 376 CURVE",
"455 382 LINE",
"493 405 OFFCURVE",
"530 446 OFFCURVE",
"530 526 CURVE SMOOTH",
"530 671 OFFCURVE",
"420 716 OFFCURVE",
"274 716 CURVE SMOOTH",
"221 716 OFFCURVE",
"132 706 OFFCURVE",
"77 691 CURVE",
"95 566 LINE",
"196 578 OFFCURVE",
"231 581 OFFCURVE",
"267 581 CURVE SMOOTH",
"314 581 OFFCURVE",
"346 577 OFFCURVE",
"358 566 CURVE SMOOTH",
"366 559 OFFCURVE",
"371 544 OFFCURVE",
"371 516 CURVE SMOOTH",
"371 448 OFFCURVE",
"321 446 OFFCURVE",
"152 434 CURVE",
"152 304 LINE",
"284 304 LINE SMOOTH",
"356 304 OFFCURVE",
"389 278 OFFCURVE",
"389 199 CURVE SMOOTH",
"389 147 OFFCURVE",
"372 123 OFFCURVE",
"314 123 CURVE SMOOTH",
"228 123 OFFCURVE",
"87 170 OFFCURVE",
"87 170 CURVE",
"40 58 LINE",
"40 58 OFFCURVE",
"163 -13 OFFCURVE",
"300 -13 CURVE SMOOTH"
);
}
);
width = 614;
}
);
rightMetricsKey = B;
unicode = 0033;
},
{
glyphname = four;
lastChange = "2018-04-27 22:54:01 +0000";
layers = (
{
layerId = UUID0;
paths = (
{
closed = 1;
nodes = (
"425 0 LINE",
"424 162 LINE",
"488 162 LINE",
"488 238 LINE",
"424 236 LINE",
"424 505 LINE",
"362 505 LINE",
"343 236 LINE",
"118 232 LINE",
"118 237 LINE",
"269 695 LINE",
"187 706 LINE",
"29 225 LINE",
"29 162 LINE",
"343 162 LINE",
"340 0 LINE"
);
}
);
width = 537;
},
{
layerId = "DBD97FAF-1301-49A4-893D-DCFDD4490496";
paths = (
{
closed = 1;
nodes = (
"486 0 LINE",
"485 140 LINE",
"551 140 LINE",
"551 275 LINE",
"485 273 LINE",
"485 517 LINE",
"366 517 LINE",
"332 269 LINE",
"172 263 LINE",
"172 269 LINE",
"328 698 LINE",
"179 717 LINE",
"7 240 LINE",
"7 140 LINE",
"331 140 LINE",
"331 0 LINE"
);
}
);
width = 578;
}
);
unicode = 0034;
},
{
glyphname = ydieresis;
lastChange = "2018-04-28 09:21:14 +0000";
layers = (
{
components = (
{
name = y;
},
{
name = dieresiscomb;
transform = "{1, 0, 0, 1, 97, 0}";
}
);
layerId = UUID0;
width = 479;
},
{
components = (
{
name = y;
},
{
name = dieresiscomb;
transform = "{1, 0, 0, 1, 73, 0}";
}
);
layerId = "DBD97FAF-1301-49A4-893D-DCFDD4490496";
width = 536;
},
{
associatedMasterId = "DBD97FAF-1301-49A4-893D-DCFDD4490496";
layerId = "6A7D1DB2-B288-4A2D-9573-0BC79B08EE01";
name = "Feb 28 18, 20:04";
paths = (
{
closed = 1;
nodes = (
"278 -166 LINE",
"334 31 LINE",
"541 588 LINE",
"382 588 LINE",
"277 195 LINE",
"271 195 LINE",
"168 588 LINE",
"-4 588 LINE",
"204 51 LINE",
"117 -166 LINE"
);
},
{
closed = 1;
nodes = (
"224 668 LINE",
"224 776 LINE",
"77 776 LINE",
"77 668 LINE"
);
},
{
closed = 1;
nodes = (
"469 668 LINE",
"469 776 LINE",
"322 776 LINE",
"322 668 LINE"
);
}
);
width = 540;
}
);
leftKerningGroup = y;
rightKerningGroup = y;
unicode = 00FF;
},
{
glyphname = Uacute;
lastChange = "2018-04-27 22:54:01 +0000";
layers = (
{
components = (
{
name = U;
},
{
alignment = -1;
name = acutecomb.case;
transform = "{1, 0, 0, 1, 244, 0}";
}
);
layerId = UUID0;
width = 661;
},
{
components = (
{
name = U;
},
{
name = acutecomb.case;
transform = "{1, 0, 0, 1, 205, 0}";
}
);
layerId = "DBD97FAF-1301-49A4-893D-DCFDD4490496";
width = 702;
},
{
associatedMasterId = "DBD97FAF-1301-49A4-893D-DCFDD4490496";
layerId = "3B19F354-CB32-4129-B968-B0898B8EC0DC";
name = "Feb 28 18, 19:27";
paths = (
{
closed = 1;
nodes = (
"523 -13 OFFCURVE",
"619 58 OFFCURVE",
"619 317 CURVE SMOOTH",
"619 703 LINE",
"462 703 LINE",
"462 335 LINE SMOOTH",
"462 145 OFFCURVE",
"438 124 OFFCURVE",
"351 123 CURVE SMOOTH",
"265 123 OFFCURVE",
"240 148 OFFCURVE",
"240 335 CURVE SMOOTH",
"240 703 LINE",
"83 703 LINE",
"83 309 LINE SMOOTH",
"83 58 OFFCURVE",
"180 -13 OFFCURVE",
"351 -13 CURVE SMOOTH"
);
},
{
closed = 1;
nodes = (
"501 800 LINE",
"473 910 LINE",
"179 833 LINE",
"199 750 LINE"
);
}
);
width = 702;
}
);
leftKerningGroup = U;
rightKerningGroup = U;
unicode = 00DA;
},
{
glyphname = Udieresis;
lastChange = "2018-04-27 22:54:01 +0000";
layers = (
{
components = (
{
name = U;
},
{
alignment = 1;
name = dieresiscomb.case;
transform = "{1, 0, 0, 1, 188, 0}";
}
);
layerId = UUID0;
width = 661;
},
{
components = (
{
name = U;
},
{
alignment = -1;
name = dieresiscomb.case;
transform = "{1, 0, 0, 1, 155, 0}";
}
);
layerId = "DBD97FAF-1301-49A4-893D-DCFDD4490496";
width = 702;
},
{
associatedMasterId = "DBD97FAF-1301-49A4-893D-DCFDD4490496";
layerId = "0820357D-02CC-46F1-9CEB-DB4C3A3EF7C1";
name = "Feb 28 18, 19:27";
paths = (
{
closed = 1;
nodes = (
"523 -13 OFFCURVE",
"619 58 OFFCURVE",
"619 317 CURVE SMOOTH",
"619 703 LINE",
"462 703 LINE",
"462 335 LINE SMOOTH",
"462 145 OFFCURVE",
"438 124 OFFCURVE",
"351 123 CURVE SMOOTH",
"265 123 OFFCURVE",
"240 148 OFFCURVE",
"240 335 CURVE SMOOTH",
"240 703 LINE",
"83 703 LINE",
"83 309 LINE SMOOTH",
"83 58 OFFCURVE",
"180 -13 OFFCURVE",
"351 -13 CURVE SMOOTH"
);
},
{
closed = 1;
nodes = (
"302 766 LINE",
"302 874 LINE",
"155 874 LINE",
"155 766 LINE"
);
},
{
closed = 1;
nodes = (
"547 766 LINE",
"547 874 LINE",
"400 874 LINE",
"400 766 LINE"
);
}
);
width = 702;
}
);
leftKerningGroup = U;
rightKerningGroup = U;
unicode = 00DC;
},
{
glyphname = Yacute;
lastChange = "2018-04-27 22:54:01 +0000";
layers = (
{
components = (
{
name = Y;
},
{
alignment = -1;
name = acutecomb.case;
transform = "{1, 0, 0, 1, 169, 0}";
}
);
layerId = UUID0;
width = 505;
},
{
components = (
{
name = Y;
},
{
alignment = -1;
name = acutecomb.case;
transform = "{1, 0, 0, 1, 172, 0}";
}
);
layerId = "DBD97FAF-1301-49A4-893D-DCFDD4490496";
width = 580;
},
{
associatedMasterId = "DBD97FAF-1301-49A4-893D-DCFDD4490496";
layerId = "E1548922-D587-420F-96C1-7987AADA914C";
name = "Feb 28 18, 19:28";
paths = (
{
closed = 1;
nodes = (
"368 0 LINE",
"366 253 LINE",
"582 703 LINE",
"415 703 LINE",
"292 381 LINE",
"286 381 LINE",
"163 703 LINE",
"-4 703 LINE",
"212 253 LINE",
"209 0 LINE"
);
},
{
closed = 1;
nodes = (
"445 800 LINE",
"417 910 LINE",
"123 833 LINE",
"143 750 LINE"
);
}
);
width = 580;
}
);
leftKerningGroup = Y;
rightKerningGroup = Y;
unicode = 00DD;
},
{
glyphname = seven;
lastChange = "2018-04-27 22:54:01 +0000";
layers = (
{
layerId = UUID0;
paths = (
{
closed = 1;
nodes = (
"448 640 LINE",
"448 695 LINE",
"24 695 LINE",
"24 619 LINE",
"363 625 LINE",
"363 619 LINE",
"75 1 LINE",
"164 -7 LINE"
);
}
);
width = 471;
},
{
layerId = "DBD97FAF-1301-49A4-893D-DCFDD4490496";
paths = (
{
closed = 1;
nodes = (
"510 612 LINE",
"510 703 LINE",
"2 703 LINE",
"2 570 LINE",
"340 578 LINE",
"340 572 LINE",
"44 4 LINE",
"208 -9 LINE"
);
}
);
width = 511;
}
);
unicode = 0037;
},
{
glyphname = B;
lastChange = "2018-04-27 22:54:01 +0000";
layers = (
{
anchors = (
{
name = bottom;
position = "{307, 0}";
},
{
name = top;
position = "{307, 695}";
}
);
layerId = UUID0;
paths = (
{
closed = 1;
nodes = (
"426 -14 OFFCURVE",
"530 29 OFFCURVE",
"530 203 CURVE SMOOTH",
"530 335 OFFCURVE",
"432 361 OFFCURVE",
"395 361 CURVE SMOOTH",
"393 361 OFFCURVE",
"391 361 OFFCURVE",
"389 361 CURVE",
"400 323 LINE",
"400 402 LINE",
"394 363 LINE",
"403 364 OFFCURVE",
"512 376 OFFCURVE",
"512 523 CURVE SMOOTH",
"512 665 OFFCURVE",
"425 709 OFFCURVE",
"316 709 CURVE SMOOTH",
"225 709 OFFCURVE",
"109 698 OFFCURVE",
"99 697 CURVE",
"104 735 LINE",
"110 323 LINE",
"106 -35 LINE",
"100 4 LINE",
"108 2 OFFCURVE",
"223 -14 OFFCURVE",
"323 -14 CURVE SMOOTH"
);
},
{
closed = 1;
nodes = (
"258 51 OFFCURVE",
"198 60 OFFCURVE",
"189 61 CURVE",
"191 24 LINE",
"189 350 LINE",
"151 329 LINE",
"312 329 LINE SMOOTH",
"392 329 OFFCURVE",
"441 298 OFFCURVE",
"441 198 CURVE SMOOTH",
"441 98 OFFCURVE",
"421 51 OFFCURVE",
"334 51 CURVE SMOOTH"
);
},
{
closed = 1;
nodes = (
"151 395 LINE",
"189 371 LINE",
"189 677 LINE",
"180 638 LINE",
"190 639 OFFCURVE",
"242 647 OFFCURVE",
"312 647 CURVE SMOOTH",
"393 647 OFFCURVE",
"425 615 OFFCURVE",
"425 520 CURVE SMOOTH",
"425 430 OFFCURVE",
"402 394 OFFCURVE",
"320 394 CURVE SMOOTH"
);
}
);
width = 614;
},
{
anchors = (
{
name = bottom;
position = "{328, 0}";
},
{
name = top;
position = "{328, 703}";
}
);
layerId = "DBD97FAF-1301-49A4-893D-DCFDD4490496";
paths = (
{
closed = 1;
nodes = (
"468 -13 OFFCURVE",
"593 33 OFFCURVE",
"593 216 CURVE SMOOTH",
"593 323 OFFCURVE",
"524 362 OFFCURVE",
"452 381 CURVE",
"493 297 LINE",
"493 443 LINE",
"465 363 LINE",
"504 371 OFFCURVE",
"575 416 OFFCURVE",
"575 517 CURVE SMOOTH",
"575 669 OFFCURVE",
"469 716 OFFCURVE",
"337 716 CURVE SMOOTH",
"236 716 OFFCURVE",
"83 702 OFFCURVE",
"83 702 CURVE",
"88 329 LINE",
"85 6 LINE",
"85 6 OFFCURVE",
"240 -13 OFFCURVE",
"344 -13 CURVE SMOOTH"
);
},
{
closed = 1;
nodes = (
"286 113 OFFCURVE",
"226 121 OFFCURVE",
"228 120 CURVE",
"242 49 LINE",
"241 374 LINE",
"171 304 LINE",
"333 304 LINE SMOOTH",
"393 304 OFFCURVE",
"430 284 OFFCURVE",
"430 214 CURVE SMOOTH",
"430 145 OFFCURVE",
"416 113 OFFCURVE",
"345 113 CURVE SMOOTH"
);
},
{
closed = 1;
nodes = (
"170 426 LINE",
"240 356 LINE",
"240 659 LINE",
"196 586 LINE",
"246 589 OFFCURVE",
"271 593 OFFCURVE",
"334 593 CURVE SMOOTH",
"392 593 OFFCURVE",
"415 573 OFFCURVE",
"415 509 CURVE SMOOTH",
"415 450 OFFCURVE",
"399 426 OFFCURVE",
"341 426 CURVE SMOOTH"
);
}
);
width = 655;
},
{
anchors = (
{
name = bottom;
position = "{307, 0}";
},
{
name = top;
position = "{307, 695}";
}
);
associatedMasterId = UUID0;
layerId = "EE2168C2-F86C-46C9-809C-069FED632760";
name = "Mar 29 18, 14:54";
paths = (
{
closed = 1;
nodes = (
"426 -14 OFFCURVE",
"530 29 OFFCURVE",
"530 203 CURVE SMOOTH",
"530 329 OFFCURVE",
"439 359 OFFCURVE",
"400 361 CURVE",
"400 364 LINE",
"400 364 OFFCURVE",
"512 375 OFFCURVE",
"512 523 CURVE SMOOTH",
"512 665 OFFCURVE",
"425 709 OFFCURVE",
"316 709 CURVE SMOOTH",
"221 709 OFFCURVE",
"105 697 OFFCURVE",
"105 697 CURVE",
"110 323 LINE",
"106 3 LINE",
"106 3 OFFCURVE",
"226 -14 OFFCURVE",
"323 -14 CURVE SMOOTH"
);
},
{
closed = 1;
nodes = (
"258 51 OFFCURVE",
"198 60 OFFCURVE",
"189 61 CURVE",
"191 24 LINE",
"189 350 LINE",
"151 329 LINE",
"312 329 LINE SMOOTH",
"392 329 OFFCURVE",
"441 298 OFFCURVE",
"441 198 CURVE SMOOTH",
"441 98 OFFCURVE",
"421 51 OFFCURVE",
"334 51 CURVE SMOOTH"
);
},
{
closed = 1;
nodes = (
"151 395 LINE",
"189 371 LINE",
"189 677 LINE",
"180 638 LINE",
"190 639 OFFCURVE",
"242 647 OFFCURVE",
"312 647 CURVE SMOOTH",
"393 647 OFFCURVE",
"425 615 OFFCURVE",
"425 520 CURVE SMOOTH",
"425 430 OFFCURVE",
"402 394 OFFCURVE",
"320 394 CURVE SMOOTH"
);
}
);
width = 614;
},
{
anchors = (
{
name = bottom;
position = "{328, 0}";
},
{
name = top;
position = "{328, 703}";
}
);
associatedMasterId = "DBD97FAF-1301-49A4-893D-DCFDD4490496";
layerId = "376C919E-8869-4D24-9ED0-BAA1638E6DAE";
name = "Apr 14 18, 18:55";
paths = (
{
closed = 1;
nodes = (
"468 -13 OFFCURVE",
"593 33 OFFCURVE",
"593 216 CURVE SMOOTH",
"593 302 OFFCURVE",
"548 344 OFFCURVE",
"493 367 CURVE",
"493 373 LINE",
"531 392 OFFCURVE",
"575 437 OFFCURVE",
"575 517 CURVE SMOOTH",
"575 669 OFFCURVE",
"469 716 OFFCURVE",
"337 716 CURVE SMOOTH",
"236 716 OFFCURVE",
"83 702 OFFCURVE",
"83 702 CURVE",
"88 329 LINE",
"85 6 LINE",
"85 6 OFFCURVE",
"240 -13 OFFCURVE",
"344 -13 CURVE SMOOTH"
);
},
{
closed = 1;
nodes = (
"302 113 OFFCURVE",
"242 119 OFFCURVE",
"242 119 CURVE",
"241 304 LINE",
"333 304 LINE SMOOTH",
"393 304 OFFCURVE",
"430 284 OFFCURVE",
"430 214 CURVE SMOOTH",
"430 145 OFFCURVE",
"416 113 OFFCURVE",
"345 113 CURVE SMOOTH"
);
},
{
closed = 1;
nodes = (
"240 426 LINE",
"240 589 LINE",
"240 589 OFFCURVE",
"298 593 OFFCURVE",
"334 593 CURVE SMOOTH",
"392 593 OFFCURVE",
"415 573 OFFCURVE",
"415 509 CURVE SMOOTH",
"415 450 OFFCURVE",
"399 426 OFFCURVE",
"341 426 CURVE SMOOTH"
);
}
);
visible = 1;
width = 655;
}
);
leftKerningGroup = B;
unicode = 0042;
},
{
glyphname = C;
lastChange = "2018-04-27 22:54:01 +0000";
layers = (
{
anchors = (
{
name = bottom;
position = "{292, 0}";
},
{
name = top;
position = "{324, 695}";
}
);
layerId = UUID0;
paths = (
{
closed = 1;
nodes = (
"440 -14 OFFCURVE",
"526 47 OFFCURVE",
"526 47 CURVE",
"497 113 LINE SMOOTH",
"497 113 OFFCURVE",
"403 59 OFFCURVE",
"301 59 CURVE SMOOTH",
"267 59 OFFCURVE",
"241 65 OFFCURVE",
"222 84 CURVE SMOOTH",
"195 110 OFFCURVE",
"161 195 OFFCURVE",
"161 337 CURVE SMOOTH",
"161 505 OFFCURVE",
"185 573 OFFCURVE",
"212 606 CURVE SMOOTH",
"230 628 OFFCURVE",
"268 633 OFFCURVE",
"334 633 CURVE SMOOTH",
"367 633 OFFCURVE",
"464 624 OFFCURVE",
"487 621 CURVE",
"497 693 LINE",
"464 701 OFFCURVE",
"376 709 OFFCURVE",
"329 709 CURVE SMOOTH",
"182 709 OFFCURVE",
"72 645 OFFCURVE",
"72 340 CURVE SMOOTH",
"72 82 OFFCURVE",
"170 -14 OFFCURVE",
"312 -14 CURVE SMOOTH"
);
}
);
width = 583;
},
{
anchors = (
{
name = bottom;
position = "{309, 0}";
},
{
name = top;
position = "{345, 703}";
}
);
layerId = "DBD97FAF-1301-49A4-893D-DCFDD4490496";
paths = (
{
closed = 1;
nodes = (
"480 -13 OFFCURVE",
"583 56 OFFCURVE",
"583 56 CURVE",
"538 175 LINE",
"538 175 OFFCURVE",
"417 122 OFFCURVE",
"333 122 CURVE SMOOTH",
"298 122 OFFCURVE",
"276 129 OFFCURVE",
"262 140 CURVE SMOOTH",
"239 157 OFFCURVE",
"213 224 OFFCURVE",
"213 342 CURVE SMOOTH",
"213 484 OFFCURVE",
"232 539 OFFCURVE",
"258 560 CURVE SMOOTH",
"273 572 OFFCURVE",
"302 578 OFFCURVE",
"357 578 CURVE SMOOTH",
"389 578 OFFCURVE",
"505 567 OFFCURVE",
"538 563 CURVE",
"555 691 LINE",
"504 704 OFFCURVE",
"402 716 OFFCURVE",
"351 716 CURVE SMOOTH",
"179 716 OFFCURVE",
"50 652 OFFCURVE",
"50 345 CURVE SMOOTH",
"50 85 OFFCURVE",
"171 -13 OFFCURVE",
"339 -13 CURVE SMOOTH"
);
}
);
width = 618;
}
);
leftKerningGroup = C;
unicode = 0043;
},
{
glyphname = D;
lastChange = "2018-04-27 22:54:01 +0000";
layers = (
{
anchors = (
{
name = bottom;
position = "{316, 0}";
},
{
name = center;
position = "{316, 348}";
},
{
name = top;
position = "{304, 695}";
}
);
layerId = UUID0;
paths = (
{
closed = 1;
nodes = (
"449 -14 OFFCURVE",
"559 79 OFFCURVE",
"559 356 CURVE SMOOTH",
"559 543 OFFCURVE",
"518 709 OFFCURVE",
"313 709 CURVE SMOOTH",
"240 709 OFFCURVE",
"109 697 OFFCURVE",
"99 696 CURVE",
"105 735 LINE",
"105 -39 LINE",
"100 -1 LINE",
"123 -3 OFFCURVE",
"249 -14 OFFCURVE",
"302 -14 CURVE SMOOTH"
);
},
{
closed = 1;
nodes = (
"244 59 OFFCURVE",
"210 66 OFFCURVE",
"171 72 CURVE",
"189 31 LINE",
"189 667 LINE",
"174 627 LINE",
"210 630 OFFCURVE",
"262 636 OFFCURVE",
"315 636 CURVE SMOOTH",
"374 636 OFFCURVE",
"398 628 OFFCURVE",
"412 616 CURVE SMOOTH",
"449 584 OFFCURVE",
"465 484 OFFCURVE",
"465 363 CURVE SMOOTH",
"465 183 OFFCURVE",
"437 114 OFFCURVE",
"410 87 CURVE SMOOTH",
"393 70 OFFCURVE",
"363 59 OFFCURVE",
"291 59 CURVE SMOOTH"
);
}
);
width = 631;
},
{
anchors = (
{
name = bottom;
position = "{337, 0}";
},
{
name = center;
position = "{337, 352}";
},
{
name = top;
position = "{337, 703}";
}
);
layerId = "DBD97FAF-1301-49A4-893D-DCFDD4490496";
paths = (
{
closed = 1;
nodes = (
"501 -13 OFFCURVE",
"623 81 OFFCURVE",
"623 360 CURVE SMOOTH",
"623 555 OFFCURVE",
"575 716 OFFCURVE",
"332 716 CURVE SMOOTH",
"246 716 OFFCURVE",
"106 706 OFFCURVE",
"67 703 CURVE",
"83 772 LINE",
"83 -70 LINE",
"63 4 LINE",
"87 1 OFFCURVE",
"226 -13 OFFCURVE",
"322 -13 CURVE SMOOTH"
);
},
{
closed = 1;
nodes = (
"270 122 OFFCURVE",
"247 126 OFFCURVE",
"219 130 CURVE",
"239 57 LINE",
"239 645 LINE",
"219 571 LINE",
"244 576 OFFCURVE",
"268 581 OFFCURVE",
"334 581 CURVE SMOOTH",
"389 581 OFFCURVE",
"408 571 OFFCURVE",
"417 564 CURVE SMOOTH",
"447 542 OFFCURVE",
"460 465 OFFCURVE",
"460 364 CURVE SMOOTH",
"460 214 OFFCURVE",
"437 160 OFFCURVE",
"414 141 CURVE SMOOTH",
"402 130 OFFCURVE",
"376 122 OFFCURVE",
"330 122 CURVE SMOOTH"
);
}
);
width = 673;
},
{
anchors = (
{
name = bottom;
position = "{316, 0}";
},
{
name = center;
position = "{316, 348}";
},
{
name = top;
position = "{304, 695}";
}
);
associatedMasterId = UUID0;
layerId = "AF20CCE4-C5DC-4D41-840D-FF24A4316E64";
name = "Mar 29 18, 14:59";
paths = (
{
closed = 1;
nodes = (
"449 -14 OFFCURVE",
"559 79 OFFCURVE",
"559 356 CURVE SMOOTH",
"559 543 OFFCURVE",
"518 709 OFFCURVE",
"313 709 CURVE SMOOTH",
"237 709 OFFCURVE",
"105 697 OFFCURVE",
"105 697 CURVE",
"105 -1 LINE",
"105 -1 OFFCURVE",
"255 -14 OFFCURVE",
"302 -14 CURVE SMOOTH"
);
},
{
closed = 1;
nodes = (
"244 59 OFFCURVE",
"162 73 OFFCURVE",
"197 68 CURVE",
"189 31 LINE",
"189 667 LINE",
"194 629 LINE",
"165 627 OFFCURVE",
"262 636 OFFCURVE",
"315 636 CURVE SMOOTH",
"374 636 OFFCURVE",
"398 628 OFFCURVE",
"412 616 CURVE SMOOTH",
"449 584 OFFCURVE",
"465 484 OFFCURVE",
"465 363 CURVE SMOOTH",
"465 183 OFFCURVE",
"437 114 OFFCURVE",
"410 87 CURVE SMOOTH",
"393 70 OFFCURVE",
"363 59 OFFCURVE",
"291 59 CURVE SMOOTH"
);
}
);
width = 631;
},
{
anchors = (
{
name = bottom;
position = "{337, 0}";
},
{
name = center;
position = "{337, 352}";
},
{
name = top;
position = "{337, 703}";
}
);
associatedMasterId = "DBD97FAF-1301-49A4-893D-DCFDD4490496";
layerId = "7B3B5CE1-351B-4E6E-AA37-CBCCB040BC72";
name = "Apr 15 18, 01:42";
paths = (
{
closed = 1;
nodes = (
"501 -13 OFFCURVE",
"623 81 OFFCURVE",
"623 360 CURVE SMOOTH",
"623 548 OFFCURVE",
"575 716 OFFCURVE",
"334 716 CURVE SMOOTH",
"253 716 OFFCURVE",
"83 702 OFFCURVE",
"83 702 CURVE",
"83 0 LINE",
"83 0 OFFCURVE",
"231 -13 OFFCURVE",
"322 -13 CURVE SMOOTH"
);
},
{
closed = 1;
nodes = (
"270 122 OFFCURVE",
"247 126 OFFCURVE",
"219 130 CURVE",
"239 57 LINE",
"239 645 LINE",
"219 571 LINE",
"244 576 OFFCURVE",
"268 581 OFFCURVE",
"334 581 CURVE SMOOTH",
"389 581 OFFCURVE",
"408 571 OFFCURVE",
"417 564 CURVE SMOOTH",
"447 542 OFFCURVE",
"460 465 OFFCURVE",
"460 364 CURVE SMOOTH",
"460 214 OFFCURVE",
"437 160 OFFCURVE",
"414 141 CURVE SMOOTH",
"402 130 OFFCURVE",
"376 122 OFFCURVE",
"330 122 CURVE SMOOTH"
);
}
);
width = 673;
}
);
leftKerningGroup = B;
rightKerningGroup = O;
unicode = 0044;
},
{
glyphname = E;
lastChange = "2018-04-27 22:54:01 +0000";
layers = (
{
anchors = (
{
name = bottom;
position = "{257, 0}";
},
{
name = ogonek;
position = "{446, 10}";
},
{
name = top;
position = "{276, 695}";
},
{
name = topleft;
position = "{20, 695}";
}
);
layerId = UUID0;
paths = (
{
closed = 1;
nodes = (
"446 0 LINE",
"446 74 LINE",
"151 72 LINE",
"190 34 LINE",
"183 347 LINE",
"146 318 LINE",
"422 318 LINE",
"422 389 LINE",
"146 389 LINE",
"183 364 LINE",
"190 662 LINE",
"151 624 LINE",
"446 621 LINE",
"446 695 LINE",
"105 695 LINE",
"105 0 LINE"
);
}
);
width = 514;
},
{
anchors = (
{
name = bottom;
position = "{276, 0}";
},
{
name = ogonek;
position = "{486, 10}";
},
{
name = top;
position = "{298, 703}";
},
{
name = topleft;
position = "{20, 703}";
}
);
layerId = "DBD97FAF-1301-49A4-893D-DCFDD4490496";
paths = (
{
closed = 1;
nodes = (
"505 0 LINE",
"505 134 LINE",
"170 131 LINE",
"242 62 LINE",
"233 361 LINE",
"165 291 LINE",
"480 291 LINE",
"480 422 LINE",
"165 422 LINE",
"233 352 LINE",
"242 642 LINE",
"170 573 LINE",
"505 569 LINE",
"505 703 LINE",
"83 703 LINE",
"83 0 LINE"
);
}
);
width = 551;
}
);
leftKerningGroup = B;
rightKerningGroup = E;
unicode = 0045;
},
{
glyphname = F;
lastChange = "2018-04-27 22:54:01 +0000";
layers = (
{
anchors = (
{
name = bottom;
position = "{250, 0}";
},
{
name = top;
position = "{250, 695}";
}
);
layerId = UUID0;
paths = (
{
closed = 1;
nodes = (
"188 0 LINE",
"184 332 LINE",
"146 318 LINE",
"415 318 LINE",
"415 389 LINE",
"146 388 LINE",
"183 372 LINE",
"190 662 LINE",
"151 624 LINE",
"446 621 LINE",
"446 695 LINE",
"105 695 LINE",
"105 0 LINE"
);
}
);
width = 500;
},
{
anchors = (
{
name = bottom;
position = "{269, 0}";
},
{
name = top;
position = "{269, 703}";
}
);
layerId = "DBD97FAF-1301-49A4-893D-DCFDD4490496";
paths = (
{
closed = 1;
nodes = (
"240 0 LINE",
"234 317 LINE",
"165 287 LINE",
"473 287 LINE",
"473 418 LINE",
"165 418 LINE",
"235 399 LINE",
"235 642 LINE",
"165 573 LINE",
"505 569 LINE",
"505 703 LINE",
"83 703 LINE",
"83 0 LINE"
);
}
);
width = 537;
}
);
leftKerningGroup = B;
unicode = 0046;
},
{
glyphname = G;
lastChange = "2018-04-27 22:54:01 +0000";
layers = (
{
anchors = (
{
name = bottom;
position = "{306, 0}";
},
{
name = top;
position = "{333, 695}";
}
);
layerId = UUID0;
paths = (
{
closed = 1;
nodes = (
"443 -13 OFFCURVE",
"519 26 OFFCURVE",
"519 26 CURVE",
"519 362 LINE",
"333 362 LINE",
"333 300 LINE",
"477 293 LINE",
"439 333 LINE",
"439 75 LINE",
"417 66 OFFCURVE",
"381 60 OFFCURVE",
"335 60 CURVE SMOOTH",
"263 60 OFFCURVE",
"230 74 OFFCURVE",
"214 92 CURVE SMOOTH",
"196 112 OFFCURVE",
"162 177 OFFCURVE",
"162 352 CURVE SMOOTH",
"162 504 OFFCURVE",
"187 579 OFFCURVE",
"212 605 CURVE SMOOTH",
"232 626 OFFCURVE",
"271 632 OFFCURVE",
"338 632 CURVE SMOOTH",
"424 632 OFFCURVE",
"479 622 OFFCURVE",
"505 619 CURVE",
"515 691 LINE",
"483 699 OFFCURVE",
"407 708 OFFCURVE",
"344 708 CURVE SMOOTH",
"181 708 OFFCURVE",
"72 647 OFFCURVE",
"72 350 CURVE SMOOTH",
"72 48 OFFCURVE",
"191 -13 OFFCURVE",
"331 -13 CURVE SMOOTH"
);
}
);
width = 612;
},
{
anchors = (
{
name = bottom;
position = "{350, 0}";
},
{
name = top;
position = "{353, 703}";
}
);
layerId = "DBD97FAF-1301-49A4-893D-DCFDD4490496";
paths = (
{
closed = 1;
nodes = (
"479 -13 OFFCURVE",
"583 33 OFFCURVE",
"583 33 CURVE",
"583 395 LINE",
"328 395 LINE",
"328 282 LINE",
"500 270 LINE",
"430 345 LINE",
"430 128 LINE",
"411 124 OFFCURVE",
"386 122 OFFCURVE",
"357 122 CURVE SMOOTH",
"297 122 OFFCURVE",
"269 135 OFFCURVE",
"257 146 CURVE SMOOTH",
"242 161 OFFCURVE",
"213 205 OFFCURVE",
"213 353 CURVE SMOOTH",
"213 482 OFFCURVE",
"234 540 OFFCURVE",
"255 559 CURVE SMOOTH",
"270 572 OFFCURVE",
"299 578 OFFCURVE",
"361 578 CURVE SMOOTH",
"431 578 OFFCURVE",
"510 569 OFFCURVE",
"564 563 CURVE",
"582 690 LINE",
"533 702 OFFCURVE",
"435 716 OFFCURVE",
"367 716 CURVE SMOOTH",
"177 716 OFFCURVE",
"50 655 OFFCURVE",
"50 354 CURVE SMOOTH",
"50 48 OFFCURVE",
"188 -13 OFFCURVE",
"349 -13 CURVE SMOOTH"
);
}
);
width = 654;
}
);
leftKerningGroup = C;
unicode = 0047;
},
{
glyphname = H;
lastChange = "2018-04-27 22:54:01 +0000";
layers = (
{
anchors = (
{
name = bottom;
position = "{333, 0}";
},
{
name = center;
position = "{333, 348}";
},
{
name = top;
position = "{333, 695}";
},
{
name = topleft;
position = "{20, 695}";
}
);
layerId = UUID0;
paths = (
{
closed = 1;
nodes = (
"189 0 LINE",
"186 345 LINE",
"148 317 LINE",
"516 317 LINE",
"478 345 LINE",
"476 0 LINE",
"560 0 LINE",
"560 695 LINE",
"476 695 LINE",
"478 363 LINE",
"516 391 LINE",
"148 391 LINE",
"186 363 LINE",
"189 695 LINE",
"105 695 LINE",
"105 0 LINE"
);
}
);
width = 665;
},
{
anchors = (
{
name = bottom;
position = "{353, 0}";
},
{
name = center;
position = "{353, 352}";
},
{
name = top;
position = "{353, 703}";
},
{
name = topleft;
position = "{20, 703}";
}
);
layerId = "DBD97FAF-1301-49A4-893D-DCFDD4490496";
paths = (
{
closed = 1;
nodes = (
"240 0 LINE",
"236 340 LINE",
"167 290 LINE",
"539 290 LINE",
"470 340 LINE",
"466 0 LINE",
"623 0 LINE",
"623 703 LINE",
"466 703 LINE",
"470 374 LINE",
"539 424 LINE",
"167 424 LINE",
"236 374 LINE",
"240 703 LINE",
"83 703 LINE",
"83 0 LINE"
);
}
);
width = 706;
}
);
leftKerningGroup = B;
rightKerningGroup = H;
unicode = 0048;
},
{
glyphname = I;
lastChange = "2018-04-27 22:54:01 +0000";
layers = (
{
anchors = (
{
name = bottom;
position = "{148, 0}";
},
{
name = ogonek;
position = "{189, 10}";
},
{
name = top;
position = "{148, 695}";
},
{
name = topleft;
position = "{20, 695}";
}
);
layerId = UUID0;
paths = (
{
closed = 1;
nodes = (
"190 0 LINE",
"186 388 LINE",
"190 695 LINE",
"105 695 LINE",
"108 318 LINE",
"105 -1 LINE"
);
}
);
width = 295;
},
{
anchors = (
{
name = bottom;
position = "{162, 0}";
},
{
name = ogonek;
position = "{222, 10}";
},
{
name = top;
position = "{162, 703}";
},
{
name = topleft;
position = "{20, 703}";
}
);
layerId = "DBD97FAF-1301-49A4-893D-DCFDD4490496";
paths = (
{
closed = 1;
nodes = (
"241 0 LINE",
"238 390 LINE",
"241 703 LINE",
"83 703 LINE",
"87 324 LINE",
"83 0 LINE"
);
}
);
width = 324;
}
);
leftKerningGroup = I;
leftMetricsKey = H;
rightKerningGroup = I;
rightMetricsKey = H;
unicode = 0049;
},
{
glyphname = J;
lastChange = "2018-04-27 22:54:01 +0000";
layers = (
{
anchors = (
{
name = bottom;
position = "{158, 0}";
},
{
name = top;
position = "{178, 695}";
}
);
layerId = UUID0;
paths = (
{
closed = 1;
nodes = (
"150 -13 OFFCURVE",
"220 49 OFFCURVE",
"220 236 CURVE",
"220 695 LINE",
"136 695 LINE",
"136 223 LINE SMOOTH",
"136 74 OFFCURVE",
"113 60 OFFCURVE",
"72 60 CURVE SMOOTH",
"41 60 OFFCURVE",
"10 65 OFFCURVE",
"-2 67 CURVE",
"7 104 LINE",
"-12 -43 LINE",
"-12 -5 LINE",
"-2 -7 OFFCURVE",
"28 -13 OFFCURVE",
"56 -13 CURVE SMOOTH"
);
}
);
width = 316;
},
{
anchors = (
{
name = bottom;
position = "{182, 0}";
},
{
name = top;
position = "{182, 703}";
}
);
layerId = "DBD97FAF-1301-49A4-893D-DCFDD4490496";
paths = (
{
closed = 1;
nodes = (
"192 -13 OFFCURVE",
"280 52 OFFCURVE",
"280 247 CURVE SMOOTH",
"280 703 LINE",
"123 703 LINE",
"123 245 LINE SMOOTH",
"123 133 OFFCURVE",
"109 121 OFFCURVE",
"78 121 CURVE SMOOTH",
"56 121 OFFCURVE",
"14 127 OFFCURVE",
"-6 131 CURVE",
"-21 -2 LINE",
"-21 -2 OFFCURVE",
"31 -13 OFFCURVE",
"75 -13 CURVE SMOOTH"
);
}
);
width = 363;
}
);
unicode = 004A;
},
{
glyphname = L;
lastChange = "2018-04-27 22:54:01 +0000";
layers = (
{
anchors = (
{
name = bottom;
position = "{249, 0}";
},
{
name = center;
position = "{223, 348}";
},
{
name = top;
position = "{223, 695}";
},
{
name = topright;
position = "{426, 695}";
}
);
layerId = UUID0;
paths = (
{
closed = 1;
nodes = (
"435 0 LINE",
"435 74 LINE",
"146 72 LINE",
"184 34 LINE",
"189 695 LINE",
"105 695 LINE",
"105 0 LINE"
);
}
);
width = 446;
},
{
anchors = (
{
name = bottom;
position = "{262, 0}";
},
{
name = center;
position = "{242, 352}";
},
{
name = top;
position = "{242, 703}";
},
{
name = topright;
position = "{463, 703}";
}
);
layerId = "DBD97FAF-1301-49A4-893D-DCFDD4490496";
paths = (
{
closed = 1;
nodes = (
"504 0 LINE",
"504 144 LINE",
"165 141 LINE",
"234 62 LINE",
"240 703 LINE",
"83 703 LINE",
"83 0 LINE"
);
}
);
width = 504;
}
);
leftKerningGroup = B;
rightKerningGroup = L;
unicode = 004C;
},
{
glyphname = M;
lastChange = "2018-04-28 10:49:58 +0000";
layers = (
{
layerId = UUID0;
paths = (
{
closed = 1;
nodes = (
"184 0 LINE",
"193 649 LINE",
"154 611 LINE",
"236 611 LINE",
"186 647 LINE",
"368 127 LINE",
"319 163 LINE",
"492 163 LINE",
"445 127 LINE",
"628 647 LINE",
"577 611 LINE",
"658 611 LINE",
"621 649 LINE",
"630 0 LINE",
"714 0 LINE",
"690 695 LINE",
"568 695 LINE",
"397 206 LINE",
"447 242 LINE",
"366 242 LINE",
"416 206 LINE",
"246 695 LINE",
"124 695 LINE",
"100 0 LINE"
);
}
);
width = 814;
},
{
anchors = (
{
name = bottom;
position = "{422, 0}";
},
{
name = top;
position = "{422, 703}";
}
);
layerId = "DBD97FAF-1301-49A4-893D-DCFDD4490496";
paths = (
{
closed = 1;
nodes = (
"231 0 LINE",
"226 527 LINE",
"232 527 LINE",
"340 147 LINE",
"503 147 LINE",
"611 527 LINE",
"617 527 LINE",
"612 0 LINE",
"768 0 LINE",
"742 703 LINE",
"544 703 LINE",
"424 302 LINE",
"418 302 LINE",
"301 703 LINE",
"100 703 LINE",
"75 0 LINE"
);
},
{
closed = 1;
nodes = (
"231 0 LINE",
"226 527 LINE",
"232 527 LINE",
"340 147 LINE",
"503 147 LINE",
"611 527 LINE",
"617 527 LINE",
"612 0 LINE",
"768 0 LINE",
"742 703 LINE",
"544 703 LINE",
"424 302 LINE",
"418 302 LINE",
"301 703 LINE",
"100 703 LINE",
"75 0 LINE"
);
}
);
width = 843;
},
{
anchors = (
{
name = bottom;
position = "{397, 0}";
},
{
name = top;
position = "{397, 695}";
}
);
associatedMasterId = UUID0;
layerId = "1C1353F2-8659-4E29-A6E8-52C57508592A";
name = "Apr 20 18, 12:16";
paths = (
{
closed = 1;
nodes = (
"185 0 LINE",
"189 668 LINE",
"151 630 LINE",
"233 630 LINE",
"183 666 LINE",
"362 145 LINE",
"312 181 LINE",
"483 181 LINE",
"433 145 LINE",
"610 666 LINE",
"560 630 LINE",
"641 630 LINE",
"603 668 LINE",
"609 0 LINE",
"693 0 LINE",
"670 695 LINE",
"546 695 LINE",
"387 210 LINE",
"437 246 LINE",
"356 246 LINE",
"406 210 LINE",
"246 695 LINE",
"122 695 LINE",
"101 0 LINE"
);
}
);
width = 794;
}
);
leftKerningGroup = B;
rightKerningGroup = H;
unicode = 004D;
},
{
glyphname = N;
lastChange = "2018-04-28 10:45:03 +0000";
layers = (
{
anchors = (
{
name = bottom;
position = "{339, 0}";
},
{
name = top;
position = "{339, 695}";
}
);
layerId = UUID0;
paths = (
{
closed = 1;
nodes = (
"189 0 LINE",
"175 636 LINE",
"136 594 LINE",
"216 594 LINE",
"161 632 LINE",
"462 0 LINE",
"575 0 LINE",
"575 695 LINE",
"491 695 LINE",
"505 58 LINE",
"546 101 LINE",
"465 101 LINE",
"520 62 LINE",
"218 695 LINE",
"105 695 LINE",
"105 0 LINE"
);
}
);
width = 680;
},
{
anchors = (
{
name = bottom;
position = "{358, 0}";
},
{
name = top;
position = "{358, 703}";
}
);
layerId = "DBD97FAF-1301-49A4-893D-DCFDD4490496";
paths = (
{
closed = 1;
nodes = (
"226 0 LINE",
"212 515 LINE",
"218 515 LINE",
"434 0 LINE",
"635 0 LINE",
"635 703 LINE",
"492 703 LINE",
"506 189 LINE",
"500 189 LINE",
"284 703 LINE",
"83 703 LINE",
"83 0 LINE"
);
}
);
width = 716;
},
{
anchors = (
{
name = bottom;
position = "{339, 0}";
},
{
name = top;
position = "{339, 695}";
}
);
associatedMasterId = UUID0;
layerId = "A4298BF8-13C4-48D0-A4F3-A03D79F035AD";
name = "Apr 20 18, 12:17";
paths = (
{
closed = 1;
nodes = (
"187 0 LINE",
"173 654 LINE",
"136 616 LINE",
"216 616 LINE",
"162 650 LINE",
"455 0 LINE",
"572 0 LINE",
"572 695 LINE",
"490 695 LINE",
"506 41 LINE",
"543 79 LINE",
"462 79 LINE",
"516 45 LINE",
"222 695 LINE",
"105 695 LINE",
"105 0 LINE"
);
}
);
width = 677;
}
);
leftKerningGroup = B;
rightKerningGroup = H;
unicode = 004E;
},
{
glyphname = O;
lastChange = "2018-04-27 22:54:01 +0000";
layers = (
{
anchors = (
{
name = bottom;
position = "{328, 0}";
},
{
name = center;
position = "{328, 348}";
},
{
name = ogonek;
position = "{590, 10}";
},
{
name = top;
position = "{328, 695}";
},
{
name = topleft;
position = "{20, 695}";
},
{
name = topright;
position = "{636, 695}";
}
);
layerId = UUID0;
paths = (
{
closed = 1;
nodes = (
"468 -14 OFFCURVE",
"584 55 OFFCURVE",
"584 349 CURVE SMOOTH",
"584 641 OFFCURVE",
"468 709 OFFCURVE",
"328 709 CURVE SMOOTH",
"188 709 OFFCURVE",
"72 641 OFFCURVE",
"72 349 CURVE SMOOTH",
"72 55 OFFCURVE",
"188 -14 OFFCURVE",
"328 -14 CURVE SMOOTH"
);
},
{
closed = 1;
nodes = (
"212 62 OFFCURVE",
"161 95 OFFCURVE",
"161 346 CURVE SMOOTH",
"161 596 OFFCURVE",
"209 633 OFFCURVE",
"328 633 CURVE SMOOTH",
"446 633 OFFCURVE",
"495 596 OFFCURVE",
"495 346 CURVE SMOOTH",
"495 95 OFFCURVE",
"443 62 OFFCURVE",
"328 62 CURVE SMOOTH"
);
}
);
width = 656;
},
{
anchors = (
{
name = bottom;
position = "{350, 0}";
},
{
name = center;
position = "{350, 352}";
},
{
name = ogonek;
position = "{630, 10}";
},
{
name = top;
position = "{350, 703}";
},
{
name = topleft;
position = "{20, 703}";
},
{
name = topright;
position = "{680, 703}";
}
);
layerId = "DBD97FAF-1301-49A4-893D-DCFDD4490496";
paths = (
{
closed = 1;
nodes = (
"514 -13 OFFCURVE",
"650 57 OFFCURVE",
"650 353 CURVE SMOOTH",
"650 648 OFFCURVE",
"514 716 OFFCURVE",
"350 716 CURVE SMOOTH",
"186 716 OFFCURVE",
"50 648 OFFCURVE",
"50 353 CURVE SMOOTH",
"50 57 OFFCURVE",
"186 -13 OFFCURVE",
"350 -13 CURVE SMOOTH"
);
},
{
closed = 1;
nodes = (
"255 125 OFFCURVE",
"213 157 OFFCURVE",
"213 351 CURVE SMOOTH",
"213 545 OFFCURVE",
"253 578 OFFCURVE",
"350 578 CURVE SMOOTH",
"447 578 OFFCURVE",
"487 545 OFFCURVE",
"487 351 CURVE SMOOTH",
"487 158 OFFCURVE",
"445 125 OFFCURVE",
"350 125 CURVE SMOOTH"
);
}
);
width = 700;
}
);
leftKerningGroup = C;
rightKerningGroup = O;
unicode = 004F;
},
{
glyphname = P;
lastChange = "2018-04-27 22:54:01 +0000";
layers = (
{
anchors = (
{
name = bottom;
position = "{291, 0}";
},
{
name = top;
position = "{291, 695}";
}
);
layerId = UUID0;
paths = (
{
closed = 1;
nodes = (
"189 0 LINE",
"189 266 LINE",
"182 238 LINE",
"199 236 OFFCURVE",
"267 231 OFFCURVE",
"314 231 CURVE SMOOTH",
"418 231 OFFCURVE",
"522 279 OFFCURVE",
"522 475 CURVE SMOOTH",
"522 631 OFFCURVE",
"454 709 OFFCURVE",
"335 709 CURVE SMOOTH",
"228 709 OFFCURVE",
"105 695 OFFCURVE",
"105 695 CURVE",
"109 322 LINE",
"105 0 LINE"
);
},
{
closed = 1;
nodes = (
"260 302 OFFCURVE",
"194 313 OFFCURVE",
"184 315 CURVE",
"189 286 LINE",
"189 672 LINE",
"178 631 LINE",
"193 636 OFFCURVE",
"253 645 OFFCURVE",
"315 645 CURVE SMOOTH",
"353 645 OFFCURVE",
"386 638 OFFCURVE",
"399 629 CURVE SMOOTH",
"414 619 OFFCURVE",
"433 593 OFFCURVE",
"433 485 CURVE SMOOTH",
"433 400 OFFCURVE",
"426 344 OFFCURVE",
"404 321 CURVE SMOOTH",
"388 305 OFFCURVE",
"362 302 OFFCURVE",
"320 302 CURVE SMOOTH"
);
}
);
width = 581;
},
{
anchors = (
{
name = bottom;
position = "{311, 0}";
},
{
name = top;
position = "{311, 703}";
}
);
layerId = "DBD97FAF-1301-49A4-893D-DCFDD4490496";
paths = (
{
closed = 1;
nodes = (
"240 0 LINE",
"240 215 LINE",
"240 215 OFFCURVE",
"283 212 OFFCURVE",
"334 212 CURVE SMOOTH",
"459 212 OFFCURVE",
"584 263 OFFCURVE",
"584 469 CURVE SMOOTH",
"584 633 OFFCURVE",
"501 716 OFFCURVE",
"356 716 CURVE SMOOTH",
"244 716 OFFCURVE",
"83 702 OFFCURVE",
"83 702 CURVE",
"87 328 LINE",
"83 0 LINE"
);
},
{
closed = 1;
nodes = (
"282 337 OFFCURVE",
"240 344 OFFCURVE",
"240 344 CURVE",
"240 586 LINE",
"265 589 OFFCURVE",
"298 591 OFFCURVE",
"329 591 CURVE SMOOTH",
"369 591 OFFCURVE",
"391 585 OFFCURVE",
"399 577 CURVE SMOOTH",
"408 569 OFFCURVE",
"421 559 OFFCURVE",
"421 477 CURVE SMOOTH",
"421 402 OFFCURVE",
"415 366 OFFCURVE",
"400 352 CURVE SMOOTH",
"391 344 OFFCURVE",
"369 337 OFFCURVE",
"337 337 CURVE SMOOTH"
);
}
);
width = 621;
},
{
anchors = (
{
name = bottom;
position = "{311, 0}";
},
{
name = top;
position = "{311, 703}";
}
);
associatedMasterId = "DBD97FAF-1301-49A4-893D-DCFDD4490496";
layerId = "C0F6B345-8A32-4B89-9597-E5090A7B8AFA";
name = "Mar 26 18, 13:20";
paths = (
{
closed = 1;
nodes = (
"240 0 LINE",
"240 215 LINE",
"240 215 OFFCURVE",
"283 212 OFFCURVE",
"334 212 CURVE SMOOTH",
"459 212 OFFCURVE",
"584 263 OFFCURVE",
"584 469 CURVE SMOOTH",
"584 633 OFFCURVE",
"501 716 OFFCURVE",
"356 716 CURVE SMOOTH",
"244 716 OFFCURVE",
"83 702 OFFCURVE",
"83 702 CURVE",
"87 328 LINE",
"83 0 LINE"
);
},
{
closed = 1;
nodes = (
"282 342 OFFCURVE",
"240 349 OFFCURVE",
"240 349 CURVE",
"240 586 LINE",
"265 589 OFFCURVE",
"298 591 OFFCURVE",
"329 591 CURVE SMOOTH",
"369 591 OFFCURVE",
"391 585 OFFCURVE",
"399 577 CURVE SMOOTH",
"408 569 OFFCURVE",
"421 559 OFFCURVE",
"421 477 CURVE SMOOTH",
"421 407 OFFCURVE",
"415 371 OFFCURVE",
"400 357 CURVE SMOOTH",
"391 349 OFFCURVE",
"369 342 OFFCURVE",
"337 342 CURVE SMOOTH"
);
}
);
width = 621;
},
{
anchors = (
{
name = bottom;
position = "{291, 0}";
},
{
name = top;
position = "{291, 695}";
}
);
associatedMasterId = UUID0;
layerId = "D5158B70-A755-46A5-9772-5AA8C3D2ABE9";
name = "Mar 29 18, 14:51";
paths = (
{
closed = 1;
nodes = (
"189 0 LINE",
"189 275 LINE",
"199 236 LINE",
"158 240 OFFCURVE",
"254 231 OFFCURVE",
"314 231 CURVE SMOOTH",
"418 231 OFFCURVE",
"522 279 OFFCURVE",
"522 475 CURVE SMOOTH",
"522 631 OFFCURVE",
"454 709 OFFCURVE",
"335 709 CURVE SMOOTH",
"228 709 OFFCURVE",
"105 695 OFFCURVE",
"105 695 CURVE",
"109 322 LINE",
"105 0 LINE"
);
},
{
closed = 1;
nodes = (
"249 302 OFFCURVE",
"161 319 OFFCURVE",
"197 313 CURVE",
"189 276 LINE",
"189 672 LINE",
"178 631 LINE",
"193 636 OFFCURVE",
"253 645 OFFCURVE",
"315 645 CURVE SMOOTH",
"353 645 OFFCURVE",
"386 638 OFFCURVE",
"399 629 CURVE SMOOTH",
"414 619 OFFCURVE",
"433 593 OFFCURVE",
"433 485 CURVE SMOOTH",
"433 400 OFFCURVE",
"426 344 OFFCURVE",
"404 321 CURVE SMOOTH",
"388 305 OFFCURVE",
"362 302 OFFCURVE",
"320 302 CURVE SMOOTH"
);
}
);
visible = 1;
width = 581;
}
);
leftKerningGroup = B;
unicode = 0050;
},
{
glyphname = Q;
lastChange = "2018-04-27 22:54:01 +0000";
layers = (
{
anchors = (
{
name = bottom;
position = "{332, 0}";
},
{
name = top;
position = "{332, 695}";
}
);
layerId = UUID0;
paths = (
{
closed = 1;
nodes = (
"619 -14 LINE",
"479 33 LINE",
"481 20 LINE",
"482 75 LINE",
"468 27 LINE",
"537 73 OFFCURVE",
"584 163 OFFCURVE",
"584 349 CURVE SMOOTH",
"584 640 OFFCURVE",
"468 708 OFFCURVE",
"328 708 CURVE SMOOTH",
"188 708 OFFCURVE",
"72 640 OFFCURVE",
"72 349 CURVE SMOOTH",
"72 56 OFFCURVE",
"188 -13 OFFCURVE",
"328 -13 CURVE SMOOTH",
"367 -13 OFFCURVE",
"405 -8 OFFCURVE",
"437 6 CURVE",
"382 16 LINE",
"586 -92 LINE"
);
},
{
closed = 1;
nodes = (
"212 63 OFFCURVE",
"161 96 OFFCURVE",
"161 346 CURVE SMOOTH",
"161 595 OFFCURVE",
"209 632 OFFCURVE",
"328 632 CURVE SMOOTH",
"446 632 OFFCURVE",
"495 595 OFFCURVE",
"495 346 CURVE SMOOTH",
"495 96 OFFCURVE",
"443 63 OFFCURVE",
"328 63 CURVE SMOOTH"
);
}
);
width = 663;
},
{
anchors = (
{
name = bottom;
position = "{362, 0}";
},
{
name = top;
position = "{362, 703}";
}
);
layerId = "DBD97FAF-1301-49A4-893D-DCFDD4490496";
paths = (
{
closed = 1;
nodes = (
"696 31 LINE",
"561 62 LINE",
"564 39 LINE",
"564 138 LINE",
"539 43 LINE",
"603 103 OFFCURVE",
"650 189 OFFCURVE",
"650 352 CURVE SMOOTH",
"650 648 OFFCURVE",
"514 716 OFFCURVE",
"351 716 CURVE SMOOTH",
"186 716 OFFCURVE",
"50 649 OFFCURVE",
"50 353 CURVE SMOOTH",
"50 58 OFFCURVE",
"185 -13 OFFCURVE",
"343 -13 CURVE SMOOTH",
"387 -13 OFFCURVE",
"430 -8 OFFCURVE",
"470 5 CURVE",
"361 19 LINE",
"654 -95 LINE"
);
},
{
closed = 1;
nodes = (
"255 125 OFFCURVE",
"213 157 OFFCURVE",
"213 351 CURVE SMOOTH",
"213 545 OFFCURVE",
"253 578 OFFCURVE",
"351 578 CURVE SMOOTH",
"447 578 OFFCURVE",
"487 545 OFFCURVE",
"487 351 CURVE SMOOTH",
"487 157 OFFCURVE",
"445 125 OFFCURVE",
"350 125 CURVE SMOOTH"
);
}
);
width = 723;
}
);
leftKerningGroup = C;
rightKerningGroup = O;
unicode = 0051;
},
{
glyphname = R;
lastChange = "2018-04-28 10:32:43 +0000";
layers = (
{
anchors = (
{
name = bottom;
position = "{318, 0}";
},
{
name = top;
position = "{318, 695}";
}
);
layerId = UUID0;
paths = (
{
closed = 1;
nodes = (
"190 0 LINE",
"190 311 LINE",
"152 282 LINE",
"358 275 LINE",
"303 310 LINE",
"460 0 LINE",
"559 0 LINE",
"384 315 LINE",
"402 262 LINE",
"402 286 LINE",
"498 309 OFFCURVE",
"550 376 OFFCURVE",
"550 492 CURVE SMOOTH",
"550 650 OFFCURVE",
"464 708 OFFCURVE",
"328 708 CURVE SMOOTH",
"251 708 OFFCURVE",
"137 699 OFFCURVE",
"107 695 CURVE",
"110 329 LINE",
"105 0 LINE"
);
},
{
closed = 1;
nodes = (
"283 346 OFFCURVE",
"217 353 OFFCURVE",
"166 359 CURVE",
"189 331 LINE",
"191 671 LINE",
"179 631 LINE",
"199 634 OFFCURVE",
"276 644 OFFCURVE",
"340 644 CURVE SMOOTH",
"375 644 OFFCURVE",
"407 639 OFFCURVE",
"422 630 CURVE SMOOTH",
"446 616 OFFCURVE",
"461 576 OFFCURVE",
"461 493 CURVE SMOOTH",
"461 391 OFFCURVE",
"436 346 OFFCURVE",
"338 346 CURVE SMOOTH"
);
}
);
width = 635;
},
{
anchors = (
{
name = bottom;
position = "{338, 0}";
},
{
name = top;
position = "{323, 703}";
}
);
layerId = "DBD97FAF-1301-49A4-893D-DCFDD4490496";
paths = (
{
closed = 1;
nodes = (
"240 0 LINE",
"240 252 LINE",
"327 250 LINE",
"450 0 LINE",
"624 0 LINE",
"471 266 LINE",
"471 272 LINE",
"564 303 OFFCURVE",
"613 371 OFFCURVE",
"613 482 CURVE SMOOTH",
"613 653 OFFCURVE",
"511 716 OFFCURVE",
"349 716 CURVE SMOOTH",
"257 716 OFFCURVE",
"100 703 OFFCURVE",
"83 702 CURVE",
"87 326 LINE",
"83 0 LINE"
);
},
{
closed = 1;
nodes = (
"318 375 OFFCURVE",
"279 378 OFFCURVE",
"240 382 CURVE",
"240 585 LINE",
"270 589 OFFCURVE",
"300 591 OFFCURVE",
"353 591 CURVE SMOOTH",
"389 591 OFFCURVE",
"413 587 OFFCURVE",
"425 579 CURVE SMOOTH",
"439 570 OFFCURVE",
"450 546 OFFCURVE",
"450 481 CURVE SMOOTH",
"450 409 OFFCURVE",
"433 375 OFFCURVE",
"352 375 CURVE SMOOTH"
);
}
);
width = 695;
},
{
anchors = (
{
name = bottom;
position = "{318, 0}";
},
{
name = top;
position = "{318, 695}";
}
);
associatedMasterId = UUID0;
layerId = "5605FB74-B3D8-4487-8BA3-C9C274F60610";
name = "Apr 20 18, 12:17";
paths = (
{
closed = 1;
nodes = (
"190 0 LINE",
"190 311 LINE",
"152 282 LINE",
"354 275 LINE",
"299 310 LINE",
"459 0 LINE",
"559 0 LINE",
"384 315 LINE",
"402 244 LINE",
"402 286 LINE",
"498 309 OFFCURVE",
"550 376 OFFCURVE",
"550 492 CURVE SMOOTH",
"550 650 OFFCURVE",
"464 708 OFFCURVE",
"328 708 CURVE SMOOTH",
"251 708 OFFCURVE",
"137 699 OFFCURVE",
"107 695 CURVE",
"110 329 LINE",
"105 0 LINE"
);
},
{
closed = 1;
nodes = (
"283 346 OFFCURVE",
"217 353 OFFCURVE",
"166 359 CURVE",
"189 331 LINE",
"191 671 LINE",
"179 631 LINE",
"199 634 OFFCURVE",
"276 644 OFFCURVE",
"340 644 CURVE SMOOTH",
"375 644 OFFCURVE",
"407 639 OFFCURVE",
"422 630 CURVE SMOOTH",
"446 616 OFFCURVE",
"461 576 OFFCURVE",
"461 493 CURVE SMOOTH",
"461 391 OFFCURVE",
"436 346 OFFCURVE",
"338 346 CURVE SMOOTH"
);
}
);
width = 635;
}
);
leftKerningGroup = B;
rightKerningGroup = R;
unicode = 0052;
},
{
glyphname = S;
lastChange = "2018-04-27 22:54:01 +0000";
layers = (
{
anchors = (
{
name = bottom;
position = "{256, 0}";
},
{
name = top;
position = "{256, 695}";
}
);
layerId = UUID0;
paths = (
{
closed = 1;
nodes = (
"370 -14 OFFCURVE",
"455 67 OFFCURVE",
"455 189 CURVE SMOOTH",
"455 318 OFFCURVE",
"373 358 OFFCURVE",
"293 391 CURVE SMOOTH",
"217 422 OFFCURVE",
"145 450 OFFCURVE",
"145 533 CURVE SMOOTH",
"145 582 OFFCURVE",
"163 610 OFFCURVE",
"181 620 CURVE SMOOTH",
"196 629 OFFCURVE",
"212 633 OFFCURVE",
"246 633 CURVE SMOOTH",
"329 633 OFFCURVE",
"413 615 OFFCURVE",
"413 615 CURVE",
"427 687 LINE",
"427 687 OFFCURVE",
"351 709 OFFCURVE",
"264 709 CURVE SMOOTH",
"127 709 OFFCURVE",
"58 628 OFFCURVE",
"58 525 CURVE SMOOTH",
"58 392 OFFCURVE",
"145 358 OFFCURVE",
"252 313 CURVE SMOOTH",
"314 287 OFFCURVE",
"368 253 OFFCURVE",
"368 178 CURVE SMOOTH",
"368 126 OFFCURVE",
"352 94 OFFCURVE",
"326 76 CURVE SMOOTH",
"318 71 OFFCURVE",
"299 63 OFFCURVE",
"266 63 CURVE SMOOTH",
"162 63 OFFCURVE",
"66 118 OFFCURVE",
"66 118 CURVE",
"66 119 OFFCURVE",
"36 50 OFFCURVE",
"36 50 CURVE",
"36 50 OFFCURVE",
"136 -14 OFFCURVE",
"246 -14 CURVE SMOOTH"
);
}
);
width = 511;
},
{
anchors = (
{
name = bottom;
position = "{285, 0}";
},
{
name = top;
position = "{285, 703}";
}
);
layerId = "DBD97FAF-1301-49A4-893D-DCFDD4490496";
paths = (
{
closed = 1;
nodes = (
"427 -13 OFFCURVE",
"529 74 OFFCURVE",
"529 204 CURVE SMOOTH",
"529 351 OFFCURVE",
"402 388 OFFCURVE",
"312 430 CURVE SMOOTH",
"255 456 OFFCURVE",
"208 480 OFFCURVE",
"208 519 CURVE SMOOTH",
"208 552 OFFCURVE",
"218 563 OFFCURVE",
"228 570 CURVE SMOOTH",
"238 577 OFFCURVE",
"251 581 OFFCURVE",
"277 581 CURVE SMOOTH",
"359 581 OFFCURVE",
"479 558 OFFCURVE",
"479 558 CURVE",
"504 683 LINE",
"504 683 OFFCURVE",
"392 716 OFFCURVE",
"296 716 CURVE SMOOTH",
"131 716 OFFCURVE",
"48 629 OFFCURVE",
"48 519 CURVE SMOOTH",
"48 382 OFFCURVE",
"142 346 OFFCURVE",
"228 305 CURVE SMOOTH",
"301 270 OFFCURVE",
"369 248 OFFCURVE",
"369 198 CURVE SMOOTH",
"369 161 OFFCURVE",
"359 142 OFFCURVE",
"345 133 CURVE SMOOTH",
"337 128 OFFCURVE",
"323 122 OFFCURVE",
"298 122 CURVE SMOOTH",
"195 122 OFFCURVE",
"72 171 OFFCURVE",
"72 171 CURVE",
"72 172 OFFCURVE",
"33 49 OFFCURVE",
"33 49 CURVE",
"33 49 OFFCURVE",
"150 -13 OFFCURVE",
"278 -13 CURVE SMOOTH"
);
}
);
width = 570;
}
);
leftKerningGroup = S;
rightKerningGroup = S;
unicode = 0053;
},
{
glyphname = T;
lastChange = "2018-04-27 22:54:01 +0000";
layers = (
{
anchors = (
{
name = bottom;
position = "{237, 0}";
},
{
name = center;
position = "{237, 348}";
},
{
name = top;
position = "{237, 695}";
}
);
layerId = UUID0;
paths = (
{
closed = 1;
nodes = (
"279 0 LINE",
"277 662 LINE",
"249 624 LINE",
"472 621 LINE",
"472 695 LINE",
"2 695 LINE",
"2 621 LINE",
"221 624 LINE",
"197 662 LINE",
"195 0 LINE"
);
}
);
width = 474;
},
{
anchors = (
{
name = bottom;
position = "{246, 0}";
},
{
name = center;
position = "{258, 352}";
},
{
name = top;
position = "{258, 703}";
}
);
layerId = "DBD97FAF-1301-49A4-893D-DCFDD4490496";
paths = (
{
closed = 1;
nodes = (
"334 0 LINE",
"331 572 LINE",
"531 569 LINE",
"531 703 LINE",
"-16 703 LINE",
"-16 569 LINE",
"180 572 LINE",
"177 0 LINE"
);
}
);
width = 516;
}
);
unicode = 0054;
},
{
glyphname = U;
lastChange = "2018-04-27 22:54:01 +0000";
layers = (
{
anchors = (
{
name = bottom;
position = "{331, 0}";
},
{
name = ogonek;
position = "{422, 10}";
},
{
name = top;
position = "{331, 695}";
},
{
name = topright;
position = "{641, 695}";
}
);
layerId = UUID0;
paths = (
{
closed = 1;
nodes = (
"475 -14 OFFCURVE",
"556 55 OFFCURVE",
"556 311 CURVE SMOOTH",
"556 695 LINE",
"472 695 LINE",
"472 329 LINE SMOOTH",
"472 91 OFFCURVE",
"448 63 OFFCURVE",
"330 62 CURVE SMOOTH",
"213 62 OFFCURVE",
"189 90 OFFCURVE",
"189 329 CURVE SMOOTH",
"189 695 LINE",
"105 695 LINE",
"105 302 LINE SMOOTH",
"105 55 OFFCURVE",
"186 -14 OFFCURVE",
"330 -14 CURVE SMOOTH"
);
}
);
width = 661;
},
{
anchors = (
{
name = bottom;
position = "{351, 0}";
},
{
name = ogonek;
position = "{442, 10}";
},
{
name = top;
position = "{351, 703}";
},
{
name = topright;
position = "{682, 703}";
}
);
layerId = "DBD97FAF-1301-49A4-893D-DCFDD4490496";
paths = (
{
closed = 1;
nodes = (
"523 -13 OFFCURVE",
"619 58 OFFCURVE",
"619 317 CURVE SMOOTH",
"619 703 LINE",
"462 703 LINE",
"462 337 LINE SMOOTH",
"462 147 OFFCURVE",
"438 126 OFFCURVE",
"351 125 CURVE SMOOTH",
"265 125 OFFCURVE",
"240 150 OFFCURVE",
"240 337 CURVE SMOOTH",
"240 703 LINE",
"83 703 LINE",
"83 309 LINE SMOOTH",
"83 58 OFFCURVE",
"180 -13 OFFCURVE",
"351 -13 CURVE SMOOTH"
);
}
);
width = 702;
}
);
leftKerningGroup = U;
rightKerningGroup = U;
unicode = 0055;
},
{
glyphname = V;
lastChange = "2018-04-28 10:18:40 +0000";
layers = (
{
anchors = (
{
name = bottom;
position = "{264, 0}";
},
{
name = top;
position = "{264, 695}";
}
);
layerId = UUID0;
paths = (
{
closed = 1;
nodes = (
"313 0 LINE",
"501 695 LINE",
"415 695 LINE",
"247 37 LINE",
"294 74 LINE",
"212 74 LINE",
"259 37 LINE",
"91 695 LINE",
"5 695 LINE",
"193 0 LINE"
);
}
);
width = 506;
},
{
anchors = (
{
name = bottom;
position = "{305, 0}";
},
{
name = top;
position = "{305, 703}";
}
);
layerId = "DBD97FAF-1301-49A4-893D-DCFDD4490496";
paths = (
{
closed = 1;
nodes = (
"401 0 LINE",
"593 703 LINE",
"426 703 LINE",
"302 143 LINE",
"296 143 LINE",
"173 703 LINE",
"6 703 LINE",
"198 0 LINE"
);
}
);
width = 599;
},
{
anchors = (
{
name = bottom;
position = "{264, 0}";
},
{
name = top;
position = "{264, 695}";
}
);
associatedMasterId = UUID0;
layerId = "A96EB4BA-7E83-4048-8B12-E2D6241921B4";
name = "Apr 20 18, 12:18";
paths = (
{
closed = 1;
nodes = (
"315 0 LINE",
"503 695 LINE",
"413 695 LINE",
"255 30 LINE",
"302 67 LINE",
"220 67 LINE",
"267 30 LINE",
"108 695 LINE",
"19 695 LINE",
"206 0 LINE"
);
}
);
width = 528;
}
);
leftKerningGroup = V;
rightKerningGroup = V;
unicode = 0056;
},
{
glyphname = W;
lastChange = "2018-04-28 10:48:52 +0000";
layers = (
{
anchors = (
{
name = bottom;
position = "{374, 0}";
},
{
name = top;
position = "{374, 695}";
}
);
layerId = UUID0;
paths = (
{
closed = 1;
nodes = (
"259 0 LINE",
"371 458 LINE",
"377 458 LINE",
"488 0 LINE",
"610 0 LINE",
"735 695 LINE",
"649 695 LINE",
"546 36 LINE",
"589 74 LINE",
"507 74 LINE",
"554 37 LINE",
"434 532 LINE",
"314 532 LINE",
"194 37 LINE",
"241 74 LINE",
"160 74 LINE",
"202 36 LINE",
"99 695 LINE",
"13 695 LINE",
"139 0 LINE"
);
}
);
width = 748;
},
{
anchors = (
{
name = bottom;
position = "{428, 0}";
},
{
name = top;
position = "{428, 703}";
}
);
layerId = "DBD97FAF-1301-49A4-893D-DCFDD4490496";
paths = (
{
closed = 1;
nodes = (
"334 0 LINE",
"416 387 LINE",
"422 387 LINE",
"504 0 LINE",
"700 0 LINE",
"804 703 LINE",
"646 703 LINE",
"595 161 LINE",
"589 161 LINE",
"511 536 LINE",
"327 536 LINE",
"249 161 LINE",
"243 161 LINE",
"192 703 LINE",
"34 703 LINE",
"138 0 LINE"
);
}
);
width = 838;
},
{
anchors = (
{
name = bottom;
position = "{374, 0}";
},
{
name = top;
position = "{374, 695}";
}
);
associatedMasterId = UUID0;
layerId = "5C0832C5-A1AE-4DD1-BEA2-53B8F9DBF297";
name = "Apr 20 18, 12:18";
paths = (
{
closed = 1;
nodes = (
"252 0 LINE",
"367 455 LINE",
"372 455 LINE",
"489 0 LINE",
"603 0 LINE",
"705 695 LINE",
"619 695 LINE",
"543 36 LINE",
"585 74 LINE",
"503 74 LINE",
"550 37 LINE",
"426 527 LINE",
"312 527 LINE",
"188 37 LINE",
"235 74 LINE",
"154 74 LINE",
"196 36 LINE",
"119 695 LINE",
"33 695 LINE",
"132 0 LINE"
);
}
);
width = 748;
}
);
leftKerningGroup = V;
rightKerningGroup = V;
unicode = 0057;
},
{
glyphname = X;
lastChange = "2018-04-28 10:29:43 +0000";
layers = (
{
anchors = (
{
name = bottom;
position = "{268, 0}";
},
{
name = top;
position = "{268, 695}";
}
);
layerId = UUID0;
paths = (
{
closed = 1;
nodes = (
"115 0 LINE",
"280 333 LINE",
"227 300 LINE",
"291 300 LINE",
"244 333 LINE",
"421 0 LINE",
"520 0 LINE",
"299 378 LINE",
"293 338 LINE",
"505 695 LINE",
"411 695 LINE",
"240 383 LINE",
"304 413 LINE",
"222 413 LINE",
"293 382 LINE",
"124 695 LINE",
"30 695 LINE",
"239 338 LINE",
"230 389 LINE",
"16 0 LINE"
);
}
);
width = 536;
},
{
anchors = (
{
name = bottom;
position = "{311, 0}";
},
{
name = top;
position = "{311, 703}";
}
);
layerId = "DBD97FAF-1301-49A4-893D-DCFDD4490496";
paths = (
{
closed = 1;
nodes = (
"170 0 LINE",
"341 319 LINE",
"238 257 LINE",
"384 257 LINE",
"282 319 LINE",
"451 0 LINE",
"625 0 LINE",
"376 417 LINE",
"376 297 LINE",
"615 703 LINE",
"447 703 LINE",
"282 390 LINE",
"384 452 LINE",
"238 452 LINE",
"340 390 LINE",
"173 703 LINE",
"5 703 LINE",
"245 297 LINE",
"245 417 LINE",
"-4 0 LINE"
);
}
);
width = 621;
},
{
anchors = (
{
name = bottom;
position = "{268, 0}";
},
{
name = top;
position = "{268, 695}";
}
);
associatedMasterId = UUID0;
layerId = "84DE1034-0C02-4569-B171-F3E29CA3202B";
name = "Apr 20 18, 12:18";
paths = (
{
closed = 1;
nodes = (
"107 0 LINE",
"279 317 LINE",
"223 284 LINE",
"304 284 LINE",
"248 317 LINE",
"417 0 LINE",
"514 0 LINE",
"295 374 LINE",
"296 308 LINE",
"508 695 LINE",
"411 695 LINE",
"246 366 LINE",
"301 400 LINE",
"219 400 LINE",
"274 366 LINE",
"113 695 LINE",
"15 695 LINE",
"228 311 LINE",
"229 377 LINE",
"10 0 LINE"
);
}
);
width = 536;
}
);
unicode = 0058;
},
{
color = 3;
glyphname = Y;
lastChange = "2018-04-28 10:30:01 +0000";
layers = (
{
anchors = (
{
name = bottom;
position = "{253, 0}";
},
{
name = top;
position = "{253, 695}";
},
{
name = topleft;
position = "{22, 695}";
}
);
guideLines = (
{
position = "{406, 259}";
}
);
layerId = UUID0;
paths = (
{
closed = 1;
nodes = (
"295 0 LINE",
"291 306 LINE",
"277 227 LINE",
"489 695 LINE",
"398 695 LINE",
"242 313 LINE",
"293 347 LINE",
"213 347 LINE",
"264 313 LINE",
"107 695 LINE",
"16 695 LINE",
"228 227 LINE",
"214 307 LINE",
"210 0 LINE"
);
}
);
width = 505;
},
{
anchors = (
{
name = bottom;
position = "{290, 0}";
},
{
name = top;
position = "{290, 703}";
},
{
name = topleft;
position = "{20, 703}";
}
);
layerId = "DBD97FAF-1301-49A4-893D-DCFDD4490496";
paths = (
{
closed = 1;
nodes = (
"368 0 LINE",
"366 253 LINE",
"582 703 LINE",
"414 703 LINE",
"292 381 LINE",
"286 381 LINE",
"164 703 LINE",
"-4 703 LINE",
"212 253 LINE",
"209 0 LINE"
);
}
);
width = 580;
}
);
leftKerningGroup = Y;
rightKerningGroup = Y;
unicode = 0059;
},
{
glyphname = Z;
lastChange = "2018-04-27 22:56:12 +0000";
layers = (
{
anchors = (
{
name = bottom;
position = "{266, 0}";
},
{
name = top;
position = "{266, 695}";
}
);
layerId = UUID0;
paths = (
{
closed = 1;
nodes = (
"489 0 LINE",
"489 74 LINE",
"86 71 LINE",
"126 33 LINE",
"128 116 LINE",
"106 47 LINE",
"496 656 LINE",
"475 581 LINE",
"475 695 LINE",
"47 695 LINE",
"47 621 LINE",
"417 624 LINE",
"378 662 LINE",
"378 579 LINE",
"398 648 LINE",
"6 39 LINE",
"27 105 LINE",
"27 0 LINE"
);
}
);
width = 529;
},
{
anchors = (
{
name = bottom;
position = "{290, 0}";
},
{
name = top;
position = "{290, 703}";
}
);
layerId = "DBD97FAF-1301-49A4-893D-DCFDD4490496";
paths = (
{
closed = 1;
nodes = (
"553 0 LINE",
"553 134 LINE",
"217 126 LINE",
"217 132 LINE",
"548 582 LINE",
"548 703 LINE",
"45 703 LINE",
"45 569 LINE",
"362 578 LINE",
"362 571 LINE",
"24 124 LINE",
"24 0 LINE"
);
}
);
width = 579;
},
{
anchors = (
{
name = bottom;
position = "{266, 0}";
},
{
name = top;
position = "{266, 695}";
}
);
associatedMasterId = UUID0;
layerId = "57C98B34-511F-4F10-8972-F52CA8721C54";
name = "Apr 20 18, 12:19";
paths = (
{
closed = 1;
nodes = (
"489 0 LINE",
"489 74 LINE",
"89 71 LINE",
"127 33 LINE",
"127 116 LINE",
"106 47 LINE",
"506 648 LINE",
"485 579 LINE",
"485 695 LINE",
"49 695 LINE",
"49 621 LINE",
"429 625 LINE",
"391 663 LINE",
"391 579 LINE",
"412 648 LINE",
"8 45 LINE",
"29 114 LINE",
"29 0 LINE"
);
}
);
width = 531;
}
);
leftKerningGroup = Z;
rightKerningGroup = Z;
unicode = 005A;
},
{
glyphname = eight;
lastChange = "2018-04-27 22:54:01 +0000";
layers = (
{
layerId = UUID0;
paths = (
{
closed = 1;
nodes = (
"409 -13 OFFCURVE",
"492 80 OFFCURVE",
"492 182 CURVE SMOOTH",
"492 283 OFFCURVE",
"417 329 OFFCURVE",
"366 359 CURVE",
"424 392 OFFCURVE",
"471 444 OFFCURVE",
"471 533 CURVE SMOOTH",
"471 630 OFFCURVE",
"405 708 OFFCURVE",
"269 708 CURVE SMOOTH",
"137 708 OFFCURVE",
"68 635 OFFCURVE",
"68 534 CURVE SMOOTH",
"68 454 OFFCURVE",
"113 402 OFFCURVE",
"163 366 CURVE",
"108 343 OFFCURVE",
"47 278 OFFCURVE",
"47 190 CURVE SMOOTH",
"47 89 OFFCURVE",
"122 -13 OFFCURVE",
"266 -13 CURVE SMOOTH"
);
},
{
closed = 1;
nodes = (
"170 59 OFFCURVE",
"138 114 OFFCURVE",
"138 182 CURVE SMOOTH",
"138 270 OFFCURVE",
"175 301 OFFCURVE",
"241 326 CURVE",
"359 285 OFFCURVE",
"401 250 OFFCURVE",
"401 170 CURVE SMOOTH",
"401 101 OFFCURVE",
"361 59 OFFCURVE",
"269 59 CURVE SMOOTH"
);
},
{
closed = 1;
nodes = (
"190 432 OFFCURVE",
"152 473 OFFCURVE",
"152 543 CURVE SMOOTH",
"152 600 OFFCURVE",
"179 639 OFFCURVE",
"270 639 CURVE SMOOTH",
"357 639 OFFCURVE",
"386 596 OFFCURVE",
"386 532 CURVE SMOOTH",
"386 455 OFFCURVE",
"349 415 OFFCURVE",
"287 393 CURVE"
);
}
);
width = 540;
},
{
layerId = "DBD97FAF-1301-49A4-893D-DCFDD4490496";
paths = (
{
closed = 1;
nodes = (
"457 -13 OFFCURVE",
"555 87 OFFCURVE",
"555 196 CURVE SMOOTH",
"555 283 OFFCURVE",
"490 339 OFFCURVE",
"437 364 CURVE",
"488 399 OFFCURVE",
"526 451 OFFCURVE",
"526 526 CURVE SMOOTH",
"526 632 OFFCURVE",
"448 716 OFFCURVE",
"289 716 CURVE SMOOTH",
"135 716 OFFCURVE",
"54 637 OFFCURVE",
"54 527 CURVE SMOOTH",
"54 459 OFFCURVE",
"81 407 OFFCURVE",
"127 373 CURVE",
"73 339 OFFCURVE",
"25 279 OFFCURVE",
"25 204 CURVE SMOOTH",
"25 96 OFFCURVE",
"114 -13 OFFCURVE",
"286 -13 CURVE SMOOTH"
);
},
{
closed = 1;
nodes = (
"210 119 OFFCURVE",
"183 156 OFFCURVE",
"183 204 CURVE SMOOTH",
"183 262 OFFCURVE",
"214 288 OFFCURVE",
"262 305 CURVE",
"365 274 OFFCURVE",
"397 246 OFFCURVE",
"397 195 CURVE SMOOTH",
"397 148 OFFCURVE",
"364 119 OFFCURVE",
"289 119 CURVE SMOOTH"
);
},
{
closed = 1;
nodes = (
"233 450 OFFCURVE",
"207 480 OFFCURVE",
"207 526 CURVE SMOOTH",
"207 565 OFFCURVE",
"226 593 OFFCURVE",
"290 593 CURVE SMOOTH",
"349 593 OFFCURVE",
"372 562 OFFCURVE",
"372 516 CURVE SMOOTH",
"372 468 OFFCURVE",
"344 440 OFFCURVE",
"303 423 CURVE"
);
}
);
width = 581;
}
);
unicode = 0038;
},
{
glyphname = parenleft;
lastChange = "2018-04-27 22:54:01 +0000";
layers = (
{
layerId = UUID0;
paths = (
{
closed = 1;
nodes = (
"285 -72 LINE",
"190 -11 OFFCURVE",
"154 133 OFFCURVE",
"154 329 CURVE SMOOTH",
"154 527 OFFCURVE",
"190 670 OFFCURVE",
"285 730 CURVE",
"247 783 LINE",
"154 727 OFFCURVE",
"69 603 OFFCURVE",
"69 329 CURVE SMOOTH",
"69 59 OFFCURVE",
"154 -68 OFFCURVE",
"247 -124 CURVE"
);
}
);
width = 316;
},
{
layerId = "DBD97FAF-1301-49A4-893D-DCFDD4490496";
paths = (
{
closed = 1;
nodes = (
"340 -36 LINE",
"250 27 OFFCURVE",
"205 164 OFFCURVE",
"205 344 CURVE SMOOTH",
"205 525 OFFCURVE",
"250 664 OFFCURVE",
"340 725 CURVE",
"274 813 LINE",
"158 749 OFFCURVE",
"47 615 OFFCURVE",
"47 344 CURVE SMOOTH",
"47 77 OFFCURVE",
"158 -61 OFFCURVE",
"274 -124 CURVE"
);
}
);
width = 349;
}
);
unicode = 0028;
},
{
glyphname = parenright;
lastChange = "2018-04-27 22:54:01 +0000";
layers = (
{
layerId = UUID0;
paths = (
{
closed = 1;
nodes = (
"162 -68 OFFCURVE",
"247 59 OFFCURVE",
"247 329 CURVE SMOOTH",
"247 603 OFFCURVE",
"162 727 OFFCURVE",
"68 783 CURVE",
"31 730 LINE",
"126 670 OFFCURVE",
"162 527 OFFCURVE",
"162 329 CURVE SMOOTH",
"162 133 OFFCURVE",
"126 -11 OFFCURVE",
"31 -72 CURVE",
"68 -124 LINE"
);
}
);
width = 316;
},
{
layerId = "DBD97FAF-1301-49A4-893D-DCFDD4490496";
paths = (
{
closed = 1;
nodes = (
"191 -61 OFFCURVE",
"302 77 OFFCURVE",
"302 344 CURVE SMOOTH",
"302 615 OFFCURVE",
"191 749 OFFCURVE",
"75 813 CURVE",
"9 725 LINE",
"99 664 OFFCURVE",
"144 525 OFFCURVE",
"144 344 CURVE SMOOTH",
"144 164 OFFCURVE",
"99 27 OFFCURVE",
"9 -36 CURVE",
"75 -124 LINE"
);
}
);
width = 349;
}
);
unicode = 0029;
},
{
glyphname = quotesinglbase;
lastChange = "2018-04-27 22:54:01 +0000";
layers = (
{
layerId = UUID0;
paths = (
{
closed = 1;
nodes = (
"135 -83 OFFCURVE",
"169 -29 OFFCURVE",
"170 66 CURVE SMOOTH",
"170 86 OFFCURVE",
"169 108 OFFCURVE",
"166 133 CURVE",
"87 133 LINE",
"87 133 OFFCURVE",
"93 70 OFFCURVE",
"93 16 CURVE SMOOTH",
"93 -30 OFFCURVE",
"83 -55 OFFCURVE",
"62 -82 CURVE",
"101 -114 LINE"
);
}
);
width = 264;
},
{
layerId = "DBD97FAF-1301-49A4-893D-DCFDD4490496";
paths = (
{
closed = 1;
nodes = (
"159 -130 OFFCURVE",
"195 -54 OFFCURVE",
"195 57 CURVE SMOOTH",
"195 93 OFFCURVE",
"190 132 OFFCURVE",
"190 132 CURVE",
"62 132 LINE",
"62 132 OFFCURVE",
"68 52 OFFCURVE",
"68 9 CURVE SMOOTH",
"68 -50 OFFCURVE",
"60 -91 OFFCURVE",
"44 -121 CURVE",
"121 -167 LINE"
);
}
);
width = 239;
}
);
leftKerningGroup = comma;
rightKerningGroup = comma;
unicode = 201A;
},
{
glyphname = hyphen;
lastChange = "2018-04-27 22:54:01 +0000";
layers = (
{
layerId = UUID0;
paths = (
{
closed = 1;
nodes = (
"275 293 LINE",
"275 363 LINE",
"46 363 LINE",
"46 293 LINE"
);
}
);
width = 321;
},
{
layerId = "DBD97FAF-1301-49A4-893D-DCFDD4490496";
paths = (
{
closed = 1;
nodes = (
"282 261 LINE",
"282 393 LINE",
"24 393 LINE",
"24 261 LINE"
);
}
);
width = 306;
}
);
leftKerningGroup = hyphen;
rightKerningGroup = hyphen;
unicode = 002D;
},
{
glyphname = slash;
lastChange = "2018-04-27 22:54:01 +0000";
layers = (
{
layerId = UUID0;
paths = (
{
closed = 1;
nodes = (
"92 -98 LINE",
"242 288 LINE",
"408 695 LINE",
"319 695 LINE",
"174 319 LINE",
"4 -98 LINE"
);
}
);
width = 430;
},
{
layerId = "DBD97FAF-1301-49A4-893D-DCFDD4490496";
paths = (
{
closed = 1;
nodes = (
"127 -98 LINE",
"294 281 LINE",
"490 703 LINE",
"344 703 LINE",
"183 333 LINE",
"-18 -98 LINE"
);
}
);
width = 490;
}
);
unicode = 002F;
},
{
glyphname = two;
lastChange = "2018-04-27 22:54:01 +0000";
layers = (
{
layerId = UUID0;
paths = (
{
closed = 1;
nodes = (
"476 0 LINE",
"476 75 LINE",
"178 70 LINE",
"178 75 LINE",
"178 75 OFFCURVE",
"307 239 OFFCURVE",
"344 288 CURVE SMOOTH",
"401 363 OFFCURVE",
"461 453 OFFCURVE",
"461 539 CURVE SMOOTH",
"461 640 OFFCURVE",
"379 708 OFFCURVE",
"268 708 CURVE SMOOTH",
"171 708 OFFCURVE",
"82 656 OFFCURVE",
"51 628 CURVE",
"86 565 LINE",
"143 602 OFFCURVE",
"223 633 OFFCURVE",
"287 633 CURVE SMOOTH",
"355 633 OFFCURVE",
"379 598 OFFCURVE",
"379 548 CURVE SMOOTH",
"379 470 OFFCURVE",
"320 392 OFFCURVE",
"236 285 CURVE SMOOTH",
"118 135 OFFCURVE",
"56 65 OFFCURVE",
"56 65 CURVE",
"56 0 LINE"
);
}
);
width = 540;
},
{
layerId = "DBD97FAF-1301-49A4-893D-DCFDD4490496";
paths = (
{
closed = 1;
nodes = (
"544 0 LINE",
"544 134 LINE",
"265 128 LINE",
"265 134 LINE",
"265 134 OFFCURVE",
"312 179 OFFCURVE",
"397 280 CURVE SMOOTH",
"460 355 OFFCURVE",
"529 443 OFFCURVE",
"529 529 CURVE SMOOTH",
"529 647 OFFCURVE",
"429 716 OFFCURVE",
"294 716 CURVE SMOOTH",
"182 716 OFFCURVE",
"70 648 OFFCURVE",
"29 615 CURVE",
"91 499 LINE",
"163 542 OFFCURVE",
"256 578 OFFCURVE",
"312 578 CURVE SMOOTH",
"356 578 OFFCURVE",
"372 560 OFFCURVE",
"372 534 CURVE SMOOTH",
"372 479 OFFCURVE",
"315 409 OFFCURVE",
"233 318 CURVE SMOOTH",
"114 185 OFFCURVE",
"40 113 OFFCURVE",
"40 113 CURVE",
"40 0 LINE"
);
}
);
width = 586;
}
);
unicode = 0032;
},
{
glyphname = ae;
lastChange = "2018-04-27 22:54:01 +0000";
layers = (
{
anchors = (
{
name = bottom;
position = "{442, 0}";
},
{
name = top;
position = "{442, 582}";
}
);
layerId = UUID0;
paths = (
{
closed = 1;
nodes = (
"325 -13 OFFCURVE",
"422 61 OFFCURVE",
"443 78 CURVE",
"408 68 LINE",
"470 68 LINE",
"423 92 LINE",
"462 12 OFFCURVE",
"530 -13 OFFCURVE",
"615 -13 CURVE SMOOTH",
"720 -13 OFFCURVE",
"802 30 OFFCURVE",
"802 30 CURVE",
"781 98 LINE",
"781 98 OFFCURVE",
"680 60 OFFCURVE",
"606 60 CURVE SMOOTH",
"556 60 OFFCURVE",
"535 68 OFFCURVE",
"517 84 CURVE SMOOTH",
"503 99 OFFCURVE",
"479 134 OFFCURVE",
"475 234 CURVE SMOOTH",
"475 288 LINE",
"437 270 LINE",
"818 270 LINE",
"818 329 LINE SMOOTH",
"818 526 OFFCURVE",
"744 595 OFFCURVE",
"617 595 CURVE SMOOTH",
"546 595 OFFCURVE",
"488 575 OFFCURVE",
"447 519 CURVE",
"443 519 LINE",
"415 568 OFFCURVE",
"365 595 OFFCURVE",
"279 595 CURVE SMOOTH",
"186 595 OFFCURVE",
"67 538 OFFCURVE",
"67 538 CURVE",
"96 473 LINE",
"96 473 OFFCURVE",
"204 523 OFFCURVE",
"306 523 CURVE SMOOTH",
"333 523 OFFCURVE",
"357 520 OFFCURVE",
"371 499 CURVE SMOOTH",
"391 470 OFFCURVE",
"390 429 OFFCURVE",
"390 313 CURVE",
"428 342 LINE",
"284 342 LINE SMOOTH",
"150 342 OFFCURVE",
"54 300 OFFCURVE",
"54 171 CURVE SMOOTH",
"54 45 OFFCURVE",
"118 -13 OFFCURVE",
"215 -13 CURVE SMOOTH"
);
},
{
closed = 1;
nodes = (
"166 61 OFFCURVE",
"141 89 OFFCURVE",
"141 162 CURVE SMOOTH",
"141 211 OFFCURVE",
"151 239 OFFCURVE",
"168 253 CURVE SMOOTH",
"183 265 OFFCURVE",
"224 272 OFFCURVE",
"279 272 CURVE SMOOTH",
"365 272 OFFCURVE",
"384 265 OFFCURVE",
"398 263 CURVE",
"390 293 LINE",
"390 73 LINE",
"403 118 LINE",
"384 107 OFFCURVE",
"304 61 OFFCURVE",
"228 61 CURVE SMOOTH"
);
},
{
closed = 1;
nodes = (
"471 389 OFFCURVE",
"480 452 OFFCURVE",
"507 485 CURVE SMOOTH",
"526 509 OFFCURVE",
"555 523 OFFCURVE",
"620 523 CURVE SMOOTH",
"677 523 OFFCURVE",
"700 511 OFFCURVE",
"710 496 CURVE SMOOTH",
"729 465 OFFCURVE",
"733 411 OFFCURVE",
"733 341 CURVE",
"436 335 LINE",
"475 300 LINE"
);
}
);
width = 883;
},
{
anchors = (
{
name = bottom;
position = "{476, 0}";
},
{
name = top;
position = "{476, 588}";
}
);
layerId = "DBD97FAF-1301-49A4-893D-DCFDD4490496";
paths = (
{
closed = 1;
nodes = (
"317 -13 OFFCURVE",
"404 45 OFFCURVE",
"452 76 CURVE",
"456 76 LINE",
"504 10 OFFCURVE",
"577 -13 OFFCURVE",
"668 -13 CURVE SMOOTH",
"782 -13 OFFCURVE",
"898 41 OFFCURVE",
"898 41 CURVE",
"860 153 LINE",
"860 153 OFFCURVE",
"728 110 OFFCURVE",
"650 110 CURVE SMOOTH",
"621 110 OFFCURVE",
"601 117 OFFCURVE",
"588 129 CURVE SMOOTH",
"575 140 OFFCURVE",
"560 170 OFFCURVE",
"557 229 CURVE SMOOTH",
"557 243 LINE",
"909 243 LINE",
"909 326 LINE SMOOTH",
"909 531 OFFCURVE",
"821 601 OFFCURVE",
"666 601 CURVE SMOOTH",
"599 601 OFFCURVE",
"542 587 OFFCURVE",
"495 552 CURVE",
"491 552 LINE",
"456 583 OFFCURVE",
"404 601 OFFCURVE",
"330 601 CURVE SMOOTH",
"187 601 OFFCURVE",
"71 549 OFFCURVE",
"71 549 CURVE",
"103 437 LINE",
"103 437 OFFCURVE",
"227 477 OFFCURVE",
"328 477 CURVE SMOOTH",
"369 477 OFFCURVE",
"380 467 OFFCURVE",
"386 458 CURVE SMOOTH",
"394 448 OFFCURVE",
"399 417 OFFCURVE",
"399 368 CURVE",
"324 368 LINE SMOOTH",
"162 368 OFFCURVE",
"56 324 OFFCURVE",
"56 182 CURVE SMOOTH",
"56 56 OFFCURVE",
"128 -13 OFFCURVE",
"231 -13 CURVE SMOOTH"
);
},
{
closed = 1;
nodes = (
"230 114 OFFCURVE",
"214 135 OFFCURVE",
"214 186 CURVE SMOOTH",
"214 219 OFFCURVE",
"222 235 OFFCURVE",
"231 243 CURVE SMOOTH",
"243 254 OFFCURVE",
"266 258 OFFCURVE",
"314 258 CURVE SMOOTH",
"363 258 OFFCURVE",
"399 253 OFFCURVE",
"399 253 CURVE",
"399 152 LINE",
"399 152 OFFCURVE",
"329 114 OFFCURVE",
"270 114 CURVE SMOOTH"
);
},
{
closed = 1;
nodes = (
"560 404 OFFCURVE",
"569 436 OFFCURVE",
"584 453 CURVE SMOOTH",
"597 468 OFFCURVE",
"619 479 OFFCURVE",
"666 479 CURVE SMOOTH",
"709 479 OFFCURVE",
"724 468 OFFCURVE",
"733 457 CURVE SMOOTH",
"745 441 OFFCURVE",
"750 410 OFFCURVE",
"751 359 CURVE",
"558 355 LINE"
);
}
);
width = 952;
},
{
anchors = (
{
name = bottom;
position = "{442, 0}";
},
{
name = top;
position = "{442, 582}";
}
);
associatedMasterId = UUID0;
layerId = "D53F7240-5239-4000-AD39-5CC139A0E06B";
name = "Mar 29 18, 17:00";
paths = (
{
closed = 1;
nodes = (
"331 -13 OFFCURVE",
"456 86 OFFCURVE",
"428 65 CURVE",
"394 68 LINE",
"475 68 LINE",
"423 92 LINE",
"462 12 OFFCURVE",
"530 -13 OFFCURVE",
"615 -13 CURVE SMOOTH",
"720 -13 OFFCURVE",
"802 30 OFFCURVE",
"802 30 CURVE",
"781 98 LINE",
"781 98 OFFCURVE",
"680 60 OFFCURVE",
"606 60 CURVE SMOOTH",
"556 60 OFFCURVE",
"535 68 OFFCURVE",
"517 84 CURVE SMOOTH",
"503 99 OFFCURVE",
"479 134 OFFCURVE",
"475 234 CURVE SMOOTH",
"475 288 LINE",
"437 270 LINE",
"818 270 LINE",
"818 329 LINE SMOOTH",
"818 526 OFFCURVE",
"744 595 OFFCURVE",
"617 595 CURVE SMOOTH",
"546 595 OFFCURVE",
"488 575 OFFCURVE",
"447 519 CURVE",
"443 519 LINE",
"415 568 OFFCURVE",
"365 595 OFFCURVE",
"279 595 CURVE SMOOTH",
"186 595 OFFCURVE",
"67 538 OFFCURVE",
"67 538 CURVE",
"96 473 LINE",
"96 473 OFFCURVE",
"204 523 OFFCURVE",
"306 523 CURVE SMOOTH",
"333 523 OFFCURVE",
"357 520 OFFCURVE",
"371 499 CURVE SMOOTH",
"391 470 OFFCURVE",
"390 414 OFFCURVE",
"390 298 CURVE",
"428 342 LINE",
"284 342 LINE SMOOTH",
"150 342 OFFCURVE",
"54 300 OFFCURVE",
"54 171 CURVE SMOOTH",
"54 45 OFFCURVE",
"118 -13 OFFCURVE",
"215 -13 CURVE SMOOTH"
);
},
{
closed = 1;
nodes = (
"166 61 OFFCURVE",
"141 89 OFFCURVE",
"141 162 CURVE SMOOTH",
"141 211 OFFCURVE",
"151 239 OFFCURVE",
"168 253 CURVE SMOOTH",
"183 265 OFFCURVE",
"224 272 OFFCURVE",
"279 272 CURVE SMOOTH",
"349 272 OFFCURVE",
"390 265 OFFCURVE",
"390 265 CURVE",
"390 111 LINE",
"390 111 OFFCURVE",
"298 61 OFFCURVE",
"228 61 CURVE SMOOTH"
);
},
{
closed = 1;
nodes = (
"471 389 OFFCURVE",
"480 452 OFFCURVE",
"507 485 CURVE SMOOTH",
"526 509 OFFCURVE",
"555 523 OFFCURVE",
"620 523 CURVE SMOOTH",
"677 523 OFFCURVE",
"700 511 OFFCURVE",
"710 496 CURVE SMOOTH",
"729 465 OFFCURVE",
"733 411 OFFCURVE",
"733 341 CURVE",
"436 335 LINE",
"475 300 LINE"
);
}
);
visible = 1;
width = 883;
}
);
leftKerningGroup = a;
rightKerningGroup = e;
unicode = 00E6;
},
{
glyphname = oe;
lastChange = "2018-04-27 22:54:01 +0000";
layers = (
{
anchors = (
{
name = bottom;
position = "{458, 0}";
},
{
name = top;
position = "{458, 582}";
}
);
layerId = UUID0;
paths = (
{
closed = 1;
nodes = (
"386 -13 OFFCURVE",
"446 28 OFFCURVE",
"477 103 CURVE",
"428 80 LINE",
"508 80 LINE",
"457 105 LINE",
"495 22 OFFCURVE",
"560 -13 OFFCURVE",
"648 -13 CURVE SMOOTH",
"752 -13 OFFCURVE",
"835 30 OFFCURVE",
"835 30 CURVE",
"814 98 LINE",
"814 98 OFFCURVE",
"713 60 OFFCURVE",
"638 60 CURVE SMOOTH",
"590 60 OFFCURVE",
"568 68 OFFCURVE",
"550 84 CURVE SMOOTH",
"535 97 OFFCURVE",
"510 132 OFFCURVE",
"507 225 CURVE SMOOTH",
"507 297 LINE",
"469 259 LINE",
"851 259 LINE",
"851 321 LINE SMOOTH",
"851 523 OFFCURVE",
"776 595 OFFCURVE",
"649 595 CURVE SMOOTH",
"561 595 OFFCURVE",
"492 564 OFFCURVE",
"454 476 CURVE",
"505 502 LINE",
"425 502 LINE",
"474 480 LINE",
"443 552 OFFCURVE",
"387 595 OFFCURVE",
"288 595 CURVE SMOOTH",
"122 595 OFFCURVE",
"70 478 OFFCURVE",
"70 291 CURVE SMOOTH",
"70 103 OFFCURVE",
"122 -13 OFFCURVE",
"288 -13 CURVE SMOOTH"
);
},
{
closed = 1;
nodes = (
"187 58 OFFCURVE",
"154 93 OFFCURVE",
"154 291 CURVE SMOOTH",
"154 489 OFFCURVE",
"187 523 OFFCURVE",
"288 523 CURVE SMOOTH",
"389 523 OFFCURVE",
"421 489 OFFCURVE",
"421 291 CURVE SMOOTH",
"421 93 OFFCURVE",
"389 58 OFFCURVE",
"288 58 CURVE SMOOTH"
);
},
{
closed = 1;
nodes = (
"504 381 OFFCURVE",
"514 450 OFFCURVE",
"539 483 CURVE SMOOTH",
"559 509 OFFCURVE",
"588 523 OFFCURVE",
"653 523 CURVE SMOOTH",
"710 523 OFFCURVE",
"733 511 OFFCURVE",
"743 493 CURVE SMOOTH",
"762 462 OFFCURVE",
"766 406 OFFCURVE",
"766 330 CURVE",
"469 324 LINE",
"508 289 LINE"
);
}
);
width = 916;
},
{
anchors = (
{
name = bottom;
position = "{483, 0}";
},
{
name = top;
position = "{483, 588}";
}
);
layerId = "DBD97FAF-1301-49A4-893D-DCFDD4490496";
paths = (
{
closed = 1;
nodes = (
"391 -13 OFFCURVE",
"449 9 OFFCURVE",
"489 50 CURVE",
"493 50 LINE",
"540 6 OFFCURVE",
"604 -13 OFFCURVE",
"682 -13 CURVE SMOOTH",
"796 -13 OFFCURVE",
"912 41 OFFCURVE",
"912 41 CURVE",
"874 153 LINE",
"874 153 OFFCURVE",
"742 110 OFFCURVE",
"664 110 CURVE SMOOTH",
"635 110 OFFCURVE",
"615 117 OFFCURVE",
"602 129 CURVE SMOOTH",
"588 141 OFFCURVE",
"573 171 OFFCURVE",
"571 236 CURVE SMOOTH",
"571 240 LINE",
"923 240 LINE",
"923 323 LINE SMOOTH",
"923 528 OFFCURVE",
"835 601 OFFCURVE",
"680 601 CURVE SMOOTH",
"605 601 OFFCURVE",
"541 583 OFFCURVE",
"493 538 CURVE",
"489 538 LINE",
"448 579 OFFCURVE",
"391 601 OFFCURVE",
"307 601 CURVE SMOOTH",
"112 601 OFFCURVE",
"48 483 OFFCURVE",
"48 294 CURVE SMOOTH",
"48 105 OFFCURVE",
"112 -13 OFFCURVE",
"307 -13 CURVE SMOOTH"
);
},
{
closed = 1;
nodes = (
"229 105 OFFCURVE",
"206 141 OFFCURVE",
"206 294 CURVE SMOOTH",
"206 448 OFFCURVE",
"230 483 OFFCURVE",
"307 483 CURVE SMOOTH",
"383 483 OFFCURVE",
"406 448 OFFCURVE",
"406 294 CURVE SMOOTH",
"406 141 OFFCURVE",
"384 105 OFFCURVE",
"307 105 CURVE SMOOTH"
);
},
{
closed = 1;
nodes = (
"574 401 OFFCURVE",
"583 436 OFFCURVE",
"598 453 CURVE SMOOTH",
"611 468 OFFCURVE",
"633 479 OFFCURVE",
"680 479 CURVE SMOOTH",
"723 479 OFFCURVE",
"738 468 OFFCURVE",
"747 457 CURVE SMOOTH",
"759 441 OFFCURVE",
"764 407 OFFCURVE",
"765 356 CURVE",
"572 352 LINE"
);
}
);
width = 966;
}
);
leftKerningGroup = c;
rightKerningGroup = e;
unicode = 0153;
},
{
glyphname = asterisk;
lastChange = "2018-04-27 22:54:01 +0000";
layers = (
{
layerId = UUID0;
paths = (
{
closed = 1;
nodes = (
"140 389 LINE",
"206 493 LINE",
"271 389 LINE",
"282 374 LINE",
"347 429 LINE",
"333 443 LINE",
"245 527 LINE",
"359 546 LINE",
"378 552 LINE",
"351 635 LINE",
"333 628 LINE",
"233 578 LINE",
"250 688 LINE",
"250 707 LINE",
"164 707 LINE",
"164 688 LINE",
"180 578 LINE",
"81 628 LINE",
"62 635 LINE",
"36 552 LINE",
"54 546 LINE",
"167 527 LINE",
"78 443 LINE",
"65 429 LINE",
"129 374 LINE"
);
}
);
width = 414;
},
{
layerId = "DBD97FAF-1301-49A4-893D-DCFDD4490496";
paths = (
{
closed = 1;
nodes = (
"145 363 LINE",
"207 466 LINE",
"267 364 LINE",
"280 347 LINE",
"375 428 LINE",
"360 443 LINE",
"270 520 LINE",
"381 533 LINE",
"402 539 LINE",
"365 657 LINE",
"344 651 LINE",
"251 604 LINE",
"270 704 LINE",
"270 725 LINE",
"146 725 LINE",
"146 704 LINE",
"165 604 LINE",
"72 651 LINE",
"50 658 LINE",
"14 539 LINE",
"34 533 LINE",
"142 520 LINE",
"55 442 LINE",
"41 427 LINE",
"132 346 LINE"
);
}
);
width = 416;
}
);
unicode = 002A;
},
{
color = 3;
glyphname = y;
lastChange = "2018-04-28 09:38:28 +0000";
layers = (
{
anchors = (
{
name = bottom;
position = "{240, 0}";
},
{
name = top;
position = "{240, 582}";
}
);
layerId = UUID0;
paths = (
{
closed = 1;
nodes = (
"207 -166 LINE",
"265 37 LINE",
"461 582 LINE",
"372 582 LINE",
"227 121 LINE",
"276 157 LINE",
"195 157 LINE",
"245 121 LINE",
"100 582 LINE",
"11 582 LINE",
"197 61 LINE",
"119 -166 LINE"
);
}
);
width = 479;
},
{
layerId = "DBD97FAF-1301-49A4-893D-DCFDD4490496";
paths = (
{
closed = 1;
nodes = (
"273 -166 LINE",
"331 28 LINE",
"536 588 LINE",
"375 588 LINE",
"272 196 LINE",
"266 196 LINE",
"160 588 LINE",
"0 588 LINE",
"198 48 LINE",
"112 -166 LINE"
);
}
);
width = 536;
},
{
anchors = (
{
name = bottom;
position = "{240, 0}";
},
{
name = top;
position = "{240, 582}";
}
);
associatedMasterId = UUID0;
layerId = "5A4B9BD0-FFC7-4B05-91C2-EEAA30C795CD";
name = "Apr 20 18, 12:20";
paths = (
{
closed = 1;
nodes = (
"213 -166 LINE",
"267 37 LINE",
"469 582 LINE",
"379 582 LINE",
"232 119 LINE",
"281 155 LINE",
"200 155 LINE",
"250 119 LINE",
"101 582 LINE",
"3 582 LINE",
"204 57 LINE",
"125 -166 LINE"
);
}
);
width = 479;
}
);
leftKerningGroup = y;
rightKerningGroup = y;
unicode = 0079;
},
